<?xml version="1.0" encoding="UTF-8" standalone="no"?>
<!-- Created with Inkscape (http://www.inkscape.org/) -->

<svg
   xmlns:dc="http://purl.org/dc/elements/1.1/"
   xmlns:cc="http://creativecommons.org/ns#"
   xmlns:rdf="http://www.w3.org/1999/02/22-rdf-syntax-ns#"
   xmlns:svg="http://www.w3.org/2000/svg"
   xmlns="http://www.w3.org/2000/svg"
   xmlns:sodipodi="http://sodipodi.sourceforge.net/DTD/sodipodi-0.dtd"
   xmlns:inkscape="http://www.inkscape.org/namespaces/inkscape"
   width="114.42663mm"
   height="47.942993mm"
   viewBox="0 0 114.42663 47.942993"
   version="1.1"
   id="svg5189"
   inkscape:version="0.92.3 (2405546, 2018-03-11)"
   sodipodi:docname="desenhando-2.svg">
  <defs
     id="defs5183">
    <clipPath
       clipPathUnits="userSpaceOnUse"
       id="clipPath814">
      <path
         style="font-style:normal;font-variant:normal;font-weight:normal;font-stretch:normal;font-size:192px;font-family:'Grand Hotel';-inkscape-font-specification:'Grand Hotel';stroke-width:0.26510966"
         d="m 28.877424,3.2915815 c -0.03318,0 -0.07458,0.02485 -0.124272,0.074565 -0.04973,0.033138 -0.12427,0.074555 -0.223682,0.1242695 -0.08282,0.049707 -0.198834,0.099416 -0.347958,0.1491247 -0.132554,0.033138 -0.306528,0.049707 -0.521936,0.049707 h -1.416678 c -0.679341,-0.016568 -1.44982,-0.033138 -2.311428,-0.049707 -0.861597,-0.016568 -1.731494,-0.02485 -2.609671,-0.02485 -0.8616,-0.016568 -1.598935,-0.02485 -2.21201,-0.02485 -2.651088,0 -5.095076,0.323102 -7.331935,0.9693066 C 9.5575665,5.205354 7.6355173,6.1663773 6.0117223,7.4422164 4.3879267,8.7014868 3.1203728,10.267289 2.209061,12.139628 c -0.9113203,1.872335 -1.36697205,4.034636 -1.36697205,6.486901 0,1.342118 0.16569445,2.593103 0.49707535,3.752958 0.3313893,1.143285 0.7290546,2.162303 1.1929961,3.057043 0.4639416,0.894751 0.9527355,1.648649 1.4663907,2.261723 0.5136465,0.596495 0.9527355,1.027292 1.3172585,1.292405 0.1325608,0.115983 0.2568234,0.19055 0.372813,0.223692 0.1325523,0.03309 0.2651131,0.04973 0.3976653,0.04973 0.2982474,0 0.5882127,-0.09112 0.8698887,-0.273394 0.2982465,-0.198826 0.5633595,-0.439089 0.7953303,-0.720764 0.2319703,-0.298247 0.4142364,-0.621356 0.5467885,-0.969307 0.1491226,-0.364529 0.2236885,-0.712483 0.2236885,-1.043872 0,-0.265106 -0.05804,-0.472225 -0.1739847,-0.621347 C 8.2320183,25.486255 8.0331823,25.453114 7.7515069,25.535964 7.4201179,25.204572 7.0804466,24.823478 6.7324957,24.392679 6.4011059,23.961871 6.0945694,23.464792 5.8128937,22.901433 5.5312093,22.338076 5.2992385,21.70844 5.1169813,21.012526 4.9512866,20.300043 4.8684394,19.504716 4.8684394,18.62654 c 0,-1.971753 0.3313891,-3.62869 0.9941592,-4.970806 C 6.5253767,12.297047 7.4118364,11.195186 8.5219839,10.350149 9.6321234,9.5051102 10.916247,8.8754765 12.374356,8.4612427 13.832457,8.0304391 15.348553,7.7487603 16.922643,7.6162053 V 35.726111 c 0,1.29241 -0.107708,2.236864 -0.323108,2.833356 -0.198828,0.57993 -0.530217,0.869898 -0.99416,0.869898 -0.132552,0 -0.256822,-0.01654 -0.372812,-0.04973 -0.09941,-0.03317 -0.190547,-0.05803 -0.273394,-0.07457 -0.06628,0 -0.124272,0.01654 -0.173978,0.04973 -0.03317,0.04972 -0.04972,0.157414 -0.04972,0.323107 0,0.248534 0.107699,0.538498 0.323099,0.869889 0.231972,0.331388 0.513647,0.654487 0.845037,0.969306 0.34796,0.314818 0.712483,0.579922 1.093577,0.79533 0.381095,0.2154 0.729055,0.323099 1.043873,0.323099 0.414228,0 0.795322,-0.115989 1.143283,-0.347959 0.364523,-0.231971 0.67106,-0.596493 0.919602,-1.093568 0.248532,-0.497086 0.439088,-1.143294 0.571641,-1.938623 0.149123,-0.795322 0.223681,-1.756347 0.223681,-2.883062 V 7.5167665 c 0.596502,0.016571 1.242701,0.03315 1.938613,0.04971 0.69592,0.016571 1.358692,0.03314 1.988328,0.04971 0.629636,0.016571 1.184706,0.03314 1.66522,0.04971 h 1.019011 c 0.331388,0 0.621353,-0.08285 0.869894,-0.248539 0.248534,-0.165694 0.455655,-0.3728109 0.62135,-0.6213507 0.165693,-0.2651099 0.289965,-0.5550749 0.372811,-0.8698915 0.08282,-0.3313877 0.12427,-0.6462051 0.12427,-0.9444538 0,-0.1988314 -0.01654,-0.3976637 -0.04972,-0.5964962 C 29.415864,4.1863182 29.366226,4.0123404 29.299916,3.8632154 29.250201,3.6975219 29.183936,3.564967 29.10109,3.4655517 29.034822,3.3495655 28.960247,3.2915725 28.877398,3.2915725 Z M 28.181512,17.085567 c -0.331388,0 -0.65449,0.058 -0.969307,0.173977 -0.314817,0.09942 -0.588213,0.256825 -0.820183,0.472227 -0.23197,0.198833 -0.422519,0.447373 -0.571642,0.745621 -0.132552,0.28168 -0.198829,0.596498 -0.198829,0.944453 0,0.74562 0.207119,1.391826 0.621347,1.938613 0.414235,0.53022 0.936174,0.969308 1.565808,1.317264 -0.01656,0.646206 -0.04141,1.383543 -0.07458,2.212006 -0.03318,0.811902 -0.08281,1.632087 -0.149125,2.46055 -0.04973,0.811903 -0.124272,1.590662 -0.223689,2.336279 -0.0994,0.729054 -0.2154,1.350401 -0.347951,1.864058 -0.115991,0.430798 -0.06627,0.845034 0.149122,1.242701 0.2154,0.397658 0.497075,0.704191 0.845037,0.919591 0.347951,0.198837 0.695912,0.256823 1.043871,0.173987 0.364524,-0.08282 0.629629,-0.389387 0.795324,-0.919604 0.231971,-0.745625 0.422519,-1.557518 0.57164,-2.435696 0.165696,-0.878179 0.298257,-1.748068 0.397666,-2.609673 0.09942,-0.861608 0.165696,-1.673502 0.198837,-2.435691 0.04973,-0.762196 0.0829,-1.391824 0.09942,-1.888908 h 0.571641 3.877228 c -0.828472,2.203726 -1.466393,4.225179 -1.913763,6.064383 -0.430808,1.822624 -0.646206,3.554129 -0.646206,5.194495 0,1.126713 0.157414,2.062885 0.472231,2.808502 0.33138,0.729054 0.745617,1.317257 1.242701,1.764636 0.513649,0.447371 1.077005,0.762188 1.690071,0.944457 0.629637,0.182255 1.242703,0.273391 1.839195,0.273391 1.093579,0 2.046314,-0.256828 2.858217,-0.770477 0.790737,-0.500258 1.470438,-1.127334 2.041139,-1.879066 0.09369,0.150159 0.191304,0.296844 0.29514,0.437536 0.513646,0.679342 1.143283,1.217841 1.888908,1.615507 0.762188,0.397666 1.640366,0.5965 2.634525,0.5965 0.961017,0 1.79777,-0.207116 2.510256,-0.621353 0.729054,-0.397666 1.350401,-0.88646 1.864055,-1.466392 0.381096,0.629637 0.903023,1.135002 1.565802,1.516097 0.662771,0.381103 1.441529,0.571648 2.336279,0.571648 1.093578,0 2.046314,-0.256828 2.858214,-0.770477 0.62747,-0.38903 1.183423,-0.854342 1.668328,-1.395452 0.0076,0.445791 0.07921,0.805291 0.220572,1.072353 0.165695,0.298247 0.364532,0.521928 0.596503,0.671052 0.248542,0.165696 0.513646,0.273392 0.795322,0.323107 0.298257,0.06627 0.571651,0.09942 0.820184,0.09942 0.364533,0 0.637927,-0.07458 0.820185,-0.22369 0.198837,-0.132553 0.339677,-0.306535 0.422516,-0.521935 0.09942,-0.198829 0.149132,-0.422519 0.149132,-0.67106 0.01654,-0.265105 0.02487,-0.521936 0.02487,-0.77047 V 31.02868 c 0.09941,-1.01073 0.339672,-2.013183 0.720767,-3.007339 0.397666,-1.010732 0.853326,-1.913761 1.36697,-2.709092 0.513657,-0.795323 1.035592,-1.441531 1.565812,-1.938611 0.530217,-0.497081 0.977585,-0.745621 1.34211,-0.745621 0.248541,0 0.439089,0.08285 0.57165,0.24854 0.149125,0.149124 0.256824,0.356242 0.323099,0.62135 0.08282,0.26511 0.132567,0.57164 0.149125,0.919601 0.01654,0.347951 0.02487,0.720764 0.02487,1.118431 v 10.339275 c 0,0.646205 0.09112,1.259271 0.273394,1.839195 0.198827,0.57993 0.480502,1.085295 0.845035,1.516095 0.381095,0.430808 0.828465,0.770477 1.342109,1.019021 0.53023,0.265102 1.135004,0.397664 1.814354,0.397664 1.093576,0 2.046311,-0.256831 2.858206,-0.770478 0.811901,-0.513646 1.507813,-1.159853 2.087745,-1.938615 0.167736,-0.218993 0.323866,-0.445452 0.473255,-0.676232 0.245806,0.331205 0.50986,0.640336 0.794298,0.924774 0.828466,0.811895 1.77292,1.424961 2.833357,1.839198 1.060444,0.414234 2.15402,0.621353 3.280732,0.621353 1.242703,0 2.344571,-0.157411 3.305588,-0.472231 0.977585,-0.314817 1.830898,-0.729046 2.559947,-1.242703 0.729046,-0.513644 1.342107,-1.093576 1.839188,-1.739784 0.11974,-0.154506 0.233452,-0.30956 0.343302,-0.464973 0.309766,0.466479 0.649769,0.896302 1.023665,1.285155 0.845042,0.845048 1.806059,1.491245 2.883053,1.938623 1.093576,0.463942 2.220286,0.695913 3.380146,0.695913 1.24272,0 2.34458,-0.157411 3.30559,-0.472231 0.96102,-0.314817 1.79778,-0.729046 2.51026,-1.242703 0.71248,-0.513644 1.30898,-1.093576 1.78949,-1.739784 0.49707,-0.662768 0.90303,-1.333828 1.21784,-2.013169 0.31481,-0.679342 0.5468,-1.350402 0.69594,-2.013181 0.16566,-0.66277 0.28166,-1.250981 0.34794,-1.764638 0.0496,-0.447371 -0.0663,-0.828463 -0.34794,-1.143283 -0.26514,-0.331388 -0.58822,-0.546788 -0.96933,-0.646205 -0.36452,-0.0994 -0.72906,-0.04973 -1.09357,0.149129 -0.34797,0.182259 -0.57994,0.55507 -0.69592,1.118434 -0.14913,0.778756 -0.37281,1.549228 -0.67105,2.311416 -0.29826,0.762196 -0.69592,1.449819 -1.193,2.062885 -0.48052,0.613074 -1.077,1.110146 -1.78949,1.491242 -0.71248,0.364532 -1.56581,0.54679 -2.55997,0.54679 -0.66278,0 -1.25099,-0.08282 -1.76464,-0.248544 -0.49708,-0.165685 -0.93618,-0.389374 -1.31727,-0.67105 -0.381087,-0.281683 -0.712475,-0.613074 -0.994145,-0.994169 -0.265107,-0.397663 -0.480507,-0.811892 -0.646197,-1.2427 1.226114,-0.364522 2.303132,-0.894739 3.231012,-1.590651 0.94445,-0.712486 1.73151,-1.507816 2.36114,-2.385994 0.6462,-0.894742 1.12671,-1.839196 1.44153,-2.833355 0.33138,-0.994159 0.49708,-1.963466 0.49708,-2.90792 0,-0.762192 -0.10771,-1.458105 -0.3231,-2.08774 -0.19884,-0.629636 -0.49708,-1.168139 -0.89475,-1.615511 -0.39767,-0.463943 -0.88646,-0.820183 -1.46639,-1.068723 -0.56335,-0.24854 -1.20128,-0.372812 -1.91376,-0.372812 -0.97759,0 -1.930335,0.289964 -2.858213,0.869893 -0.927867,0.563357 -1.756339,1.350401 -2.485385,2.361131 -0.729051,1.010731 -1.317265,2.212009 -1.764628,3.603834 -0.44737,1.375252 -0.671054,2.866496 -0.671054,4.473729 0,0.742341 0.05637,1.447083 0.164658,2.117251 -0.05998,0.16446 -0.121902,0.328719 -0.189513,0.492414 -0.314812,0.762196 -0.729049,1.449819 -1.242693,2.062885 -0.513651,0.613074 -1.143291,1.110146 -1.888903,1.491242 -0.729043,0.364532 -1.590651,0.54679 -2.584817,0.54679 -0.745617,0 -1.44153,-0.132551 -2.087737,-0.397666 -0.629643,-0.281678 -1.176431,-0.687623 -1.640372,-1.21784 -0.463942,-0.530225 -0.828466,-1.184714 -1.093579,-1.963476 -0.248536,-0.778758 -0.372803,-1.6735 -0.372803,-2.684229 0,-1.143291 0.09941,-2.220299 0.298246,-3.231028 0.2154,-1.01073 0.488794,-1.897191 0.820182,-2.65938 0.347954,-0.762188 0.737339,-1.358685 1.168136,-1.789489 0.44737,-0.447371 0.903031,-0.671058 1.366972,-0.671058 0.430808,0 0.770477,0.107701 1.019022,0.323102 0.248533,0.198833 0.439081,0.447373 0.57164,0.745621 0.149124,0.281675 0.248534,0.579931 0.298246,0.894748 0.06627,0.314811 0.132554,0.579924 0.198832,0.795323 -0.04973,0.298248 -0.0083,0.521938 0.124269,0.671061 0.149122,0.149122 0.33967,0.23197 0.571641,0.24854 0.23197,0.01655 0.497083,-0.01655 0.795327,-0.09941 0.298249,-0.09941 0.57164,-0.240253 0.820184,-0.422518 0.248536,-0.182258 0.455652,-0.405946 0.621345,-0.671059 0.182256,-0.265106 0.273399,-0.563352 0.273399,-0.894741 0,-0.447375 -0.09113,-0.961025 -0.273399,-1.540953 -0.165693,-0.579926 -0.439079,-1.118432 -0.820177,-1.615512 -0.381092,-0.513648 -0.87817,-0.944453 -1.491236,-1.292408 -0.613064,-0.364525 -1.358691,-0.546789 -2.236862,-0.546789 -1.209566,0 -2.327994,0.339672 -3.355297,1.019015 -1.010733,0.679344 -1.880619,1.57409 -2.609676,2.684234 -0.729046,1.093575 -1.300694,2.344566 -1.714923,3.752962 -0.414235,1.408388 -0.621353,2.841644 -0.621353,4.299744 0,1.002215 0.09776,1.926603 0.29255,2.774328 -0.159412,0.5578 -0.362717,1.084136 -0.615651,1.575123 -0.265113,0.546788 -0.588211,1.002451 -0.969307,1.366972 -0.364524,0.364533 -0.803611,0.546788 -1.317267,0.546788 -0.331383,0 -0.588211,-0.09942 -0.77047,-0.298246 -0.165695,-0.198826 -0.289964,-0.4308 -0.372813,-0.695912 -0.08282,-0.265113 -0.132559,-0.521936 -0.149122,-0.770478 -0.01654,-0.265104 -0.02487,-0.455652 -0.02487,-0.57164 V 24.417505 c 0,-0.579927 -0.06628,-1.176424 -0.198829,-1.78949 -0.115988,-0.613065 -0.331388,-1.168139 -0.646208,-1.665219 -0.314817,-0.497082 -0.745614,-0.903031 -1.292405,-1.217848 -0.546788,-0.314818 -1.242703,-0.472227 -2.087737,-0.472227 -0.629637,0 -1.217851,0.132553 -1.764636,0.397663 -0.53022,0.248541 -1.035584,0.604784 -1.516097,1.068725 -0.463944,0.447372 -0.903031,0.977591 -1.317268,1.590657 -0.397666,0.613066 -0.770469,1.27584 -1.11843,1.988321 v -2.286569 c 0,-0.613066 -0.248542,-1.135001 -0.745617,-1.565804 -0.480513,-0.447372 -1.143291,-0.671059 -1.988326,-0.671059 -0.364524,0 -0.679344,0.08285 -0.944456,0.24854 -0.265105,0.149124 -0.397658,0.347959 -0.397658,0.596499 0,0.18226 0.03309,0.381095 0.09942,0.596496 0.08282,0.2154 0.124273,0.563357 0.124273,1.043868 v 8.869782 c -0.07702,0.184013 -0.143995,0.398624 -0.19883,0.649306 -0.115988,0.563362 -0.265112,1.168144 -0.447378,1.814351 -0.165688,0.629629 -0.389377,1.217843 -0.671052,1.764631 -0.265113,0.546788 -0.588214,1.002448 -0.969307,1.36697 -0.364532,0.364535 -0.803621,0.54679 -1.317267,0.54679 -0.298247,0 -0.563359,-0.06627 -0.79533,-0.198829 -0.2154,-0.149124 -0.389377,-0.331388 -0.521936,-0.546788 -0.132553,-0.23197 -0.231973,-0.480512 -0.298249,-0.745627 -0.06627,-0.281673 -0.09941,-0.563351 -0.09941,-0.845034 v -8.400664 c 0,-0.613063 -0.248541,-1.134991 -0.745625,-1.5658 -0.497078,-0.447369 -1.168135,-0.671059 -2.013172,-0.671059 -0.364532,0 -0.679349,0.08282 -0.944454,0.248542 -0.248542,0.149124 -0.372814,0.356241 -0.372814,0.621346 0,0.08282 0.0083,0.173985 0.02487,0.273395 0.01654,0.08282 0.03317,0.182267 0.04973,0.298256 0.03318,0.115981 0.05803,0.256822 0.07458,0.422517 0.03318,0.165686 0.04972,0.372803 0.04972,0.621347 v 7.853873 c -0.281684,0.712484 -0.654487,1.333828 -1.118431,1.864056 -0.463939,0.513646 -1.043871,0.770469 -1.739784,0.770469 -0.894738,0 -1.598943,-0.356243 -2.112589,-1.068723 -0.513654,-0.729049 -0.770477,-1.764631 -0.770477,-3.106751 0,-1.839195 0.256823,-3.421576 0.770477,-4.747122 0.513646,-1.342112 1.168135,-2.443972 1.963465,-3.305579 0.811903,-0.878179 1.714926,-1.524384 2.709092,-1.938617 0.994159,-0.430804 1.97175,-0.646206 2.932774,-0.646206 0.265113,0 0.521936,0.01657 0.77048,0.04971 0.248534,0.03314 0.488792,0.04971 0.720762,0.04971 0.248542,0 0.414229,-0.08283 0.497076,-0.24854 0.09942,-0.182261 0.149124,-0.488794 0.149124,-0.919598 0,-0.662775 -0.2154,-1.184708 -0.6462,-1.565804 -0.430807,-0.381096 -0.994158,-0.571642 -1.690071,-0.571642 -1.55752,0 -3.065333,0.314817 -4.523433,0.944453 -1.44154,0.629636 -2.725663,1.540949 -3.852375,2.733944 -1.126721,1.17642 -2.029751,2.609668 -2.709093,4.299738 -0.679342,1.690082 -1.019011,3.595553 -1.019011,5.716431 0,0.408586 0.02376,0.804519 0.05956,1.194028 -0.140766,0.425738 -0.308731,0.832096 -0.50692,1.216811 -0.281676,0.546788 -0.629629,1.002448 -1.043866,1.36697 -0.414234,0.364532 -0.91131,0.54679 -1.491242,0.54679 -0.347961,0 -0.654487,-0.07458 -0.919602,-0.223681 -0.248531,-0.149122 -0.455652,-0.347959 -0.621345,-0.596503 -0.165695,-0.265105 -0.289967,-0.563351 -0.372813,-0.894742 -0.08281,-0.331388 -0.124272,-0.671057 -0.124272,-1.019019 0,-0.845037 0.05803,-1.706642 0.173976,-2.584812 0.115991,-0.89475 0.256831,-1.756355 0.422527,-2.584821 0.165684,-0.828466 0.347953,-1.615514 0.546788,-2.361131 0.198829,-0.762189 0.381095,-1.433249 0.54678,-2.01318 0.165695,-0.579923 0.306538,-1.060436 0.422529,-1.44153 0.11598,-0.381095 0.173974,-0.621349 0.173974,-0.720766 0.04973,-0.298248 -0.02487,-0.613067 -0.22369,-0.944453 -0.182255,-0.33139 -0.414226,-0.637922 -0.695912,-0.919602 -0.281672,-0.298248 -0.57164,-0.538504 -0.869884,-0.720768 C 37.095919,20.084621 36.88052,19.99349 36.731395,19.99349 H 34.07202 33.674354 c -0.132553,0 -0.298249,-0.0083 -0.497086,-0.02484 -0.198826,-0.01657 -0.447368,-0.03316 -0.745617,-0.04971 -0.281675,-0.03315 -0.629637,-0.07456 -1.043871,-0.12427 -0.149124,-0.51365 -0.339672,-0.944453 -0.571643,-1.292409 -0.231968,-0.347957 -0.497075,-0.629636 -0.795329,-0.845037 -0.281676,-0.215401 -0.588214,-0.364525 -0.919594,-0.447372 -0.314817,-0.08284 -0.621356,-0.124271 -0.919602,-0.124271 z m 72.747688,5.592155 c 0.3314,0 0.58821,0.157409 0.77048,0.472228 0.19883,0.314818 0.29825,0.753905 0.29825,1.317261 0,0.762189 -0.0994,1.499525 -0.29825,2.212007 -0.19884,0.695915 -0.48052,1.34212 -0.84503,1.938615 -0.36453,0.596501 -0.80362,1.126718 -1.317268,1.590662 -0.513656,0.463942 -1.085294,0.845034 -1.71491,1.143283 0,-0.165695 -0.0086,-0.323101 -0.02484,-0.472223 -0.01651,-0.149124 -0.02484,-0.298249 -0.02484,-0.447381 -0.01659,-0.347951 -0.0086,-0.778759 0.02484,-1.292405 0.0332,-0.530217 0.09943,-1.085289 0.198842,-1.665219 0.0994,-0.579932 0.223679,-1.151572 0.372798,-1.714924 0.165698,-0.579932 0.364527,-1.093579 0.596506,-1.540957 0.248528,-0.463938 0.530206,-0.836748 0.845026,-1.118428 0.331386,-0.281678 0.704186,-0.422519 1.118426,-0.422519 z"
         id="path816"
         inkscape:connector-curvature="0" />
    </clipPath>
    <clipPath
       clipPathUnits="userSpaceOnUse"
       id="clipPath818">
      <path
         style="font-style:normal;font-variant:normal;font-weight:normal;font-stretch:normal;font-size:192px;font-family:'Grand Hotel';-inkscape-font-specification:'Grand Hotel';stroke-width:0.26510966"
         d="m 28.877424,3.2915815 c -0.03318,0 -0.07458,0.02485 -0.124272,0.074565 -0.04973,0.033138 -0.12427,0.074555 -0.223682,0.1242695 -0.08282,0.049707 -0.198834,0.099416 -0.347958,0.1491247 -0.132554,0.033138 -0.306528,0.049707 -0.521936,0.049707 h -1.416678 c -0.679341,-0.016568 -1.44982,-0.033138 -2.311428,-0.049707 -0.861597,-0.016568 -1.731494,-0.02485 -2.609671,-0.02485 -0.8616,-0.016568 -1.598935,-0.02485 -2.21201,-0.02485 -2.651088,0 -5.095076,0.323102 -7.331935,0.9693066 C 9.5575665,5.205354 7.6355173,6.1663773 6.0117223,7.4422164 4.3879267,8.7014868 3.1203728,10.267289 2.209061,12.139628 c -0.9113203,1.872335 -1.36697205,4.034636 -1.36697205,6.486901 0,1.342118 0.16569445,2.593103 0.49707535,3.752958 0.3313893,1.143285 0.7290546,2.162303 1.1929961,3.057043 0.4639416,0.894751 0.9527355,1.648649 1.4663907,2.261723 0.5136465,0.596495 0.9527355,1.027292 1.3172585,1.292405 0.1325608,0.115983 0.2568234,0.19055 0.372813,0.223692 0.1325523,0.03309 0.2651131,0.04973 0.3976653,0.04973 0.2982474,0 0.5882127,-0.09112 0.8698887,-0.273394 0.2982465,-0.198826 0.5633595,-0.439089 0.7953303,-0.720764 0.2319703,-0.298247 0.4142364,-0.621356 0.5467885,-0.969307 0.1491226,-0.364529 0.2236885,-0.712483 0.2236885,-1.043872 0,-0.265106 -0.05804,-0.472225 -0.1739847,-0.621347 C 8.2320183,25.486255 8.0331823,25.453114 7.7515069,25.535964 7.4201179,25.204572 7.0804466,24.823478 6.7324957,24.392679 6.4011059,23.961871 6.0945694,23.464792 5.8128937,22.901433 5.5312093,22.338076 5.2992385,21.70844 5.1169813,21.012526 4.9512866,20.300043 4.8684394,19.504716 4.8684394,18.62654 c 0,-1.971753 0.3313891,-3.62869 0.9941592,-4.970806 C 6.5253767,12.297047 7.4118364,11.195186 8.5219839,10.350149 9.6321234,9.5051102 10.916247,8.8754765 12.374356,8.4612427 13.832457,8.0304391 15.348553,7.7487603 16.922643,7.6162053 V 35.726111 c 0,1.29241 -0.107708,2.236864 -0.323108,2.833356 -0.198828,0.57993 -0.530217,0.869898 -0.99416,0.869898 -0.132552,0 -0.256822,-0.01654 -0.372812,-0.04973 -0.09941,-0.03317 -0.190547,-0.05803 -0.273394,-0.07457 -0.06628,0 -0.124272,0.01654 -0.173978,0.04973 -0.03317,0.04972 -0.04972,0.157414 -0.04972,0.323107 0,0.248534 0.107699,0.538498 0.323099,0.869889 0.231972,0.331388 0.513647,0.654487 0.845037,0.969306 0.34796,0.314818 0.712483,0.579922 1.093577,0.79533 0.381095,0.2154 0.729055,0.323099 1.043873,0.323099 0.414228,0 0.795322,-0.115989 1.143283,-0.347959 0.364523,-0.231971 0.67106,-0.596493 0.919602,-1.093568 0.248532,-0.497086 0.439088,-1.143294 0.571641,-1.938623 0.149123,-0.795322 0.223681,-1.756347 0.223681,-2.883062 V 7.5167665 c 0.596502,0.016571 1.242701,0.03315 1.938613,0.04971 0.69592,0.016571 1.358692,0.03314 1.988328,0.04971 0.629636,0.016571 1.184706,0.03314 1.66522,0.04971 h 1.019011 c 0.331388,0 0.621353,-0.08285 0.869894,-0.248539 0.248534,-0.165694 0.455655,-0.3728109 0.62135,-0.6213507 0.165693,-0.2651099 0.289965,-0.5550749 0.372811,-0.8698915 0.08282,-0.3313877 0.12427,-0.6462051 0.12427,-0.9444538 0,-0.1988314 -0.01654,-0.3976637 -0.04972,-0.5964962 C 29.415864,4.1863182 29.366226,4.0123404 29.299916,3.8632154 29.250201,3.6975219 29.183936,3.564967 29.10109,3.4655517 29.034822,3.3495655 28.960247,3.2915725 28.877398,3.2915725 Z M 28.181512,17.085567 c -0.331388,0 -0.65449,0.058 -0.969307,0.173977 -0.314817,0.09942 -0.588213,0.256825 -0.820183,0.472227 -0.23197,0.198833 -0.422519,0.447373 -0.571642,0.745621 -0.132552,0.28168 -0.198829,0.596498 -0.198829,0.944453 0,0.74562 0.207119,1.391826 0.621347,1.938613 0.414235,0.53022 0.936174,0.969308 1.565808,1.317264 -0.01656,0.646206 -0.04141,1.383543 -0.07458,2.212006 -0.03318,0.811902 -0.08281,1.632087 -0.149125,2.46055 -0.04973,0.811903 -0.124272,1.590662 -0.223689,2.336279 -0.0994,0.729054 -0.2154,1.350401 -0.347951,1.864058 -0.115991,0.430798 -0.06627,0.845034 0.149122,1.242701 0.2154,0.397658 0.497075,0.704191 0.845037,0.919591 0.347951,0.198837 0.695912,0.256823 1.043871,0.173987 0.364524,-0.08282 0.629629,-0.389387 0.795324,-0.919604 0.231971,-0.745625 0.422519,-1.557518 0.57164,-2.435696 0.165696,-0.878179 0.298257,-1.748068 0.397666,-2.609673 0.09942,-0.861608 0.165696,-1.673502 0.198837,-2.435691 0.04973,-0.762196 0.0829,-1.391824 0.09942,-1.888908 h 0.571641 3.877228 c -0.828472,2.203726 -1.466393,4.225179 -1.913763,6.064383 -0.430808,1.822624 -0.646206,3.554129 -0.646206,5.194495 0,1.126713 0.157414,2.062885 0.472231,2.808502 0.33138,0.729054 0.745617,1.317257 1.242701,1.764636 0.513649,0.447371 1.077005,0.762188 1.690071,0.944457 0.629637,0.182255 1.242703,0.273391 1.839195,0.273391 1.093579,0 2.046314,-0.256828 2.858217,-0.770477 0.790737,-0.500258 1.470438,-1.127334 2.041139,-1.879066 0.09369,0.150159 0.191304,0.296844 0.29514,0.437536 0.513646,0.679342 1.143283,1.217841 1.888908,1.615507 0.762188,0.397666 1.640366,0.5965 2.634525,0.5965 0.961017,0 1.79777,-0.207116 2.510256,-0.621353 0.729054,-0.397666 1.350401,-0.88646 1.864055,-1.466392 0.381096,0.629637 0.903023,1.135002 1.565802,1.516097 0.662771,0.381103 1.441529,0.571648 2.336279,0.571648 1.093578,0 2.046314,-0.256828 2.858214,-0.770477 0.62747,-0.38903 1.183423,-0.854342 1.668328,-1.395452 0.0076,0.445791 0.07921,0.805291 0.220572,1.072353 0.165695,0.298247 0.364532,0.521928 0.596503,0.671052 0.248542,0.165696 0.513646,0.273392 0.795322,0.323107 0.298257,0.06627 0.571651,0.09942 0.820184,0.09942 0.364533,0 0.637927,-0.07458 0.820185,-0.22369 0.198837,-0.132553 0.339677,-0.306535 0.422516,-0.521935 0.09942,-0.198829 0.149132,-0.422519 0.149132,-0.67106 0.01654,-0.265105 0.02487,-0.521936 0.02487,-0.77047 V 31.02868 c 0.09941,-1.01073 0.339672,-2.013183 0.720767,-3.007339 0.397666,-1.010732 0.853326,-1.913761 1.36697,-2.709092 0.513657,-0.795323 1.035592,-1.441531 1.565812,-1.938611 0.530217,-0.497081 0.977585,-0.745621 1.34211,-0.745621 0.248541,0 0.439089,0.08285 0.57165,0.24854 0.149125,0.149124 0.256824,0.356242 0.323099,0.62135 0.08282,0.26511 0.132567,0.57164 0.149125,0.919601 0.01654,0.347951 0.02487,0.720764 0.02487,1.118431 v 10.339275 c 0,0.646205 0.09112,1.259271 0.273394,1.839195 0.198827,0.57993 0.480502,1.085295 0.845035,1.516095 0.381095,0.430808 0.828465,0.770477 1.342109,1.019021 0.53023,0.265102 1.135004,0.397664 1.814354,0.397664 1.093576,0 2.046311,-0.256831 2.858206,-0.770478 0.811901,-0.513646 1.507813,-1.159853 2.087745,-1.938615 0.167736,-0.218993 0.323866,-0.445452 0.473255,-0.676232 0.245806,0.331205 0.50986,0.640336 0.794298,0.924774 0.828466,0.811895 1.77292,1.424961 2.833357,1.839198 1.060444,0.414234 2.15402,0.621353 3.280732,0.621353 1.242703,0 2.344571,-0.157411 3.305588,-0.472231 0.977585,-0.314817 1.830898,-0.729046 2.559947,-1.242703 0.729046,-0.513644 1.342107,-1.093576 1.839188,-1.739784 0.11974,-0.154506 0.233452,-0.30956 0.343302,-0.464973 0.309766,0.466479 0.649769,0.896302 1.023665,1.285155 0.845042,0.845048 1.806059,1.491245 2.883053,1.938623 1.093576,0.463942 2.220286,0.695913 3.380146,0.695913 1.24272,0 2.34458,-0.157411 3.30559,-0.472231 0.96102,-0.314817 1.79778,-0.729046 2.51026,-1.242703 0.71248,-0.513644 1.30898,-1.093576 1.78949,-1.739784 0.49707,-0.662768 0.90303,-1.333828 1.21784,-2.013169 0.31481,-0.679342 0.5468,-1.350402 0.69594,-2.013181 0.16566,-0.66277 0.28166,-1.250981 0.34794,-1.764638 0.0496,-0.447371 -0.0663,-0.828463 -0.34794,-1.143283 -0.26514,-0.331388 -0.58822,-0.546788 -0.96933,-0.646205 -0.36452,-0.0994 -0.72906,-0.04973 -1.09357,0.149129 -0.34797,0.182259 -0.57994,0.55507 -0.69592,1.118434 -0.14913,0.778756 -0.37281,1.549228 -0.67105,2.311416 -0.29826,0.762196 -0.69592,1.449819 -1.193,2.062885 -0.48052,0.613074 -1.077,1.110146 -1.78949,1.491242 -0.71248,0.364532 -1.56581,0.54679 -2.55997,0.54679 -0.66278,0 -1.25099,-0.08282 -1.76464,-0.248544 -0.49708,-0.165685 -0.93618,-0.389374 -1.31727,-0.67105 -0.381087,-0.281683 -0.712475,-0.613074 -0.994145,-0.994169 -0.265107,-0.397663 -0.480507,-0.811892 -0.646197,-1.2427 1.226114,-0.364522 2.303132,-0.894739 3.231012,-1.590651 0.94445,-0.712486 1.73151,-1.507816 2.36114,-2.385994 0.6462,-0.894742 1.12671,-1.839196 1.44153,-2.833355 0.33138,-0.994159 0.49708,-1.963466 0.49708,-2.90792 0,-0.762192 -0.10771,-1.458105 -0.3231,-2.08774 -0.19884,-0.629636 -0.49708,-1.168139 -0.89475,-1.615511 -0.39767,-0.463943 -0.88646,-0.820183 -1.46639,-1.068723 -0.56335,-0.24854 -1.20128,-0.372812 -1.91376,-0.372812 -0.97759,0 -1.930335,0.289964 -2.858213,0.869893 -0.927867,0.563357 -1.756339,1.350401 -2.485385,2.361131 -0.729051,1.010731 -1.317265,2.212009 -1.764628,3.603834 -0.44737,1.375252 -0.671054,2.866496 -0.671054,4.473729 0,0.742341 0.05637,1.447083 0.164658,2.117251 -0.05998,0.16446 -0.121902,0.328719 -0.189513,0.492414 -0.314812,0.762196 -0.729049,1.449819 -1.242693,2.062885 -0.513651,0.613074 -1.143291,1.110146 -1.888903,1.491242 -0.729043,0.364532 -1.590651,0.54679 -2.584817,0.54679 -0.745617,0 -1.44153,-0.132551 -2.087737,-0.397666 -0.629643,-0.281678 -1.176431,-0.687623 -1.640372,-1.21784 -0.463942,-0.530225 -0.828466,-1.184714 -1.093579,-1.963476 -0.248536,-0.778758 -0.372803,-1.6735 -0.372803,-2.684229 0,-1.143291 0.09941,-2.220299 0.298246,-3.231028 0.2154,-1.01073 0.488794,-1.897191 0.820182,-2.65938 0.347954,-0.762188 0.737339,-1.358685 1.168136,-1.789489 0.44737,-0.447371 0.903031,-0.671058 1.366972,-0.671058 0.430808,0 0.770477,0.107701 1.019022,0.323102 0.248533,0.198833 0.439081,0.447373 0.57164,0.745621 0.149124,0.281675 0.248534,0.579931 0.298246,0.894748 0.06627,0.314811 0.132554,0.579924 0.198832,0.795323 -0.04973,0.298248 -0.0083,0.521938 0.124269,0.671061 0.149122,0.149122 0.33967,0.23197 0.571641,0.24854 0.23197,0.01655 0.497083,-0.01655 0.795327,-0.09941 0.298249,-0.09941 0.57164,-0.240253 0.820184,-0.422518 0.248536,-0.182258 0.455652,-0.405946 0.621345,-0.671059 0.182256,-0.265106 0.273399,-0.563352 0.273399,-0.894741 0,-0.447375 -0.09113,-0.961025 -0.273399,-1.540953 -0.165693,-0.579926 -0.439079,-1.118432 -0.820177,-1.615512 -0.381092,-0.513648 -0.87817,-0.944453 -1.491236,-1.292408 -0.613064,-0.364525 -1.358691,-0.546789 -2.236862,-0.546789 -1.209566,0 -2.327994,0.339672 -3.355297,1.019015 -1.010733,0.679344 -1.880619,1.57409 -2.609676,2.684234 -0.729046,1.093575 -1.300694,2.344566 -1.714923,3.752962 -0.414235,1.408388 -0.621353,2.841644 -0.621353,4.299744 0,1.002215 0.09776,1.926603 0.29255,2.774328 -0.159412,0.5578 -0.362717,1.084136 -0.615651,1.575123 -0.265113,0.546788 -0.588211,1.002451 -0.969307,1.366972 -0.364524,0.364533 -0.803611,0.546788 -1.317267,0.546788 -0.331383,0 -0.588211,-0.09942 -0.77047,-0.298246 -0.165695,-0.198826 -0.289964,-0.4308 -0.372813,-0.695912 -0.08282,-0.265113 -0.132559,-0.521936 -0.149122,-0.770478 -0.01654,-0.265104 -0.02487,-0.455652 -0.02487,-0.57164 V 24.417505 c 0,-0.579927 -0.06628,-1.176424 -0.198829,-1.78949 -0.115988,-0.613065 -0.331388,-1.168139 -0.646208,-1.665219 -0.314817,-0.497082 -0.745614,-0.903031 -1.292405,-1.217848 -0.546788,-0.314818 -1.242703,-0.472227 -2.087737,-0.472227 -0.629637,0 -1.217851,0.132553 -1.764636,0.397663 -0.53022,0.248541 -1.035584,0.604784 -1.516097,1.068725 -0.463944,0.447372 -0.903031,0.977591 -1.317268,1.590657 -0.397666,0.613066 -0.770469,1.27584 -1.11843,1.988321 v -2.286569 c 0,-0.613066 -0.248542,-1.135001 -0.745617,-1.565804 -0.480513,-0.447372 -1.143291,-0.671059 -1.988326,-0.671059 -0.364524,0 -0.679344,0.08285 -0.944456,0.24854 -0.265105,0.149124 -0.397658,0.347959 -0.397658,0.596499 0,0.18226 0.03309,0.381095 0.09942,0.596496 0.08282,0.2154 0.124273,0.563357 0.124273,1.043868 v 8.869782 c -0.07702,0.184013 -0.143995,0.398624 -0.19883,0.649306 -0.115988,0.563362 -0.265112,1.168144 -0.447378,1.814351 -0.165688,0.629629 -0.389377,1.217843 -0.671052,1.764631 -0.265113,0.546788 -0.588214,1.002448 -0.969307,1.36697 -0.364532,0.364535 -0.803621,0.54679 -1.317267,0.54679 -0.298247,0 -0.563359,-0.06627 -0.79533,-0.198829 -0.2154,-0.149124 -0.389377,-0.331388 -0.521936,-0.546788 -0.132553,-0.23197 -0.231973,-0.480512 -0.298249,-0.745627 -0.06627,-0.281673 -0.09941,-0.563351 -0.09941,-0.845034 v -8.400664 c 0,-0.613063 -0.248541,-1.134991 -0.745625,-1.5658 -0.497078,-0.447369 -1.168135,-0.671059 -2.013172,-0.671059 -0.364532,0 -0.679349,0.08282 -0.944454,0.248542 -0.248542,0.149124 -0.372814,0.356241 -0.372814,0.621346 0,0.08282 0.0083,0.173985 0.02487,0.273395 0.01654,0.08282 0.03317,0.182267 0.04973,0.298256 0.03318,0.115981 0.05803,0.256822 0.07458,0.422517 0.03318,0.165686 0.04972,0.372803 0.04972,0.621347 v 7.853873 c -0.281684,0.712484 -0.654487,1.333828 -1.118431,1.864056 -0.463939,0.513646 -1.043871,0.770469 -1.739784,0.770469 -0.894738,0 -1.598943,-0.356243 -2.112589,-1.068723 -0.513654,-0.729049 -0.770477,-1.764631 -0.770477,-3.106751 0,-1.839195 0.256823,-3.421576 0.770477,-4.747122 0.513646,-1.342112 1.168135,-2.443972 1.963465,-3.305579 0.811903,-0.878179 1.714926,-1.524384 2.709092,-1.938617 0.994159,-0.430804 1.97175,-0.646206 2.932774,-0.646206 0.265113,0 0.521936,0.01657 0.77048,0.04971 0.248534,0.03314 0.488792,0.04971 0.720762,0.04971 0.248542,0 0.414229,-0.08283 0.497076,-0.24854 0.09942,-0.182261 0.149124,-0.488794 0.149124,-0.919598 0,-0.662775 -0.2154,-1.184708 -0.6462,-1.565804 -0.430807,-0.381096 -0.994158,-0.571642 -1.690071,-0.571642 -1.55752,0 -3.065333,0.314817 -4.523433,0.944453 -1.44154,0.629636 -2.725663,1.540949 -3.852375,2.733944 -1.126721,1.17642 -2.029751,2.609668 -2.709093,4.299738 -0.679342,1.690082 -1.019011,3.595553 -1.019011,5.716431 0,0.408586 0.02376,0.804519 0.05956,1.194028 -0.140766,0.425738 -0.308731,0.832096 -0.50692,1.216811 -0.281676,0.546788 -0.629629,1.002448 -1.043866,1.36697 -0.414234,0.364532 -0.91131,0.54679 -1.491242,0.54679 -0.347961,0 -0.654487,-0.07458 -0.919602,-0.223681 -0.248531,-0.149122 -0.455652,-0.347959 -0.621345,-0.596503 -0.165695,-0.265105 -0.289967,-0.563351 -0.372813,-0.894742 -0.08281,-0.331388 -0.124272,-0.671057 -0.124272,-1.019019 0,-0.845037 0.05803,-1.706642 0.173976,-2.584812 0.115991,-0.89475 0.256831,-1.756355 0.422527,-2.584821 0.165684,-0.828466 0.347953,-1.615514 0.546788,-2.361131 0.198829,-0.762189 0.381095,-1.433249 0.54678,-2.01318 0.165695,-0.579923 0.306538,-1.060436 0.422529,-1.44153 0.11598,-0.381095 0.173974,-0.621349 0.173974,-0.720766 0.04973,-0.298248 -0.02487,-0.613067 -0.22369,-0.944453 -0.182255,-0.33139 -0.414226,-0.637922 -0.695912,-0.919602 -0.281672,-0.298248 -0.57164,-0.538504 -0.869884,-0.720768 C 37.095919,20.084621 36.88052,19.99349 36.731395,19.99349 H 34.07202 33.674354 c -0.132553,0 -0.298249,-0.0083 -0.497086,-0.02484 -0.198826,-0.01657 -0.447368,-0.03316 -0.745617,-0.04971 -0.281675,-0.03315 -0.629637,-0.07456 -1.043871,-0.12427 -0.149124,-0.51365 -0.339672,-0.944453 -0.571643,-1.292409 -0.231968,-0.347957 -0.497075,-0.629636 -0.795329,-0.845037 -0.281676,-0.215401 -0.588214,-0.364525 -0.919594,-0.447372 -0.314817,-0.08284 -0.621356,-0.124271 -0.919602,-0.124271 z m 72.747688,5.592155 c 0.3314,0 0.58821,0.157409 0.77048,0.472228 0.19883,0.314818 0.29825,0.753905 0.29825,1.317261 0,0.762189 -0.0994,1.499525 -0.29825,2.212007 -0.19884,0.695915 -0.48052,1.34212 -0.84503,1.938615 -0.36453,0.596501 -0.80362,1.126718 -1.317268,1.590662 -0.513656,0.463942 -1.085294,0.845034 -1.71491,1.143283 0,-0.165695 -0.0086,-0.323101 -0.02484,-0.472223 -0.01651,-0.149124 -0.02484,-0.298249 -0.02484,-0.447381 -0.01659,-0.347951 -0.0086,-0.778759 0.02484,-1.292405 0.0332,-0.530217 0.09943,-1.085289 0.198842,-1.665219 0.0994,-0.579932 0.223679,-1.151572 0.372798,-1.714924 0.165698,-0.579932 0.364527,-1.093579 0.596506,-1.540957 0.248528,-0.463938 0.530206,-0.836748 0.845026,-1.118428 0.331386,-0.281678 0.704186,-0.422519 1.118426,-0.422519 z"
         id="path820"
         inkscape:connector-curvature="0" />
    </clipPath>
  </defs>
  <sodipodi:namedview
     id="base"
     pagecolor="#ffffff"
     bordercolor="#666666"
     borderopacity="1.0"
     inkscape:pageopacity="0.0"
     inkscape:pageshadow="2"
     inkscape:zoom="1.4"
     inkscape:cx="195.99445"
     inkscape:cy="72.500746"
     inkscape:document-units="mm"
     inkscape:current-layer="svg5189"
     showgrid="false"
     inkscape:window-width="1366"
     inkscape:window-height="670"
     inkscape:window-x="0"
     inkscape:window-y="27"
     inkscape:window-maximized="1"
     fit-margin-top="0"
     fit-margin-left="0"
     fit-margin-right="0"
     fit-margin-bottom="0" />
  <path
     style="fill:none;stroke:#ff0000;stroke-width:5.35515022;stroke-linecap:butt;stroke-linejoin:miter;stroke-miterlimit:4;stroke-dasharray:none;stroke-opacity:1"
     d="M 7.5691002,29.124795 C 0.51307575,22.939439 -0.13101379,10.311103 13.897564,5.4382657 L 32.521319,5.7998926 C 27.415714,4.4409022 18.00071,9.4598112 18.23708,0.19468456 17.338472,12.52089 19.866601,20.081276 18.598706,43.228227 5.8633387,35.127566 14.138648,38.768164 11.908618,36.538138"
     id="path5120"
     inkscape:connector-curvature="0"
     sodipodi:nodetypes="cccccc"
     clip-path="url(#clipPath818)" />
  <path
     style="fill:none;stroke:#ff0000;stroke-width:5.29166651;stroke-linecap:butt;stroke-linejoin:miter;stroke-miterlimit:4;stroke-dasharray:none;stroke-opacity:1"
     d="m 27.917506,35.445324 c 0.252677,-0.8212 2.084586,-15.47647 2.084586,-15.47647 -0.0182,-1.78953 -1.600287,-0.84225 -2.400432,-1.26338 -1.646272,0.12572 1.852964,2.3162 2.779448,3.47431 3.085174,-0.23891 6.345928,-0.59488 8.464682,-0.18951 -2.374731,5.02014 -3.35425,9.04371 -4.611357,13.26555 1.88409,4.2834 4.64539,5.39536 8.71736,1.76874 1.834422,-12.13609 7.377149,-16.11123 13.076039,-15.98183 -4.521208,2.11005 -11.011387,1.20305 -12.318008,14.97112 2.638081,4.62699 5.658432,4.57119 8.970036,0.94754 -0.241517,-4.13804 0.217102,-8.14671 0.821201,-12.1285 -0.263927,4.55078 -0.532601,9.1071 0.189508,12.50751 2.568884,3.7161 5.137766,0.77774 7.706651,-0.56852 1.301641,-5.71317 1.385422,-10.9392 1.010708,-15.98183 -0.895411,-0.74108 0.08423,13.51823 0.126339,20.27734 -0.408694,-5.54824 -2.115704,-11.67848 2.084586,-15.16063 4.715425,-6.92588 6.471917,-4.42741 8.212005,-3.91649 0.381061,6.19468 0.06373,10.99258 -0.252677,15.79232 2.598002,2.87038 4.748374,1.86128 6.632773,-1.4529 0.238937,-7.61455 0.339249,-15.39249 7.074959,-15.35013 2.940338,0.75129 4.091175,3.15667 3.249657,5.79888 0.815419,-5.35811 -1.856581,-5.41074 -4.386704,-5.86205 -3.151942,1.5792 -4.169945,5.1354 -5.24305,11.3073 l 2.526771,5.49573 c 4.688504,2.61064 8.638434,0.78984 12.381177,-2.2741 2.441472,-1.70436 2.962894,-1.24866 7.327626,-5.11671 1.71949,-2.3434 4.56331,-9.18006 -0.88437,-9.60173 -3.646274,-0.31209 -4.924987,3.38248 -5.495717,8.27518 -0.333229,3.47064 1.087128,5.18768 1.642401,7.76982 3.954896,3.93051 6.653606,1.89406 9.728056,1.6424 2.49043,-1.22738 3.61766,-3.00005 3.72698,-5.17988 0.45897,-2.30338 0.72448,-4.02638 0.94754,-5.62206"
     id="path5122"
     inkscape:connector-curvature="0"
     sodipodi:nodetypes="cccccccccccccccccccccccccccccccc"
     clip-path="url(#clipPath814)" />
  <metadata
     id="metadata5186">
    <rdf:RDF>
      <cc:Work
         rdf:about="">
        <dc:format>image/svg+xml</dc:format>
        <dc:type
           rdf:resource="http://purl.org/dc/dcmitype/StillImage" />
        <dc:title />
      </cc:Work>
    </rdf:RDF>
  </metadata>
</svg>
