<?xml version="1.0" encoding="UTF-8" standalone="no"?>
<!-- Created with Inkscape (http://www.inkscape.org/) -->

<svg
   xmlns:dc="http://purl.org/dc/elements/1.1/"
   xmlns:cc="http://creativecommons.org/ns#"
   xmlns:rdf="http://www.w3.org/1999/02/22-rdf-syntax-ns#"
   xmlns:svg="http://www.w3.org/2000/svg"
   xmlns="http://www.w3.org/2000/svg"
   xmlns:sodipodi="http://sodipodi.sourceforge.net/DTD/sodipodi-0.dtd"
   xmlns:inkscape="http://www.inkscape.org/namespaces/inkscape"
   width="114.42663mm"
   height="47.942993mm"
   viewBox="0 0 114.42663 47.942993"
   version="1.1"
   id="svg5189"
   inkscape:version="0.92.3 (2405546, 2018-03-11)"
   sodipodi:docname="desenhando-1.svg">
  <defs
     id="defs5183" />
  <sodipodi:namedview
     id="base"
     pagecolor="#ffffff"
     bordercolor="#666666"
     borderopacity="1.0"
     inkscape:pageopacity="0.0"
     inkscape:pageshadow="2"
     inkscape:zoom="0.98994949"
     inkscape:cx="154.11895"
     inkscape:cy="67.543237"
     inkscape:document-units="mm"
     inkscape:current-layer="svg5189"
     showgrid="false"
     inkscape:window-width="1366"
     inkscape:window-height="670"
     inkscape:window-x="0"
     inkscape:window-y="27"
     inkscape:window-maximized="1"
     fit-margin-top="0"
     fit-margin-left="0"
     fit-margin-right="0"
     fit-margin-bottom="0" />
  <path
     style="fill:none;stroke:#ff0000;stroke-width:5.35515022;stroke-linecap:butt;stroke-linejoin:miter;stroke-miterlimit:4;stroke-dasharray:none;stroke-opacity:1"
     d="M 7.5691002,29.124795 C 0.51307575,22.939439 -0.13101379,10.311103 13.897564,5.4382657 L 32.521319,5.7998926 C 27.415714,4.4409022 18.00071,9.4598112 18.23708,0.19468456 17.338472,12.52089 19.866601,20.081276 18.598706,43.228227 5.8633387,35.127566 14.138648,38.768164 11.908618,36.538138"
     id="path5120"
     inkscape:connector-curvature="0"
     sodipodi:nodetypes="cccccc" />
  <path
     style="fill:none;stroke:#ff0000;stroke-width:5.29166651;stroke-linecap:butt;stroke-linejoin:miter;stroke-miterlimit:4;stroke-dasharray:none;stroke-opacity:1"
     d="m 27.917506,35.445324 c 0.252677,-0.8212 2.084586,-15.47647 2.084586,-15.47647 -0.0182,-1.78953 -1.600287,-0.84225 -2.400432,-1.26338 -1.646272,0.12572 1.852964,2.3162 2.779448,3.47431 3.085174,-0.23891 6.345928,-0.59488 8.464682,-0.18951 -2.374731,5.02014 -3.35425,9.04371 -4.611357,13.26555 1.88409,4.2834 4.64539,5.39536 8.71736,1.76874 1.834422,-12.13609 7.377149,-16.11123 13.076039,-15.98183 -4.521208,2.11005 -11.011387,1.20305 -12.318008,14.97112 2.638081,4.62699 5.658432,4.57119 8.970036,0.94754 -0.241517,-4.13804 0.217102,-8.14671 0.821201,-12.1285 -0.263927,4.55078 -0.532601,9.1071 0.189508,12.50751 2.568884,3.7161 5.137766,0.77774 7.706651,-0.56852 1.301641,-5.71317 1.385422,-10.9392 1.010708,-15.98183 -0.895411,-0.74108 0.08423,13.51823 0.126339,20.27734 -0.408694,-5.54824 -2.115704,-11.67848 2.084586,-15.16063 4.715425,-6.92588 6.471917,-4.42741 8.212005,-3.91649 0.381061,6.19468 0.06373,10.99258 -0.252677,15.79232 2.598002,2.87038 4.748374,1.86128 6.632773,-1.4529 0.238937,-7.61455 0.339249,-15.39249 7.074959,-15.35013 2.940338,0.75129 4.091175,3.15667 3.249657,5.79888 0.815419,-5.35811 -1.856581,-5.41074 -4.386704,-5.86205 -3.151942,1.5792 -4.169945,5.1354 -5.24305,11.3073 l 2.526771,5.49573 c 4.688504,2.61064 8.638434,0.78984 12.381177,-2.2741 2.441472,-1.70436 2.962894,-1.24866 7.327626,-5.11671 1.71949,-2.3434 4.56331,-9.18006 -0.88437,-9.60173 -3.646274,-0.31209 -4.924987,3.38248 -5.495717,8.27518 -0.333229,3.47064 1.087128,5.18768 1.642401,7.76982 3.954896,3.93051 6.653606,1.89406 9.728056,1.6424 2.49043,-1.22738 3.61766,-3.00005 3.72698,-5.17988 0.45897,-2.30338 0.72448,-4.02638 0.94754,-5.62206"
     id="path5122"
     inkscape:connector-curvature="0"
     sodipodi:nodetypes="cccccccccccccccccccccccccccccccc" />
  <path
     style="font-style:normal;font-variant:normal;font-weight:normal;font-stretch:normal;font-size:192px;font-family:'Grand Hotel';-inkscape-font-specification:'Grand Hotel';stroke-width:0.26510966"
     d="m 28.877424,3.2915814 c -0.03318,0 -0.07458,0.024849 -0.124272,0.074565 -0.04973,0.033138 -0.12427,0.074555 -0.223681,0.1242695 -0.08282,0.049707 -0.198836,0.099416 -0.34796,0.1491248 -0.132552,0.033138 -0.306527,0.049707 -0.521935,0.049707 h -1.416678 c -0.679341,-0.016569 -1.44982,-0.033138 -2.311428,-0.049707 -0.861597,-0.016569 -1.731494,-0.024849 -2.609671,-0.024849 -0.8616,-0.016569 -1.598935,-0.024849 -2.21201,-0.024849 -2.651088,0 -5.095076,0.3231019 -7.331935,0.9693064 C 9.5575664,5.2053539 7.6355174,6.1663773 6.0117223,7.4422164 4.3879266,8.7014868 3.1203729,10.267289 2.209061,12.139628 c -0.9113203,1.872335 -1.36697205,4.034636 -1.36697205,6.486901 0,1.342118 0.16569445,2.593103 0.49707535,3.752958 0.3313893,1.143285 0.7290546,2.162303 1.1929961,3.057043 0.4639416,0.894751 0.9527356,1.64865 1.4663906,2.261723 0.5136466,0.596494 0.9527356,1.027293 1.3172587,1.292406 0.1325607,0.115981 0.2568234,0.190548 0.372813,0.22369 0.1325523,0.03309 0.265113,0.04973 0.3976653,0.04973 0.2982474,0 0.5882125,-0.09112 0.8698886,-0.273395 C 7.2544232,28.791857 7.5195362,28.551596 7.7515069,28.26992 7.9834773,27.971674 8.1657433,27.648564 8.2982953,27.300614 8.447418,26.936083 8.521984,26.58813 8.521984,26.256741 c 0,-0.265106 -0.05804,-0.472225 -0.1739847,-0.621347 -0.115981,-0.149139 -0.314817,-0.18228 -0.5964924,-0.09943 C 7.4201179,25.204572 7.0804466,24.823478 6.7324958,24.392679 6.4011058,23.961871 6.0945695,23.464792 5.8128936,22.901433 5.5312094,22.338076 5.2992386,21.70844 5.1169813,21.012526 4.9512866,20.300043 4.8684393,19.504716 4.8684393,18.62654 c 0,-1.971753 0.3313893,-3.62869 0.9941594,-4.970806 C 6.5253768,12.297047 7.4118364,11.195186 8.521984,10.350149 9.6321234,9.5051102 10.916247,8.8754765 12.374356,8.4612428 13.832457,8.0304391 15.348553,7.7487604 16.922643,7.6162054 V 35.726112 c 0,1.292408 -0.107708,2.236862 -0.323108,2.833355 -0.198828,0.579931 -0.530217,0.869897 -0.99416,0.869897 -0.132552,0 -0.256822,-0.01654 -0.372812,-0.04973 -0.09941,-0.03317 -0.190547,-0.05803 -0.273394,-0.07457 -0.06628,0 -0.124272,0.01654 -0.173978,0.04973 -0.03317,0.04972 -0.04972,0.157413 -0.04972,0.323107 0,0.248534 0.107699,0.538499 0.323099,0.869888 0.231972,0.331388 0.513647,0.654487 0.845037,0.969307 0.34796,0.314817 0.712483,0.579923 1.093577,0.79533 0.381095,0.215401 0.729055,0.323099 1.043873,0.323099 0.414228,0 0.795322,-0.115988 1.143283,-0.34796 0.364523,-0.231971 0.67106,-0.596493 0.919602,-1.093568 0.248532,-0.497084 0.439088,-1.143292 0.571641,-1.938622 0.149123,-0.795323 0.223681,-1.756348 0.223681,-2.883061 V 7.5167664 c 0.596502,0.01657 1.242701,0.03315 1.938613,0.04971 0.69592,0.01657 1.358692,0.03314 1.988328,0.04971 0.629636,0.01657 1.184706,0.03314 1.665219,0.04971 h 1.019012 c 0.331389,0 0.621353,-0.08285 0.869895,-0.248539 0.248534,-0.165694 0.455653,-0.3728107 0.621348,-0.6213507 0.165693,-0.2651097 0.289965,-0.5550747 0.372812,-0.8698914 0.08282,-0.3313877 0.124271,-0.6462051 0.124271,-0.9444537 0,-0.1988315 -0.01654,-0.3976639 -0.04972,-0.5964963 C 29.415865,4.1863181 29.366226,4.0123403 29.299916,3.8632155 29.2502,3.6975218 29.183935,3.5649669 29.101089,3.4655517 29.034823,3.3495656 28.960246,3.2915726 28.877398,3.2915726 Z M 28.181511,17.085567 c -0.331388,0 -0.654488,0.058 -0.969306,0.173977 -0.314818,0.09942 -0.588213,0.256825 -0.820183,0.472227 -0.23197,0.198833 -0.422519,0.447373 -0.571642,0.745621 -0.132552,0.28168 -0.198829,0.596498 -0.198829,0.944453 0,0.74562 0.207119,1.391826 0.621347,1.938613 0.414236,0.53022 0.936173,0.969308 1.565809,1.317264 -0.01655,0.646206 -0.04141,1.383543 -0.07458,2.212006 -0.03318,0.811902 -0.08281,1.632087 -0.149124,2.46055 -0.04973,0.811902 -0.124271,1.590662 -0.223689,2.336279 -0.0994,0.729055 -0.2154,1.350402 -0.347952,1.864057 -0.11599,0.430799 -0.06627,0.845036 0.149123,1.242701 0.2154,0.397658 0.497076,0.704193 0.845036,0.919593 0.347952,0.198837 0.695913,0.256823 1.043873,0.173985 0.364523,-0.08282 0.629628,-0.389385 0.795323,-0.919602 0.231971,-0.745627 0.422518,-1.557519 0.571641,-2.435697 0.165694,-0.878178 0.298255,-1.748067 0.397665,-2.609674 0.09942,-0.861607 0.165695,-1.673501 0.198837,-2.43569 0.04973,-0.762196 0.0829,-1.391824 0.09942,-1.888908 h 0.571641 3.877228 c -0.828473,2.203726 -1.466392,4.22518 -1.913763,6.064383 -0.430807,1.822624 -0.646206,3.554128 -0.646206,5.194495 0,1.126712 0.157414,2.062884 0.472232,2.808501 0.33138,0.729055 0.745617,1.317259 1.242701,1.764638 0.513647,0.447371 1.077005,0.762188 1.69007,0.944455 0.629637,0.182256 1.242702,0.273393 1.839196,0.273393 1.093579,0 2.046314,-0.25683 2.858216,-0.770477 0.790737,-0.500259 1.470439,-1.127334 2.041139,-1.879066 0.09369,0.150157 0.191303,0.296844 0.295139,0.437535 0.513647,0.679343 1.143283,1.217841 1.888909,1.615506 0.762188,0.397666 1.640367,0.596502 2.634525,0.596502 0.961018,0 1.797771,-0.207118 2.510256,-0.621354 0.729055,-0.397665 1.350401,-0.886461 1.864056,-1.466391 0.381095,0.629636 0.903023,1.135001 1.5658,1.516096 0.662771,0.381103 1.441531,0.571649 2.336279,0.571649 1.093579,0 2.046314,-0.25683 2.858215,-0.770477 0.62747,-0.389031 1.183423,-0.854343 1.668328,-1.395454 0.0076,0.445791 0.07921,0.805292 0.220573,1.072354 0.165695,0.298246 0.364532,0.521928 0.596503,0.671052 0.248541,0.165695 0.513645,0.273393 0.795322,0.323107 0.298255,0.06627 0.571651,0.09942 0.820183,0.09942 0.364532,0 0.637926,-0.07458 0.820184,-0.223689 0.198837,-0.132553 0.339678,-0.306536 0.422518,-0.521936 0.09942,-0.198829 0.14913,-0.422518 0.14913,-0.67106 0.01653,-0.265104 0.02486,-0.521936 0.02486,-0.770469 V 31.02868 c 0.09941,-1.01073 0.33967,-2.013182 0.720765,-3.00734 0.397666,-1.01073 0.853326,-1.91376 1.366972,-2.709091 0.513656,-0.795323 1.035592,-1.441531 1.56581,-1.938611 0.530217,-0.497081 0.977587,-0.745621 1.342111,-0.745621 0.248542,0 0.439088,0.08285 0.57165,0.24854 0.149125,0.149124 0.256823,0.356242 0.323099,0.62135 0.08282,0.26511 0.132568,0.57164 0.149124,0.919601 0.01654,0.347951 0.02487,0.720764 0.02487,1.118431 v 10.339274 c 0,0.646207 0.09112,1.259272 0.273394,1.839197 0.198828,0.57993 0.480504,1.085294 0.845036,1.516094 0.381094,0.430807 0.828465,0.770478 1.34211,1.01902 0.530228,0.265104 1.135003,0.397665 1.814352,0.397665 1.093577,0 2.046313,-0.256831 2.858206,-0.770477 0.811902,-0.513647 1.507815,-1.159855 2.087746,-1.938615 0.167735,-0.218994 0.323865,-0.445454 0.473256,-0.676233 0.245804,0.331204 0.50986,0.640335 0.794298,0.924775 0.828464,0.811895 1.772918,1.424959 2.833355,1.839196 1.060444,0.414236 2.154021,0.621354 3.280733,0.621354 1.242702,0 2.344571,-0.157411 3.305587,-0.47223 0.977587,-0.314818 1.830899,-0.729047 2.559948,-1.242703 0.729045,-0.513646 1.342108,-1.093577 1.839188,-1.739784 0.119738,-0.154507 0.233453,-0.309561 0.343301,-0.464974 0.309767,0.466478 0.64977,0.896303 1.023666,1.285156 0.845043,0.845046 1.80606,1.491243 2.883054,1.938623 1.093575,0.463942 2.220285,0.695912 3.380145,0.695912 1.24272,0 2.34458,-0.157411 3.30559,-0.47223 0.96102,-0.314818 1.79778,-0.729047 2.51026,-1.242703 0.71248,-0.513646 1.30898,-1.093577 1.78949,-1.739784 0.49707,-0.66277 0.90303,-1.333829 1.21784,-2.013171 0.31481,-0.679341 0.5468,-1.350402 0.69594,-2.01318 0.16566,-0.66277 0.28166,-1.250982 0.34794,-1.764637 0.0496,-0.447371 -0.0663,-0.828464 -0.34794,-1.143284 -0.26514,-0.331389 -0.58822,-0.546788 -0.96933,-0.646206 -0.36452,-0.0994 -0.72906,-0.04973 -1.09357,0.149131 -0.34797,0.182258 -0.57994,0.55507 -0.69592,1.118432 -0.14913,0.778758 -0.37281,1.549229 -0.67105,2.311417 -0.29826,0.762196 -0.69592,1.449819 -1.193,2.062885 -0.48052,0.613074 -1.077,1.110147 -1.78949,1.491242 -0.71248,0.364532 -1.56581,0.54679 -2.55997,0.54679 -0.66278,0 -1.25099,-0.08282 -1.76464,-0.248543 -0.49708,-0.165686 -0.93618,-0.389375 -1.31727,-0.671052 -0.381088,-0.281683 -0.712475,-0.613072 -0.994145,-0.994167 -0.265107,-0.397665 -0.480507,-0.811894 -0.646197,-1.242701 1.226114,-0.364523 2.303132,-0.89474 3.231012,-1.590652 0.94445,-0.712484 1.73151,-1.507815 2.36114,-2.385994 0.6462,-0.894741 1.12671,-1.839194 1.44153,-2.833354 0.33138,-0.994159 0.49708,-1.963466 0.49708,-2.90792 0,-0.762192 -0.10771,-1.458105 -0.3231,-2.08774 -0.19884,-0.629636 -0.49708,-1.168139 -0.89475,-1.615511 -0.39767,-0.463943 -0.88646,-0.820183 -1.46639,-1.068723 -0.56335,-0.24854 -1.20128,-0.372812 -1.91376,-0.372812 -0.97759,0 -1.930335,0.289964 -2.858212,0.869893 -0.927868,0.563357 -1.756339,1.350401 -2.485385,2.361131 -0.729053,1.010731 -1.317266,2.212009 -1.76463,3.603834 -0.44737,1.375253 -0.671054,2.866496 -0.671054,4.473729 0,0.742341 0.05637,1.447082 0.164659,2.117252 -0.05998,0.164458 -0.121902,0.328718 -0.189513,0.492413 -0.314813,0.762196 -0.72905,1.449819 -1.242692,2.062885 -0.513653,0.613074 -1.143291,1.110147 -1.888904,1.491242 -0.729043,0.364532 -1.59065,0.54679 -2.584817,0.54679 -0.745617,0 -1.441529,-0.132552 -2.087737,-0.397666 -0.629642,-0.281677 -1.176431,-0.687622 -1.640373,-1.217841 -0.463942,-0.530225 -0.828465,-1.184714 -1.093578,-1.963474 -0.248535,-0.778759 -0.372803,-1.6735 -0.372803,-2.68423 0,-1.143291 0.09941,-2.220298 0.298245,-3.231028 0.215401,-1.010731 0.488795,-1.897191 0.820183,-2.65938 0.347953,-0.762188 0.737337,-1.358685 1.168136,-1.789489 0.447371,-0.447371 0.903031,-0.671058 1.366973,-0.671058 0.430808,0 0.770477,0.107701 1.01902,0.323102 0.248534,0.198833 0.439081,0.447373 0.571641,0.745621 0.149123,0.281675 0.248534,0.579931 0.298246,0.894748 0.06627,0.314811 0.132553,0.579924 0.198831,0.795323 -0.04973,0.298248 -0.0083,0.521938 0.12427,0.671061 0.149122,0.149122 0.339671,0.23197 0.571641,0.24854 0.231971,0.01655 0.497083,-0.01655 0.795327,-0.09941 0.298249,-0.09941 0.57164,-0.240253 0.820184,-0.422518 0.248536,-0.182258 0.455652,-0.405946 0.621346,-0.671059 0.182255,-0.265106 0.273398,-0.563352 0.273398,-0.894741 0,-0.447375 -0.09113,-0.961025 -0.273398,-1.540953 C 91.1699,22.147513 90.896513,21.609007 90.515417,21.111927 90.134324,20.598279 89.637245,20.167474 89.02418,19.819519 88.411115,19.454994 87.665489,19.27273 86.787319,19.27273 c -1.209568,0 -2.327997,0.339672 -3.3553,1.019015 -1.01073,0.679344 -1.880618,1.57409 -2.609673,2.684234 -0.729047,1.093575 -1.300695,2.344566 -1.714924,3.752962 -0.414236,1.408388 -0.621354,2.841645 -0.621354,4.299745 0,1.002215 0.09776,1.926603 0.292551,2.774327 -0.159411,0.557799 -0.362717,1.084136 -0.615651,1.575123 -0.265113,0.546789 -0.588212,1.00245 -0.969307,1.366972 -0.364524,0.364533 -0.803612,0.546789 -1.317268,0.546789 -0.331381,0 -0.588211,-0.09942 -0.77047,-0.298247 -0.165694,-0.198827 -0.289965,-0.430799 -0.372812,-0.695912 -0.08282,-0.265113 -0.13256,-0.521936 -0.149123,-0.770478 -0.01655,-0.265105 -0.02487,-0.455651 -0.02487,-0.571641 V 24.417505 c 0,-0.579927 -0.06628,-1.176424 -0.198829,-1.78949 -0.115989,-0.613065 -0.331388,-1.168139 -0.646207,-1.665219 -0.314818,-0.497082 -0.745616,-0.903031 -1.292406,-1.217848 -0.546789,-0.314818 -1.242702,-0.472227 -2.087737,-0.472227 -0.629637,0 -1.21785,0.132553 -1.764637,0.397663 -0.530218,0.248541 -1.035584,0.604784 -1.516097,1.068725 -0.463942,0.447372 -0.903029,0.977591 -1.317267,1.590657 -0.397666,0.613066 -0.77047,1.27584 -1.11843,1.988321 v -2.286569 c 0,-0.613066 -0.248542,-1.135001 -0.745618,-1.565804 -0.480512,-0.447372 -1.14329,-0.671059 -1.988326,-0.671059 -0.364523,0 -0.679342,0.08285 -0.944456,0.24854 -0.265104,0.149124 -0.397657,0.347959 -0.397657,0.596499 0,0.18226 0.03309,0.381095 0.09942,0.596496 0.08282,0.2154 0.12427,0.563357 0.12427,1.043868 v 8.869782 c -0.07702,0.184014 -0.143992,0.398624 -0.198828,0.649307 -0.115989,0.56336 -0.265113,1.168144 -0.447379,1.814351 -0.165686,0.629628 -0.389376,1.217841 -0.671052,1.764629 -0.265112,0.546789 -0.588212,1.00245 -0.969306,1.366972 -0.364532,0.364533 -0.803621,0.546789 -1.317268,0.546789 -0.298246,0 -0.563359,-0.06627 -0.79533,-0.198829 -0.2154,-0.149124 -0.389376,-0.331388 -0.521936,-0.546787 -0.132552,-0.231972 -0.231971,-0.480513 -0.298247,-0.745627 -0.06627,-0.281675 -0.09941,-0.563351 -0.09941,-0.845035 v -8.400663 c 0,-0.613064 -0.248543,-1.134992 -0.745625,-1.565801 -0.497077,-0.447369 -1.168136,-0.671059 -2.013172,-0.671059 -0.364532,0 -0.679349,0.08282 -0.944455,0.248542 -0.248541,0.149124 -0.372812,0.356241 -0.372812,0.621346 0,0.08282 0.0083,0.173985 0.02487,0.273395 0.01653,0.08282 0.03317,0.182267 0.04973,0.298256 0.03318,0.115981 0.05803,0.256822 0.07458,0.422517 0.03318,0.165686 0.04972,0.372804 0.04972,0.621346 v 7.853874 c -0.281683,0.712483 -0.654488,1.333829 -1.11843,1.864055 -0.463941,0.513647 -1.043873,0.77047 -1.739784,0.77047 -0.894741,0 -1.598944,-0.356242 -2.11259,-1.068724 -0.513655,-0.729047 -0.770478,-1.76463 -0.770478,-3.10675 0,-1.839195 0.256823,-3.421575 0.770478,-4.747123 0.513646,-1.342112 1.168135,-2.443971 1.963465,-3.305578 0.811902,-0.878179 1.714925,-1.524384 2.709093,-1.938617 0.994159,-0.430804 1.971747,-0.646206 2.932773,-0.646206 0.265113,0 0.521937,0.01657 0.770479,0.04971 0.248534,0.03314 0.488793,0.04971 0.720762,0.04971 0.248543,0 0.41423,-0.08283 0.497077,-0.24854 0.09942,-0.182261 0.149123,-0.488794 0.149123,-0.919598 0,-0.662775 -0.215399,-1.184708 -0.6462,-1.565804 -0.430806,-0.381096 -0.994158,-0.571642 -1.690069,-0.571642 -1.55752,0 -3.065334,0.314817 -4.523435,0.944453 -1.441538,0.629636 -2.725662,1.540949 -3.852375,2.733944 -1.126719,1.17642 -2.02975,2.609668 -2.709092,4.299739 -0.679341,1.69008 -1.019012,3.595552 -1.019012,5.716431 0,0.408584 0.02376,0.804519 0.05956,1.194028 -0.140766,0.425736 -0.30873,0.832095 -0.50692,1.216809 -0.281674,0.546788 -0.629627,1.002448 -1.043864,1.366971 -0.414236,0.364532 -0.911312,0.54679 -1.491243,0.54679 -0.347961,0 -0.654488,-0.07458 -0.919602,-0.223681 -0.248532,-0.149123 -0.455652,-0.34796 -0.621346,-0.596503 -0.165695,-0.265104 -0.289965,-0.563352 -0.372813,-0.894741 -0.08281,-0.331388 -0.124271,-0.671059 -0.124271,-1.019019 0,-0.845037 0.05803,-1.706644 0.173977,-2.584813 0.115989,-0.894751 0.25683,-1.756356 0.422525,-2.584821 0.165686,-0.828465 0.347953,-1.615514 0.546789,-2.361132 0.198828,-0.762188 0.381094,-1.433248 0.54678,-2.013179 0.165695,-0.579923 0.306537,-1.060436 0.422528,-1.44153 0.11598,-0.381095 0.173975,-0.621349 0.173975,-0.720766 0.04973,-0.298248 -0.02486,-0.613067 -0.22369,-0.944453 -0.182256,-0.33139 -0.414227,-0.637922 -0.695911,-0.919602 -0.281676,-0.298248 -0.571643,-0.538504 -0.869889,-0.720768 -0.281684,-0.182262 -0.497084,-0.273393 -0.646208,-0.273393 h -2.659377 -0.397665 c -0.132553,0 -0.298248,-0.0083 -0.497085,-0.02484 -0.198828,-0.01657 -0.44737,-0.03316 -0.745617,-0.04971 -0.281676,-0.03315 -0.629637,-0.07456 -1.043873,-0.12427 -0.149123,-0.51365 -0.33967,-0.944453 -0.571641,-1.292409 -0.23197,-0.347957 -0.497076,-0.629636 -0.795331,-0.845037 -0.281676,-0.215401 -0.588213,-0.364525 -0.919593,-0.447372 -0.314818,-0.08284 -0.621355,-0.124271 -0.919603,-0.124271 z m 72.747689,5.592155 c 0.3314,0 0.58821,0.157409 0.77048,0.472228 0.19883,0.314818 0.29825,0.753905 0.29825,1.317261 0,0.762189 -0.0994,1.499525 -0.29825,2.212008 -0.19884,0.695913 -0.48052,1.342119 -0.84503,1.938614 -0.36453,0.596502 -0.80362,1.126718 -1.317268,1.590661 -0.513657,0.463942 -1.085294,0.845036 -1.714911,1.143283 0,-0.165695 -0.0086,-0.3231 -0.02485,-0.472222 -0.0165,-0.149125 -0.02485,-0.298248 -0.02485,-0.44738 -0.0166,-0.347952 -0.0086,-0.778759 0.02485,-1.292406 0.0332,-0.530218 0.09943,-1.085288 0.19884,-1.665219 0.0994,-0.579931 0.22368,-1.151572 0.3728,-1.714924 0.165697,-0.579932 0.364527,-1.093579 0.596504,-1.540957 0.24853,-0.463938 0.530207,-0.836748 0.845027,-1.118428 0.331388,-0.281678 0.704188,-0.422519 1.118428,-0.422519 z"
     id="path5124"
     inkscape:connector-curvature="0" />
  <metadata
     id="metadata5186">
    <rdf:RDF>
      <cc:Work
         rdf:about="">
        <dc:format>image/svg+xml</dc:format>
        <dc:type
           rdf:resource="http://purl.org/dc/dcmitype/StillImage" />
        <dc:title></dc:title>
      </cc:Work>
    </rdf:RDF>
  </metadata>
</svg>
