<svg width="114.43mm" height="47.943mm" version="1.1" viewBox="0 0 114.43 47.943" xmlns="http://www.w3.org/2000/svg">
 <defs>
  <clipPath id="clipPath818">
   <path d="m28.877 3.2916c-0.03318 0-0.07458 0.02485-0.12427 0.074565-0.04973 0.033138-0.12427 0.074555-0.22368 0.12427-0.08282 0.049707-0.19883 0.099416-0.34796 0.14912-0.13255 0.033138-0.30653 0.049707-0.52194 0.049707h-1.4167c-0.67934-0.016568-1.4498-0.033138-2.3114-0.049707-0.8616-0.016568-1.7315-0.02485-2.6097-0.02485-0.8616-0.016568-1.5989-0.02485-2.212-0.02485-2.6511 0-5.0951 0.3231-7.3319 0.96931-2.2203 0.64621-4.1423 1.6072-5.7661 2.8831-1.6238 1.2593-2.8913 2.8251-3.8027 4.6974-0.91132 1.8723-1.367 4.0346-1.367 6.4869 0 1.3421 0.16569 2.5931 0.49708 3.753 0.33139 1.1433 0.72905 2.1623 1.193 3.057 0.46394 0.89475 0.95274 1.6486 1.4664 2.2617 0.51365 0.5965 0.95274 1.0273 1.3173 1.2924 0.13256 0.11598 0.25682 0.19055 0.37281 0.22369 0.13255 0.03309 0.26511 0.04973 0.39767 0.04973 0.29825 0 0.58821-0.09112 0.86989-0.27339 0.29825-0.19883 0.56336-0.43909 0.79533-0.72076 0.23197-0.29825 0.41424-0.62136 0.54679-0.96931 0.14912-0.36453 0.22369-0.71248 0.22369-1.0439 0-0.26511-0.05804-0.47222-0.17398-0.62135-0.11598-0.14914-0.31482-0.18228-0.59649-0.099432-0.33139-0.33139-0.67106-0.71249-1.019-1.1433-0.33139-0.43081-0.63793-0.92789-0.9196-1.4912-0.28168-0.56336-0.51366-1.193-0.69591-1.8889-0.16569-0.71248-0.24854-1.5078-0.24854-2.386 0-1.9718 0.33139-3.6287 0.99416-4.9708 0.66278-1.3587 1.5492-2.4605 2.6594-3.3056 1.1101-0.84504 2.3943-1.4747 3.8524-1.8889 1.4581-0.4308 2.9742-0.71248 4.5483-0.84504v28.11c0 1.2924-0.10771 2.2369-0.32311 2.8334-0.19883 0.57993-0.53022 0.8699-0.99416 0.8699-0.13255 0-0.25682-0.01654-0.37281-0.04973-0.09941-0.03317-0.19055-0.05803-0.27339-0.07457-0.06628 0-0.12427 0.01654-0.17398 0.04973-0.03317 0.04972-0.04972 0.15741-0.04972 0.32311 0 0.24853 0.1077 0.5385 0.3231 0.86989 0.23197 0.33139 0.51365 0.65449 0.84504 0.96931 0.34796 0.31482 0.71248 0.57992 1.0936 0.79533 0.3811 0.2154 0.72906 0.3231 1.0439 0.3231 0.41423 0 0.79532-0.11599 1.1433-0.34796 0.36452-0.23197 0.67106-0.59649 0.9196-1.0936 0.24853-0.49709 0.43909-1.1433 0.57164-1.9386 0.14912-0.79532 0.22368-1.7563 0.22368-2.8831v-28.856c0.5965 0.016571 1.2427 0.03315 1.9386 0.04971 0.69592 0.016571 1.3587 0.03314 1.9883 0.04971 0.62964 0.016571 1.1847 0.03314 1.6652 0.04971h1.019c0.33139 0 0.62135-0.08285 0.86989-0.24854 0.24853-0.16569 0.45566-0.37281 0.62135-0.62135 0.16569-0.26511 0.28996-0.55507 0.37281-0.86989 0.08282-0.33139 0.12427-0.64621 0.12427-0.94445 0-0.19883-0.01654-0.39766-0.04972-0.5965-0.033177-0.19885-0.082815-0.37282-0.14912-0.52195-0.049715-0.16569-0.11598-0.29825-0.19883-0.39766-0.066268-0.11599-0.14084-0.17398-0.22369-0.17398zm-0.69591 13.794c-0.33139 0-0.65449 0.058-0.96931 0.17398-0.31482 0.09942-0.58821 0.25682-0.82018 0.47223-0.23197 0.19883-0.42252 0.44737-0.57164 0.74562-0.13255 0.28168-0.19883 0.5965-0.19883 0.94445 0 0.74562 0.20712 1.3918 0.62135 1.9386 0.41424 0.53022 0.93617 0.96931 1.5658 1.3173-0.01656 0.64621-0.04141 1.3835-0.07458 2.212-0.03318 0.8119-0.08281 1.6321-0.14912 2.4606-0.04973 0.8119-0.12427 1.5907-0.22369 2.3363-0.0994 0.72905-0.2154 1.3504-0.34795 1.8641-0.11599 0.4308-0.06627 0.84503 0.14912 1.2427 0.2154 0.39766 0.49708 0.70419 0.84504 0.91959 0.34795 0.19884 0.69591 0.25682 1.0439 0.17399 0.36452-0.08282 0.62963-0.38939 0.79532-0.9196 0.23197-0.74562 0.42252-1.5575 0.57164-2.4357 0.1657-0.87818 0.29826-1.7481 0.39767-2.6097 0.09942-0.86161 0.1657-1.6735 0.19884-2.4357 0.04973-0.7622 0.0829-1.3918 0.09942-1.8889h4.4489c-0.82847 2.2037-1.4664 4.2252-1.9138 6.0644-0.43081 1.8226-0.64621 3.5541-0.64621 5.1945 0 1.1267 0.15741 2.0629 0.47223 2.8085 0.33138 0.72905 0.74562 1.3173 1.2427 1.7646 0.51365 0.44737 1.077 0.76219 1.6901 0.94446 0.62964 0.18226 1.2427 0.27339 1.8392 0.27339 1.0936 0 2.0463-0.25683 2.8582-0.77048 0.79074-0.50026 1.4704-1.1273 2.0411-1.8791 0.09369 0.15016 0.1913 0.29684 0.29514 0.43754 0.51365 0.67934 1.1433 1.2178 1.8889 1.6155 0.76219 0.39767 1.6404 0.5965 2.6345 0.5965 0.96102 0 1.7978-0.20712 2.5103-0.62135 0.72905-0.39767 1.3504-0.88646 1.8641-1.4664 0.3811 0.62964 0.90302 1.135 1.5658 1.5161 0.66277 0.3811 1.4415 0.57165 2.3363 0.57165 1.0936 0 2.0463-0.25683 2.8582-0.77048 0.62747-0.38903 1.1834-0.85434 1.6683-1.3955 0.0076 0.44579 0.07921 0.80529 0.22057 1.0724 0.1657 0.29825 0.36453 0.52193 0.5965 0.67105 0.24854 0.1657 0.51365 0.27339 0.79532 0.32311 0.29826 0.06627 0.57165 0.09942 0.82018 0.09942 0.36453 0 0.63793-0.07458 0.82018-0.22369 0.19884-0.13255 0.33968-0.30654 0.42252-0.52194 0.09942-0.19883 0.14913-0.42252 0.14913-0.67106 0.01654-0.2651 0.02487-0.52194 0.02487-0.77047v-7.4314c0.09941-1.0107 0.33967-2.0132 0.72077-3.0073 0.39767-1.0107 0.85333-1.9138 1.367-2.7091 0.51366-0.79532 1.0356-1.4415 1.5658-1.9386 0.53022-0.49708 0.97758-0.74562 1.3421-0.74562 0.24854 0 0.43909 0.08285 0.57165 0.24854 0.14912 0.14912 0.25682 0.35624 0.3231 0.62135 0.08282 0.26511 0.13257 0.57164 0.14912 0.9196 0.01654 0.34795 0.02487 0.72076 0.02487 1.1184v10.339c0 0.6462 0.09112 1.2593 0.27339 1.8392 0.19883 0.57993 0.4805 1.0853 0.84504 1.5161 0.3811 0.43081 0.82846 0.77048 1.3421 1.019 0.53023 0.2651 1.135 0.39766 1.8144 0.39766 1.0936 0 2.0463-0.25683 2.8582-0.77048 0.8119-0.51365 1.5078-1.1599 2.0877-1.9386 0.16774-0.21899 0.32387-0.44545 0.47326-0.67623 0.24581 0.3312 0.50986 0.64034 0.7943 0.92477 0.82847 0.8119 1.7729 1.425 2.8334 1.8392 1.0604 0.41423 2.154 0.62135 3.2807 0.62135 1.2427 0 2.3446-0.15741 3.3056-0.47223 0.97758-0.31482 1.8309-0.72905 2.5599-1.2427 0.72905-0.51364 1.3421-1.0936 1.8392-1.7398 0.11974-0.15451 0.23345-0.30956 0.3433-0.46497 0.30977 0.46648 0.64977 0.8963 1.0237 1.2852 0.84504 0.84505 1.8061 1.4912 2.8831 1.9386 1.0936 0.46394 2.2203 0.69591 3.3801 0.69591 1.2427 0 2.3446-0.15741 3.3056-0.47223 0.96102-0.31482 1.7978-0.72905 2.5103-1.2427 0.71248-0.51364 1.309-1.0936 1.7895-1.7398 0.49707-0.66277 0.90303-1.3338 1.2178-2.0132 0.31481-0.67934 0.5468-1.3504 0.69594-2.0132 0.16566-0.66277 0.28166-1.251 0.34794-1.7646 0.0496-0.44737-0.0663-0.82846-0.34794-1.1433-0.26514-0.33139-0.58822-0.54679-0.96933-0.6462-0.36452-0.0994-0.72906-0.04973-1.0936 0.14913-0.34797 0.18226-0.57994 0.55507-0.69592 1.1184-0.14913 0.77876-0.37281 1.5492-0.67105 2.3114-0.29826 0.7622-0.69592 1.4498-1.193 2.0629-0.48052 0.61307-1.077 1.1101-1.7895 1.4912-0.71248 0.36453-1.5658 0.54679-2.56 0.54679-0.66278 0-1.251-0.08282-1.7646-0.24854-0.49708-0.16568-0.93618-0.38937-1.3173-0.67105-0.38109-0.28168-0.71248-0.61307-0.99414-0.99417-0.26511-0.39766-0.48051-0.81189-0.6462-1.2427 1.2261-0.36452 2.3031-0.89474 3.231-1.5907 0.94445-0.71249 1.7315-1.5078 2.3611-2.386 0.6462-0.89474 1.1267-1.8392 1.4415-2.8334 0.33138-0.99416 0.49708-1.9635 0.49708-2.9079 0-0.76219-0.10771-1.4581-0.3231-2.0877-0.19884-0.62964-0.49708-1.1681-0.89475-1.6155-0.39767-0.46394-0.88646-0.82018-1.4664-1.0687-0.56335-0.24854-1.2013-0.37281-1.9138-0.37281-0.97759 0-1.9303 0.28996-2.8582 0.86989-0.92787 0.56336-1.7563 1.3504-2.4854 2.3611-0.72905 1.0107-1.3173 2.212-1.7646 3.6038-0.44737 1.3753-0.67105 2.8665-0.67105 4.4737 0 0.74234 0.05637 1.4471 0.16466 2.1173-0.05998 0.16446-0.1219 0.32872-0.18951 0.49241-0.31481 0.7622-0.72905 1.4498-1.2427 2.0629-0.51365 0.61307-1.1433 1.1101-1.8889 1.4912-0.72904 0.36453-1.5907 0.54679-2.5848 0.54679-0.74562 0-1.4415-0.13255-2.0877-0.39767-0.62964-0.28168-1.1764-0.68762-1.6404-1.2178-0.46394-0.53022-0.82847-1.1847-1.0936-1.9635-0.24854-0.77876-0.3728-1.6735-0.3728-2.6842 0-1.1433 0.09941-2.2203 0.29825-3.231 0.2154-1.0107 0.48879-1.8972 0.82018-2.6594 0.34795-0.76219 0.73734-1.3587 1.1681-1.7895 0.44737-0.44737 0.90303-0.67106 1.367-0.67106 0.43081 0 0.77048 0.1077 1.019 0.3231 0.24853 0.19883 0.43908 0.44737 0.57164 0.74562 0.14912 0.28168 0.24853 0.57993 0.29825 0.89475 0.06627 0.31481 0.13255 0.57992 0.19883 0.79532-0.04973 0.29825-0.0083 0.52194 0.12427 0.67106 0.14912 0.14912 0.33967 0.23197 0.57164 0.24854 0.23197 0.01655 0.49708-0.01655 0.79533-0.09941 0.29825-0.09941 0.57164-0.24025 0.82018-0.42252 0.24854-0.18226 0.45565-0.40595 0.62134-0.67106 0.18226-0.26511 0.2734-0.56335 0.2734-0.89474 0-0.44738-0.09113-0.96102-0.2734-1.541-0.16569-0.57993-0.43908-1.1184-0.82018-1.6155-0.38109-0.51365-0.87817-0.94445-1.4912-1.2924-0.61306-0.36452-1.3587-0.54679-2.2369-0.54679-1.2096 0-2.328 0.33967-3.3553 1.019-1.0107 0.67934-1.8806 1.5741-2.6097 2.6842-0.72905 1.0936-1.3007 2.3446-1.7149 3.753-0.41424 1.4084-0.62135 2.8416-0.62135 4.2997 0 1.0022 0.09776 1.9266 0.29255 2.7743-0.15941 0.5578-0.36272 1.0841-0.61565 1.5751-0.26511 0.54679-0.58821 1.0025-0.96931 1.367-0.36452 0.36453-0.80361 0.54679-1.3173 0.54679-0.33138 0-0.58821-0.09942-0.77047-0.29825-0.1657-0.19883-0.28996-0.4308-0.37281-0.69591-0.08282-0.26511-0.13256-0.52194-0.14912-0.77048-0.01654-0.2651-0.02487-0.45565-0.02487-0.57164v-10.538c0-0.57993-0.06628-1.1764-0.19883-1.7895-0.11599-0.61306-0.33139-1.1681-0.64621-1.6652-0.31482-0.49708-0.74561-0.90303-1.2924-1.2178-0.54679-0.31482-1.2427-0.47223-2.0877-0.47223-0.62964 0-1.2179 0.13255-1.7646 0.39766-0.53022 0.24854-1.0356 0.60478-1.5161 1.0687-0.46394 0.44737-0.90303 0.97759-1.3173 1.5907-0.39767 0.61307-0.77047 1.2758-1.1184 1.9883v-2.2866c0-0.61307-0.24854-1.135-0.74562-1.5658-0.48051-0.44737-1.1433-0.67106-1.9883-0.67106-0.36452 0-0.67934 0.08285-0.94446 0.24854-0.2651 0.14912-0.39766 0.34796-0.39766 0.5965 0 0.18226 0.03309 0.3811 0.09942 0.5965 0.08282 0.2154 0.12427 0.56336 0.12427 1.0439v8.8698c-0.07702 0.18401-0.144 0.39862-0.19883 0.64931-0.11599 0.56336-0.26511 1.1681-0.44738 1.8144-0.16569 0.62963-0.38938 1.2178-0.67105 1.7646-0.26511 0.54679-0.58821 1.0024-0.96931 1.367-0.36453 0.36454-0.80362 0.54679-1.3173 0.54679-0.29825 0-0.56336-0.06627-0.79533-0.19883-0.2154-0.14912-0.38938-0.33139-0.52194-0.54679-0.13255-0.23197-0.23197-0.48051-0.29825-0.74563-0.06627-0.28167-0.09941-0.56335-0.09941-0.84503v-8.4007c0-0.61306-0.24854-1.135-0.74562-1.5658-0.49708-0.44737-1.1681-0.67106-2.0132-0.67106-0.36453 0-0.67935 0.08282-0.94445 0.24854-0.24854 0.14912-0.37281 0.35624-0.37281 0.62135 0 0.08282 0.0083 0.17398 0.02487 0.2734 0.01654 0.08282 0.03317 0.18227 0.04973 0.29826 0.03318 0.11598 0.05803 0.25682 0.07458 0.42252 0.03318 0.16569 0.04972 0.3728 0.04972 0.62135v7.8539c-0.28168 0.71248-0.65449 1.3338-1.1184 1.8641-0.46394 0.51365-1.0439 0.77047-1.7398 0.77047-0.89474 0-1.5989-0.35624-2.1126-1.0687-0.51365-0.72905-0.77048-1.7646-0.77048-3.1068 0-1.8392 0.25682-3.4216 0.77048-4.7471 0.51365-1.3421 1.1681-2.444 1.9635-3.3056 0.8119-0.87818 1.7149-1.5244 2.7091-1.9386 0.99416-0.4308 1.9718-0.64621 2.9328-0.64621 0.26511 0 0.52194 0.01657 0.77048 0.04971 0.24853 0.03314 0.48879 0.04971 0.72076 0.04971 0.24854 0 0.41423-0.08283 0.49708-0.24854 0.09942-0.18226 0.14912-0.48879 0.14912-0.9196 0-0.66278-0.2154-1.1847-0.6462-1.5658-0.43081-0.3811-0.99416-0.57164-1.6901-0.57164-1.5575 0-3.0653 0.31482-4.5234 0.94445-1.4415 0.62964-2.7257 1.5409-3.8524 2.7339-1.1267 1.1764-2.0298 2.6097-2.7091 4.2997-0.67934 1.6901-1.019 3.5956-1.019 5.7164 0 0.40859 0.02376 0.80452 0.05956 1.194-0.14077 0.42574-0.30873 0.8321-0.50692 1.2168-0.28168 0.54679-0.62963 1.0024-1.0439 1.367-0.41423 0.36453-0.91131 0.54679-1.4912 0.54679-0.34796 0-0.65449-0.07458-0.9196-0.22368-0.24853-0.14912-0.45565-0.34796-0.62134-0.5965-0.1657-0.2651-0.28997-0.56335-0.37281-0.89474-0.08281-0.33139-0.12427-0.67106-0.12427-1.019 0-0.84504 0.05803-1.7066 0.17398-2.5848 0.11599-0.89475 0.25683-1.7564 0.42253-2.5848 0.16568-0.82847 0.34795-1.6155 0.54679-2.3611 0.19883-0.76219 0.3811-1.4332 0.54678-2.0132 0.1657-0.57992 0.30654-1.0604 0.42253-1.4415 0.11598-0.3811 0.17397-0.62135 0.17397-0.72077 0.04973-0.29825-0.02487-0.61307-0.22369-0.94445-0.18226-0.33139-0.41423-0.63792-0.69591-0.9196-0.28167-0.29825-0.57164-0.5385-0.86988-0.72077-0.28169-0.18226-0.49708-0.27339-0.64621-0.27339h-3.057c-0.13255 0-0.29825-0.0083-0.49709-0.02484-0.19883-0.01657-0.44737-0.03316-0.74562-0.04971-0.28168-0.03315-0.62964-0.07456-1.0439-0.12427-0.14912-0.51365-0.33967-0.94445-0.57164-1.2924-0.23197-0.34796-0.49708-0.62964-0.79533-0.84504-0.28168-0.2154-0.58821-0.36452-0.91959-0.44737-0.31482-0.08284-0.62136-0.12427-0.9196-0.12427zm72.748 5.5922c0.3314 0 0.58821 0.15741 0.77048 0.47223 0.19883 0.31482 0.29825 0.7539 0.29825 1.3173 0 0.76219-0.0994 1.4995-0.29825 2.212-0.19884 0.69592-0.48052 1.3421-0.84503 1.9386-0.36453 0.5965-0.80362 1.1267-1.3173 1.5907-0.51366 0.46394-1.0853 0.84503-1.7149 1.1433 0-0.1657-0.0086-0.3231-0.02484-0.47222-0.01651-0.14912-0.02484-0.29825-0.02484-0.44738-0.01659-0.34795-0.0086-0.77876 0.02484-1.2924 0.0332-0.53022 0.09943-1.0853 0.19884-1.6652 0.0994-0.57993 0.22368-1.1516 0.3728-1.7149 0.1657-0.57993 0.36453-1.0936 0.59651-1.541 0.24853-0.46394 0.53021-0.83675 0.84503-1.1184 0.33139-0.28168 0.70419-0.42252 1.1184-0.42252z" stroke-width=".26511"/>
  </clipPath>
 </defs>
 <path d="m7.5691 29.125c-7.056-6.1854-7.7001-18.814 6.3285-23.687l18.624 0.36163c-5.1056-1.359-14.521 3.6599-14.284-5.6052-0.89861 12.326 1.6295 19.887 0.36163 43.034-12.735-8.1007-4.4601-4.4601-6.6901-6.6901" clip-path="url(#clipPath818)" fill="none" stroke="#f00" stroke-width="5.3552"/>
 <path d="m27.918 35.445c0.25268-0.8212 2.0846-15.476 2.0846-15.476-0.0182-1.7895-1.6003-0.84225-2.4004-1.2634-1.6463 0.12572 1.853 2.3162 2.7794 3.4743 3.0852-0.23891 6.3459-0.59488 8.4647-0.18951-2.3747 5.0201-3.3542 9.0437-4.6114 13.266 1.8841 4.2834 4.6454 5.3954 8.7174 1.7687 1.8344-12.136 7.3771-16.111 13.076-15.982-4.5212 2.11-11.011 1.203-12.318 14.971 2.6381 4.627 5.6584 4.5712 8.97 0.94754-0.24152-4.138 0.2171-8.1467 0.8212-12.128-0.26393 4.5508-0.5326 9.1071 0.18951 12.508 2.5689 3.7161 5.1378 0.77774 7.7067-0.56852 1.3016-5.7132 1.3854-10.939 1.0107-15.982-0.89541-0.74108 0.08423 13.518 0.12634 20.277-0.40869-5.5482-2.1157-11.678 2.0846-15.161 4.7154-6.9259 6.4719-4.4274 8.212-3.9165 0.38106 6.1947 0.06373 10.993-0.25268 15.792 2.598 2.8704 4.7484 1.8613 6.6328-1.4529 0.23894-7.6146 0.33925-15.392 7.075-15.35 2.9403 0.75129 4.0912 3.1567 3.2497 5.7989 0.81542-5.3581-1.8566-5.4107-4.3867-5.862-3.1519 1.5792-4.1699 5.1354-5.243 11.307l2.5268 5.4957c4.6885 2.6106 8.6384 0.78984 12.381-2.2741 2.4415-1.7044 2.9629-1.2487 7.3276-5.1167 1.7195-2.3434 4.5633-9.1801-0.88437-9.6017-3.6463-0.31209-4.925 3.3825-5.4957 8.2752-0.33323 3.4706 1.0871 5.1877 1.6424 7.7698 3.9549 3.9305 6.6536 1.8941 9.7281 1.6424 2.4904-1.2274 3.6177-3 3.727-5.1799 0.45897-2.3034 0.72448-4.0264 0.94754-5.6221" clip-path="url(#clipPath818)" fill="none" stroke="#f00" stroke-width="5.2917"/>
</svg>
