<?xml version="1.0" encoding="UTF-8" standalone="no"?>
<svg
   xmlns:dc="http://purl.org/dc/elements/1.1/"
   xmlns:cc="http://creativecommons.org/ns#"
   xmlns:rdf="http://www.w3.org/1999/02/22-rdf-syntax-ns#"
   xmlns:svg="http://www.w3.org/2000/svg"
   xmlns="http://www.w3.org/2000/svg"
   xmlns:sodipodi="http://sodipodi.sourceforge.net/DTD/sodipodi-0.dtd"
   xmlns:inkscape="http://www.inkscape.org/namespaces/inkscape"
   version="1.1"
   class="subtitle"
   viewBox="0 0 225.9 70.700006"
   xml:space="preserve"
   id="svg15"
   sodipodi:docname="texto (cópia).svg"
   width="225.89999"
   height="70.700005"
   inkscape:version="0.92.3 (2405546, 2018-03-11)"><metadata
   id="metadata19"><rdf:RDF><cc:Work
       rdf:about=""><dc:format>image/svg+xml</dc:format><dc:type
         rdf:resource="http://purl.org/dc/dcmitype/StillImage" /><dc:title></dc:title></cc:Work></rdf:RDF></metadata><sodipodi:namedview
   pagecolor="#ffffff"
   bordercolor="#666666"
   borderopacity="1"
   objecttolerance="10"
   gridtolerance="10"
   guidetolerance="10"
   inkscape:pageopacity="0"
   inkscape:pageshadow="2"
   inkscape:window-width="1366"
   inkscape:window-height="670"
   id="namedview17"
   showgrid="false"
   fit-margin-top="0"
   fit-margin-left="0"
   fit-margin-right="0"
   fit-margin-bottom="0"
   inkscape:zoom="2.0942409"
   inkscape:cx="111.04"
   inkscape:cy="35.770002"
   inkscape:window-x="0"
   inkscape:window-y="27"
   inkscape:window-maximized="1"
   inkscape:current-layer="svg15" />
            <defs
   id="defs5">
                <clipPath
   id="websiteClip">
                    <path
   d="M 79.7,29.1 C 74.3,36 67.5,43.8 59.3,52.5 c -7.1,7 -11.8,11.2 -13.8,12.6 -4.6,3.5 -7.9,5.3 -9.8,5.3 h -0.4 c -2.9,0 -4.8,-1 -5.6,-3 -0.1,-0.5 -0.2,-0.8 -0.2,-1 V 65.8 C 29.5,63.6 31.3,59.3 35,53 L 42.8,38.7 C 31.4,49.5 23.8,57 19.8,60.8 18,60.8 16.4,60.2 15,59 c -0.6,-0.7 -0.9,-1.7 -0.9,-2.9 0,-2.3 1.8,-6.5 5.4,-12.6 8,-14.7 13.4,-24.7 16.3,-30.1 h -0.2 c -5.9,0.7 -13,4.1 -21.1,10 -1.4,0.9 -3.4,2.7 -6,5.5 V 29 c 0.5,1.3 1.3,2.2 2.5,2.9 1.5,0.5 3,0.7 4.5,0.7 0.2,0 0.6,0 0.9,0.1 0,0.9 -1.6,1.9 -4.8,3.1 -1.7,0.5 -3.1,0.7 -4.2,0.7 H 6.9 C 4.4,36.5 2.7,33.7 2,28.1 1.9,27.8 1.9,27.3 1.9,26.5 v -1.1 c 0,-2.5 0.9,-4.5 2.8,-5.9 1.8,-1.7 4.1,-3.4 7,-5.1 C 15.7,12.1 21,9.9 27.5,7.8 32.3,6.6 36.1,6 39,6 c 1.5,0.2 2.9,0.8 4,1.8 1.7,1.6 2.6,3.6 2.6,5.9 0,0.3 -2.3,4.5 -6.9,12.6 -0.8,1.5 -4.3,8 -10.6,19.4 v 0.1 C 35.9,38.5 43.3,31.5 50.2,24.9 56,14 59.2,7.7 59.5,6.1 c 1.4,0.2 2.7,0.7 4,1.7 1.8,1.5 2.7,3.6 2.7,6.2 v 0.1 C 49.7,44 41.2,59.4 40.8,60.4 42.6,58.8 45.1,56.2 48.5,52.6 57.9,42 66.9,30.6 75.7,18.6 82,9.8 85.6,3.9 86.4,1 86.5,0.6 86.5,0.2 86.5,-0.1 v -0.1 c 0.1,-0.1 0.1,-0.1 0.2,-0.1 1.5,0.4 3.1,1.4 4.9,3 1.8,2.3 2.8,4.1 2.8,5.3 -2.9,5.2 -7.8,12.2 -14.7,21.1 z M 125.8,40 c -0.7,1.3 -1.2,2.3 -1.6,3 -0.6,1 -1.2,2.3 -2,3.8 l -2.1,3.7 c -1.8,3.2 -3.2,5.7 -4.1,7.6 -1.5,2.8 -4.1,3.4 -7.7,2 -1.5,-0.6 -2.8,-1.4 -4,-2.5 -1.2,-1.2 -2.1,-2.3 -2.5,-3.4 l -3.6,6.6 c -4.5,-0.4 -6.3,-2.4 -5.6,-6 -1.1,0.8 -2.1,1.5 -3,2.1 -3.6,2.1 -6.6,3.4 -8.7,3.7 -0.7,0.1 -1.3,0.2 -1.8,0.2 h -0.4 c -1.8,0 -3.4,-0.7 -4.7,-2 -1.4,-1.8 -2.1,-4.1 -2.1,-6.6 v -0.6 c 0,-3.1 1.1,-7 3.2,-11.5 3.5,-7.4 8.1,-12.8 13.8,-16.2 1,-0.6 2,-1 3,-1.5 0.9,-0.4 1.4,-0.6 1.6,-0.6 0.7,0 1.9,0.2 3.4,0.6 0.7,0.2 1.5,0.4 2.2,0.7 2.5,1.2 3.8,3 3.8,5.4 v 0.4 c 0,1.6 -0.6,3.5 -1.9,5.7 -2.3,3.7 -5.4,6.8 -9.5,9.4 l -8.3,0.2 c -0.7,0.9 -1.2,1.7 -1.6,2.4 -1.5,2.7 -2.3,5 -2.6,6.9 0.1,0.3 0.4,0.5 0.9,0.5 H 80 c 1.4,0 3.9,-0.9 7.6,-2.6 2.6,-1.2 5.4,-2.9 8.3,-5.1 0.4,-0.3 0.8,-0.6 1.2,-0.9 0.6,-1.2 1.1,-2 1.4,-2.6 0.7,-1.4 2.2,-4.1 4.5,-8.3 l 0.7,-1.4 0.8,-1.4 1.6,-2.9 c 1.2,-2.3 2.3,-4.2 3.2,-5.9 5.4,-9.8 8,-15.1 7.9,-15.9 2,0.2 3.6,1 4.8,2.6 1.3,1.5 1.8,3.2 1.7,5.2 l -11.9,21.5 c 0.9,-0.8 2,-1.8 3.3,-3 l 1.7,-1.5 1.7,-1.6 c 2.6,-2.4 4.6,-4.2 6,-5.4 4.6,0.4 6.4,2.6 5.4,6.6 -0.4,1.5 -1.2,3.4 -2.4,5.7 l -0.8,1.5 z m -40.4,-1.2 4,0.2 c 0.9,-0.3 1.7,-0.7 2.4,-1.2 0.3,-0.2 0.8,-0.6 1.5,-1.3 0.7,-0.8 1.2,-1.6 1.6,-2.4 0.7,-1.5 1.1,-2.8 1.1,-3.9 0,-0.7 -0.2,-1.1 -0.6,-1.3 h -0.2 c -0.8,0.1 -1.8,0.7 -3.1,1.8 -1.3,1.2 -2.2,2.1 -2.9,2.8 -1.5,1.9 -2.8,3.6 -3.8,5.3 z m 34.5,-2.9 -13.6,11.5 c -0.3,0.2 -0.6,0.4 -0.9,0.6 l -0.4,0.6 c 0.2,1.7 0.7,3 1.5,4 0.9,1 1.8,1.4 3,1.1 z m 107.9,7.2 v 0.6 c 0,1.2 -0.4,2.2 -1.1,3 h -0.1 c -0.2,-0.7 -0.6,-1.3 -1.2,-1.8 -0.7,-0.3 -1.3,-0.5 -1.8,-0.5 H 223 c -3.2,0 -9.8,2.8 -19.8,8.5 -9,5.2 -14.8,7.8 -17.3,7.8 h -0.3 c -3.4,0 -5.6,-1.9 -6.7,-5.6 -0.2,-1.1 -0.4,-2.2 -0.4,-3.1 v -0.5 c 0,-1.4 0.2,-3 0.6,-4.6 -4.3,3.9 -9,8.2 -14.3,13 -0.6,0.6 -0.9,0.8 -0.9,0.8 -1.7,0 -3.1,-0.5 -4.4,-1.5 -0.7,-0.8 -1.1,-1.7 -1.1,-2.6 V 56 c 0,-1.7 1.3,-5 4,-9.8 -4.1,3.8 -8.2,7.5 -12.4,11.2 -2.3,2.2 -3.6,3.3 -3.7,3.3 -1.3,0 -2.6,-0.4 -4,-1.1 -1.2,-0.8 -1.8,-1.9 -1.8,-3.2 V 56 c 0,-2.2 1.5,-5.8 4.4,-10.9 0.7,-1.2 1.4,-2.5 2.2,-3.9 -2.6,1.1 -4.9,2.2 -7,3.3 0.3,1.7 0.5,3.2 0.5,4.7 v 0.3 c 0,3.4 -0.9,6.4 -2.7,8.9 -1.5,1.6 -3.2,2.4 -5.3,2.4 h -0.4 c -1.9,0 -3.7,-0.7 -5.3,-2.2 -0.8,-0.9 -1.4,-1.8 -1.7,-2.6 -0.3,-0.9 -0.5,-1.8 -0.5,-2.5 v -0.4 c 0,-0.9 0.2,-1.9 0.6,-3 0,-0.1 0.1,-0.2 0.3,-0.4 2.5,-2 5,-3.8 7.5,-5.4 -2,-3.7 -3,-6 -3,-6.9 0,-0.2 0,-0.6 0,-1.1 0,-3 1.6,-6.3 4.8,-9.8 1.6,-1.6 2.8,-2.7 3.7,-3.2 1.7,-1.3 3.6,-2.5 5.6,-3.5 1.1,-0.6 2.1,-1.1 2.9,-1.4 1.7,0.6 3.3,1.9 4.6,4 0.4,0.6 0.7,1.3 1,2.1 l 0.2,0.4 c -2.8,0.9 -5,1.8 -6.8,2.9 -4.9,2.8 -7.4,6.2 -7.4,10.2 0,0.9 0.1,1.8 0.4,2.8 4.9,-2.9 8.8,-4.9 11.6,-6 0.8,-1.5 1.7,-3 2.7,-4.7 1.6,-3 2.4,-4.9 2.5,-5.9 h 0.1 c 1.2,0.1 2.5,0.6 3.7,1.5 1,0.9 1.6,1.6 1.8,2 0.7,1.3 1.1,2.5 1.1,3.7 l -0.1,0.3 v 0.4 c -0.2,0.4 -1.6,2.9 -4.2,7.5 l -5.2,9.1 12.1,-11.1 c 0.7,-0.4 1.4,-0.6 1.8,-0.6 h 0.4 l 9,-16.4 h -0.1 c -2.4,0 -4.5,0.1 -6.4,0.2 -0.4,-0.2 -0.7,-0.5 -0.9,-0.9 -1,1.1 -2.2,2.2 -3.4,3.5 -2.1,-0.3 -3.9,-0.7 -5.4,-1.2 -0.5,-0.2 -1,-0.4 -1.6,-0.6 v -0.1 c 2.3,-5.4 3.6,-8.5 4,-9.3 1.5,-0.2 2.9,-0.3 4.2,-0.3 h 1.2 c 2.7,0 5.3,0.3 7.8,0.8 v 0.1 c -0.4,0.4 -2.1,2.1 -4.9,5.1 l 7.3,-0.8 c 3,-5.5 4.5,-8.6 4.5,-9.3 1.2,0 2.5,0.6 4.1,1.8 1.5,1.5 2.3,3.3 2.3,5.4 0,0.4 -0.2,1 -0.6,1.6 1.2,-0.1 2,-0.1 2.6,-0.1 h 2.8 c 0.1,0 0.1,0.1 0.1,0.2 -1.2,2.8 -1.9,4.3 -1.9,4.3 H 192 c -1.7,-0.1 -3.5,-0.2 -5.6,-0.4 l -16,28.7 h 0.1 c 7.9,-7.4 12,-11.1 12.1,-11.2 0,0 0,0 0.1,0 0.7,-1.4 1.6,-2.9 2.5,-4.4 1.1,-1.6 2.6,-3.4 4.5,-5.4 2.2,-2.2 4,-3.6 5.4,-4.3 1.4,-0.9 3,-1.8 4.9,-2.5 0.2,-0.1 0.3,-0.1 0.4,-0.1 1.8,0 3.8,0.5 5.9,1.4 2.5,1.2 3.7,3 3.7,5.5 0,3.2 -2,6.9 -6,11.2 -2.3,2.2 -4.2,3.6 -5.5,4.3 -0.4,0.1 -0.7,0.1 -0.7,0.1 -1.2,0 -3.8,0 -7.8,0.1 -2.1,2.8 -3.5,6 -4.2,9.4 0,0.3 0.6,0.6 1.7,0.7 0,0.1 0.2,0.1 0.7,0.1 h 0.5 c 0.1,0 0.1,0 0.2,0 3.1,0 7.8,-2.7 13.8,-8.1 5.1,-4.6 8.7,-7.5 10.9,-8.8 2,-1.1 3.7,-1.7 5.1,-1.7 4.1,0 7,1.7 8.6,5 0.4,0.9 0.5,1.8 0.5,2.5 z m -35.5,-4.6 c 0.4,0 1.7,0 4.1,0.1 1.1,-0.2 2.2,-0.9 3.4,-2 2.1,-2.3 3.1,-4.6 3.1,-6.9 -0.1,-0.8 -0.3,-1.2 -0.7,-1.2 -2.8,0.8 -6.1,4.2 -9.9,10 z m -57.5,9.4 c -0.7,0.5 -1.6,1.3 -2.7,2.3 -0.6,0.6 -1,1.2 -1.4,1.8 1.5,-0.4 2.6,-1 3.4,-1.8 0.4,-0.5 0.6,-1 0.6,-1.7 v -0.6 z"
   id="path2"
   inkscape:connector-curvature="0" />
                </clipPath>
            <clipPath
   id="clipPath838"><path
     inkscape:connector-curvature="0"
     d="M 79.7,29.1 C 74.3,36 67.5,43.8 59.3,52.5 c -7.1,7 -11.8,11.2 -13.8,12.6 -4.6,3.5 -7.9,5.3 -9.8,5.3 h -0.4 c -2.9,0 -4.8,-1 -5.6,-3 -0.1,-0.5 -0.2,-0.8 -0.2,-1 V 65.8 C 29.5,63.6 31.3,59.3 35,53 L 42.8,38.7 C 31.4,49.5 23.8,57 19.8,60.8 18,60.8 16.4,60.2 15,59 c -0.6,-0.7 -0.9,-1.7 -0.9,-2.9 0,-2.3 1.8,-6.5 5.4,-12.6 8,-14.7 13.4,-24.7 16.3,-30.1 h -0.2 c -5.9,0.7 -13,4.1 -21.1,10 -1.4,0.9 -3.4,2.7 -6,5.5 V 29 c 0.5,1.3 1.3,2.2 2.5,2.9 1.5,0.5 3,0.7 4.5,0.7 0.2,0 0.6,0 0.9,0.1 0,0.9 -1.6,1.9 -4.8,3.1 -1.7,0.5 -3.1,0.7 -4.2,0.7 H 6.9 C 4.4,36.5 2.7,33.7 2,28.1 1.9,27.8 1.9,27.3 1.9,26.5 v -1.1 c 0,-2.5 0.9,-4.5 2.8,-5.9 1.8,-1.7 4.1,-3.4 7,-5.1 C 15.7,12.1 21,9.9 27.5,7.8 32.3,6.6 36.1,6 39,6 c 1.5,0.2 2.9,0.8 4,1.8 1.7,1.6 2.6,3.6 2.6,5.9 0,0.3 -2.3,4.5 -6.9,12.6 -0.8,1.5 -4.3,8 -10.6,19.4 v 0.1 C 35.9,38.5 43.3,31.5 50.2,24.9 56,14 59.2,7.7 59.5,6.1 c 1.4,0.2 2.7,0.7 4,1.7 1.8,1.5 2.7,3.6 2.7,6.2 v 0.1 C 49.7,44 41.2,59.4 40.8,60.4 42.6,58.8 45.1,56.2 48.5,52.6 57.9,42 66.9,30.6 75.7,18.6 82,9.8 85.6,3.9 86.4,1 86.5,0.6 86.5,0.2 86.5,-0.1 v -0.1 c 0.1,-0.1 0.1,-0.1 0.2,-0.1 1.5,0.4 3.1,1.4 4.9,3 1.8,2.3 2.8,4.1 2.8,5.3 -2.9,5.2 -7.8,12.2 -14.7,21.1 z M 125.8,40 c -0.7,1.3 -1.2,2.3 -1.6,3 -0.6,1 -1.2,2.3 -2,3.8 l -2.1,3.7 c -1.8,3.2 -3.2,5.7 -4.1,7.6 -1.5,2.8 -4.1,3.4 -7.7,2 -1.5,-0.6 -2.8,-1.4 -4,-2.5 -1.2,-1.2 -2.1,-2.3 -2.5,-3.4 l -3.6,6.6 c -4.5,-0.4 -6.3,-2.4 -5.6,-6 -1.1,0.8 -2.1,1.5 -3,2.1 -3.6,2.1 -6.6,3.4 -8.7,3.7 -0.7,0.1 -1.3,0.2 -1.8,0.2 h -0.4 c -1.8,0 -3.4,-0.7 -4.7,-2 -1.4,-1.8 -2.1,-4.1 -2.1,-6.6 v -0.6 c 0,-3.1 1.1,-7 3.2,-11.5 3.5,-7.4 8.1,-12.8 13.8,-16.2 1,-0.6 2,-1 3,-1.5 0.9,-0.4 1.4,-0.6 1.6,-0.6 0.7,0 1.9,0.2 3.4,0.6 0.7,0.2 1.5,0.4 2.2,0.7 2.5,1.2 3.8,3 3.8,5.4 v 0.4 c 0,1.6 -0.6,3.5 -1.9,5.7 -2.3,3.7 -5.4,6.8 -9.5,9.4 l -8.3,0.2 c -0.7,0.9 -1.2,1.7 -1.6,2.4 -1.5,2.7 -2.3,5 -2.6,6.9 0.1,0.3 0.4,0.5 0.9,0.5 H 80 c 1.4,0 3.9,-0.9 7.6,-2.6 2.6,-1.2 5.4,-2.9 8.3,-5.1 0.4,-0.3 0.8,-0.6 1.2,-0.9 0.6,-1.2 1.1,-2 1.4,-2.6 0.7,-1.4 2.2,-4.1 4.5,-8.3 l 0.7,-1.4 0.8,-1.4 1.6,-2.9 c 1.2,-2.3 2.3,-4.2 3.2,-5.9 5.4,-9.8 8,-15.1 7.9,-15.9 2,0.2 3.6,1 4.8,2.6 1.3,1.5 1.8,3.2 1.7,5.2 l -11.9,21.5 c 0.9,-0.8 2,-1.8 3.3,-3 l 1.7,-1.5 1.7,-1.6 c 2.6,-2.4 4.6,-4.2 6,-5.4 4.6,0.4 6.4,2.6 5.4,6.6 -0.4,1.5 -1.2,3.4 -2.4,5.7 l -0.8,1.5 z m -40.4,-1.2 4,0.2 c 0.9,-0.3 1.7,-0.7 2.4,-1.2 0.3,-0.2 0.8,-0.6 1.5,-1.3 0.7,-0.8 1.2,-1.6 1.6,-2.4 0.7,-1.5 1.1,-2.8 1.1,-3.9 0,-0.7 -0.2,-1.1 -0.6,-1.3 h -0.2 c -0.8,0.1 -1.8,0.7 -3.1,1.8 -1.3,1.2 -2.2,2.1 -2.9,2.8 -1.5,1.9 -2.8,3.6 -3.8,5.3 z m 34.5,-2.9 -13.6,11.5 c -0.3,0.2 -0.6,0.4 -0.9,0.6 l -0.4,0.6 c 0.2,1.7 0.7,3 1.5,4 0.9,1 1.8,1.4 3,1.1 z m 107.9,7.2 v 0.6 c 0,1.2 -0.4,2.2 -1.1,3 h -0.1 c -0.2,-0.7 -0.6,-1.3 -1.2,-1.8 -0.7,-0.3 -1.3,-0.5 -1.8,-0.5 H 223 c -3.2,0 -9.8,2.8 -19.8,8.5 -9,5.2 -14.8,7.8 -17.3,7.8 h -0.3 c -3.4,0 -5.6,-1.9 -6.7,-5.6 -0.2,-1.1 -0.4,-2.2 -0.4,-3.1 v -0.5 c 0,-1.4 0.2,-3 0.6,-4.6 -4.3,3.9 -9,8.2 -14.3,13 -0.6,0.6 -0.9,0.8 -0.9,0.8 -1.7,0 -3.1,-0.5 -4.4,-1.5 -0.7,-0.8 -1.1,-1.7 -1.1,-2.6 V 56 c 0,-1.7 1.3,-5 4,-9.8 -4.1,3.8 -8.2,7.5 -12.4,11.2 -2.3,2.2 -3.6,3.3 -3.7,3.3 -1.3,0 -2.6,-0.4 -4,-1.1 -1.2,-0.8 -1.8,-1.9 -1.8,-3.2 V 56 c 0,-2.2 1.5,-5.8 4.4,-10.9 0.7,-1.2 1.4,-2.5 2.2,-3.9 -2.6,1.1 -4.9,2.2 -7,3.3 0.3,1.7 0.5,3.2 0.5,4.7 v 0.3 c 0,3.4 -0.9,6.4 -2.7,8.9 -1.5,1.6 -3.2,2.4 -5.3,2.4 h -0.4 c -1.9,0 -3.7,-0.7 -5.3,-2.2 -0.8,-0.9 -1.4,-1.8 -1.7,-2.6 -0.3,-0.9 -0.5,-1.8 -0.5,-2.5 v -0.4 c 0,-0.9 0.2,-1.9 0.6,-3 0,-0.1 0.1,-0.2 0.3,-0.4 2.5,-2 5,-3.8 7.5,-5.4 -2,-3.7 -3,-6 -3,-6.9 0,-0.2 0,-0.6 0,-1.1 0,-3 1.6,-6.3 4.8,-9.8 1.6,-1.6 2.8,-2.7 3.7,-3.2 1.7,-1.3 3.6,-2.5 5.6,-3.5 1.1,-0.6 2.1,-1.1 2.9,-1.4 1.7,0.6 3.3,1.9 4.6,4 0.4,0.6 0.7,1.3 1,2.1 l 0.2,0.4 c -2.8,0.9 -5,1.8 -6.8,2.9 -4.9,2.8 -7.4,6.2 -7.4,10.2 0,0.9 0.1,1.8 0.4,2.8 4.9,-2.9 8.8,-4.9 11.6,-6 0.8,-1.5 1.7,-3 2.7,-4.7 1.6,-3 2.4,-4.9 2.5,-5.9 h 0.1 c 1.2,0.1 2.5,0.6 3.7,1.5 1,0.9 1.6,1.6 1.8,2 0.7,1.3 1.1,2.5 1.1,3.7 l -0.1,0.3 v 0.4 c -0.2,0.4 -1.6,2.9 -4.2,7.5 l -5.2,9.1 12.1,-11.1 c 0.7,-0.4 1.4,-0.6 1.8,-0.6 h 0.4 l 9,-16.4 h -0.1 c -2.4,0 -4.5,0.1 -6.4,0.2 -0.4,-0.2 -0.7,-0.5 -0.9,-0.9 -1,1.1 -2.2,2.2 -3.4,3.5 -2.1,-0.3 -3.9,-0.7 -5.4,-1.2 -0.5,-0.2 -1,-0.4 -1.6,-0.6 v -0.1 c 2.3,-5.4 3.6,-8.5 4,-9.3 1.5,-0.2 2.9,-0.3 4.2,-0.3 h 1.2 c 2.7,0 5.3,0.3 7.8,0.8 v 0.1 c -0.4,0.4 -2.1,2.1 -4.9,5.1 l 7.3,-0.8 c 3,-5.5 4.5,-8.6 4.5,-9.3 1.2,0 2.5,0.6 4.1,1.8 1.5,1.5 2.3,3.3 2.3,5.4 0,0.4 -0.2,1 -0.6,1.6 1.2,-0.1 2,-0.1 2.6,-0.1 h 2.8 c 0.1,0 0.1,0.1 0.1,0.2 -1.2,2.8 -1.9,4.3 -1.9,4.3 H 192 c -1.7,-0.1 -3.5,-0.2 -5.6,-0.4 l -16,28.7 h 0.1 c 7.9,-7.4 12,-11.1 12.1,-11.2 0,0 0,0 0.1,0 0.7,-1.4 1.6,-2.9 2.5,-4.4 1.1,-1.6 2.6,-3.4 4.5,-5.4 2.2,-2.2 4,-3.6 5.4,-4.3 1.4,-0.9 3,-1.8 4.9,-2.5 0.2,-0.1 0.3,-0.1 0.4,-0.1 1.8,0 3.8,0.5 5.9,1.4 2.5,1.2 3.7,3 3.7,5.5 0,3.2 -2,6.9 -6,11.2 -2.3,2.2 -4.2,3.6 -5.5,4.3 -0.4,0.1 -0.7,0.1 -0.7,0.1 -1.2,0 -3.8,0 -7.8,0.1 -2.1,2.8 -3.5,6 -4.2,9.4 0,0.3 0.6,0.6 1.7,0.7 0,0.1 0.2,0.1 0.7,0.1 h 0.5 c 0.1,0 0.1,0 0.2,0 3.1,0 7.8,-2.7 13.8,-8.1 5.1,-4.6 8.7,-7.5 10.9,-8.8 2,-1.1 3.7,-1.7 5.1,-1.7 4.1,0 7,1.7 8.6,5 0.4,0.9 0.5,1.8 0.5,2.5 z m -35.5,-4.6 c 0.4,0 1.7,0 4.1,0.1 1.1,-0.2 2.2,-0.9 3.4,-2 2.1,-2.3 3.1,-4.6 3.1,-6.9 -0.1,-0.8 -0.3,-1.2 -0.7,-1.2 -2.8,0.8 -6.1,4.2 -9.9,10 z m -57.5,9.4 c -0.7,0.5 -1.6,1.3 -2.7,2.3 -0.6,0.6 -1,1.2 -1.4,1.8 1.5,-0.4 2.6,-1 3.4,-1.8 0.4,-0.5 0.6,-1 0.6,-1.7 v -0.6 z"
     id="path836" /></clipPath><clipPath
   id="clipPath842"><path
     inkscape:connector-curvature="0"
     d="M 79.7,29.1 C 74.3,36 67.5,43.8 59.3,52.5 c -7.1,7 -11.8,11.2 -13.8,12.6 -4.6,3.5 -7.9,5.3 -9.8,5.3 h -0.4 c -2.9,0 -4.8,-1 -5.6,-3 -0.1,-0.5 -0.2,-0.8 -0.2,-1 V 65.8 C 29.5,63.6 31.3,59.3 35,53 L 42.8,38.7 C 31.4,49.5 23.8,57 19.8,60.8 18,60.8 16.4,60.2 15,59 c -0.6,-0.7 -0.9,-1.7 -0.9,-2.9 0,-2.3 1.8,-6.5 5.4,-12.6 8,-14.7 13.4,-24.7 16.3,-30.1 h -0.2 c -5.9,0.7 -13,4.1 -21.1,10 -1.4,0.9 -3.4,2.7 -6,5.5 V 29 c 0.5,1.3 1.3,2.2 2.5,2.9 1.5,0.5 3,0.7 4.5,0.7 0.2,0 0.6,0 0.9,0.1 0,0.9 -1.6,1.9 -4.8,3.1 -1.7,0.5 -3.1,0.7 -4.2,0.7 H 6.9 C 4.4,36.5 2.7,33.7 2,28.1 1.9,27.8 1.9,27.3 1.9,26.5 v -1.1 c 0,-2.5 0.9,-4.5 2.8,-5.9 1.8,-1.7 4.1,-3.4 7,-5.1 C 15.7,12.1 21,9.9 27.5,7.8 32.3,6.6 36.1,6 39,6 c 1.5,0.2 2.9,0.8 4,1.8 1.7,1.6 2.6,3.6 2.6,5.9 0,0.3 -2.3,4.5 -6.9,12.6 -0.8,1.5 -4.3,8 -10.6,19.4 v 0.1 C 35.9,38.5 43.3,31.5 50.2,24.9 56,14 59.2,7.7 59.5,6.1 c 1.4,0.2 2.7,0.7 4,1.7 1.8,1.5 2.7,3.6 2.7,6.2 v 0.1 C 49.7,44 41.2,59.4 40.8,60.4 42.6,58.8 45.1,56.2 48.5,52.6 57.9,42 66.9,30.6 75.7,18.6 82,9.8 85.6,3.9 86.4,1 86.5,0.6 86.5,0.2 86.5,-0.1 v -0.1 c 0.1,-0.1 0.1,-0.1 0.2,-0.1 1.5,0.4 3.1,1.4 4.9,3 1.8,2.3 2.8,4.1 2.8,5.3 -2.9,5.2 -7.8,12.2 -14.7,21.1 z M 125.8,40 c -0.7,1.3 -1.2,2.3 -1.6,3 -0.6,1 -1.2,2.3 -2,3.8 l -2.1,3.7 c -1.8,3.2 -3.2,5.7 -4.1,7.6 -1.5,2.8 -4.1,3.4 -7.7,2 -1.5,-0.6 -2.8,-1.4 -4,-2.5 -1.2,-1.2 -2.1,-2.3 -2.5,-3.4 l -3.6,6.6 c -4.5,-0.4 -6.3,-2.4 -5.6,-6 -1.1,0.8 -2.1,1.5 -3,2.1 -3.6,2.1 -6.6,3.4 -8.7,3.7 -0.7,0.1 -1.3,0.2 -1.8,0.2 h -0.4 c -1.8,0 -3.4,-0.7 -4.7,-2 -1.4,-1.8 -2.1,-4.1 -2.1,-6.6 v -0.6 c 0,-3.1 1.1,-7 3.2,-11.5 3.5,-7.4 8.1,-12.8 13.8,-16.2 1,-0.6 2,-1 3,-1.5 0.9,-0.4 1.4,-0.6 1.6,-0.6 0.7,0 1.9,0.2 3.4,0.6 0.7,0.2 1.5,0.4 2.2,0.7 2.5,1.2 3.8,3 3.8,5.4 v 0.4 c 0,1.6 -0.6,3.5 -1.9,5.7 -2.3,3.7 -5.4,6.8 -9.5,9.4 l -8.3,0.2 c -0.7,0.9 -1.2,1.7 -1.6,2.4 -1.5,2.7 -2.3,5 -2.6,6.9 0.1,0.3 0.4,0.5 0.9,0.5 H 80 c 1.4,0 3.9,-0.9 7.6,-2.6 2.6,-1.2 5.4,-2.9 8.3,-5.1 0.4,-0.3 0.8,-0.6 1.2,-0.9 0.6,-1.2 1.1,-2 1.4,-2.6 0.7,-1.4 2.2,-4.1 4.5,-8.3 l 0.7,-1.4 0.8,-1.4 1.6,-2.9 c 1.2,-2.3 2.3,-4.2 3.2,-5.9 5.4,-9.8 8,-15.1 7.9,-15.9 2,0.2 3.6,1 4.8,2.6 1.3,1.5 1.8,3.2 1.7,5.2 l -11.9,21.5 c 0.9,-0.8 2,-1.8 3.3,-3 l 1.7,-1.5 1.7,-1.6 c 2.6,-2.4 4.6,-4.2 6,-5.4 4.6,0.4 6.4,2.6 5.4,6.6 -0.4,1.5 -1.2,3.4 -2.4,5.7 l -0.8,1.5 z m -40.4,-1.2 4,0.2 c 0.9,-0.3 1.7,-0.7 2.4,-1.2 0.3,-0.2 0.8,-0.6 1.5,-1.3 0.7,-0.8 1.2,-1.6 1.6,-2.4 0.7,-1.5 1.1,-2.8 1.1,-3.9 0,-0.7 -0.2,-1.1 -0.6,-1.3 h -0.2 c -0.8,0.1 -1.8,0.7 -3.1,1.8 -1.3,1.2 -2.2,2.1 -2.9,2.8 -1.5,1.9 -2.8,3.6 -3.8,5.3 z m 34.5,-2.9 -13.6,11.5 c -0.3,0.2 -0.6,0.4 -0.9,0.6 l -0.4,0.6 c 0.2,1.7 0.7,3 1.5,4 0.9,1 1.8,1.4 3,1.1 z m 107.9,7.2 v 0.6 c 0,1.2 -0.4,2.2 -1.1,3 h -0.1 c -0.2,-0.7 -0.6,-1.3 -1.2,-1.8 -0.7,-0.3 -1.3,-0.5 -1.8,-0.5 H 223 c -3.2,0 -9.8,2.8 -19.8,8.5 -9,5.2 -14.8,7.8 -17.3,7.8 h -0.3 c -3.4,0 -5.6,-1.9 -6.7,-5.6 -0.2,-1.1 -0.4,-2.2 -0.4,-3.1 v -0.5 c 0,-1.4 0.2,-3 0.6,-4.6 -4.3,3.9 -9,8.2 -14.3,13 -0.6,0.6 -0.9,0.8 -0.9,0.8 -1.7,0 -3.1,-0.5 -4.4,-1.5 -0.7,-0.8 -1.1,-1.7 -1.1,-2.6 V 56 c 0,-1.7 1.3,-5 4,-9.8 -4.1,3.8 -8.2,7.5 -12.4,11.2 -2.3,2.2 -3.6,3.3 -3.7,3.3 -1.3,0 -2.6,-0.4 -4,-1.1 -1.2,-0.8 -1.8,-1.9 -1.8,-3.2 V 56 c 0,-2.2 1.5,-5.8 4.4,-10.9 0.7,-1.2 1.4,-2.5 2.2,-3.9 -2.6,1.1 -4.9,2.2 -7,3.3 0.3,1.7 0.5,3.2 0.5,4.7 v 0.3 c 0,3.4 -0.9,6.4 -2.7,8.9 -1.5,1.6 -3.2,2.4 -5.3,2.4 h -0.4 c -1.9,0 -3.7,-0.7 -5.3,-2.2 -0.8,-0.9 -1.4,-1.8 -1.7,-2.6 -0.3,-0.9 -0.5,-1.8 -0.5,-2.5 v -0.4 c 0,-0.9 0.2,-1.9 0.6,-3 0,-0.1 0.1,-0.2 0.3,-0.4 2.5,-2 5,-3.8 7.5,-5.4 -2,-3.7 -3,-6 -3,-6.9 0,-0.2 0,-0.6 0,-1.1 0,-3 1.6,-6.3 4.8,-9.8 1.6,-1.6 2.8,-2.7 3.7,-3.2 1.7,-1.3 3.6,-2.5 5.6,-3.5 1.1,-0.6 2.1,-1.1 2.9,-1.4 1.7,0.6 3.3,1.9 4.6,4 0.4,0.6 0.7,1.3 1,2.1 l 0.2,0.4 c -2.8,0.9 -5,1.8 -6.8,2.9 -4.9,2.8 -7.4,6.2 -7.4,10.2 0,0.9 0.1,1.8 0.4,2.8 4.9,-2.9 8.8,-4.9 11.6,-6 0.8,-1.5 1.7,-3 2.7,-4.7 1.6,-3 2.4,-4.9 2.5,-5.9 h 0.1 c 1.2,0.1 2.5,0.6 3.7,1.5 1,0.9 1.6,1.6 1.8,2 0.7,1.3 1.1,2.5 1.1,3.7 l -0.1,0.3 v 0.4 c -0.2,0.4 -1.6,2.9 -4.2,7.5 l -5.2,9.1 12.1,-11.1 c 0.7,-0.4 1.4,-0.6 1.8,-0.6 h 0.4 l 9,-16.4 h -0.1 c -2.4,0 -4.5,0.1 -6.4,0.2 -0.4,-0.2 -0.7,-0.5 -0.9,-0.9 -1,1.1 -2.2,2.2 -3.4,3.5 -2.1,-0.3 -3.9,-0.7 -5.4,-1.2 -0.5,-0.2 -1,-0.4 -1.6,-0.6 v -0.1 c 2.3,-5.4 3.6,-8.5 4,-9.3 1.5,-0.2 2.9,-0.3 4.2,-0.3 h 1.2 c 2.7,0 5.3,0.3 7.8,0.8 v 0.1 c -0.4,0.4 -2.1,2.1 -4.9,5.1 l 7.3,-0.8 c 3,-5.5 4.5,-8.6 4.5,-9.3 1.2,0 2.5,0.6 4.1,1.8 1.5,1.5 2.3,3.3 2.3,5.4 0,0.4 -0.2,1 -0.6,1.6 1.2,-0.1 2,-0.1 2.6,-0.1 h 2.8 c 0.1,0 0.1,0.1 0.1,0.2 -1.2,2.8 -1.9,4.3 -1.9,4.3 H 192 c -1.7,-0.1 -3.5,-0.2 -5.6,-0.4 l -16,28.7 h 0.1 c 7.9,-7.4 12,-11.1 12.1,-11.2 0,0 0,0 0.1,0 0.7,-1.4 1.6,-2.9 2.5,-4.4 1.1,-1.6 2.6,-3.4 4.5,-5.4 2.2,-2.2 4,-3.6 5.4,-4.3 1.4,-0.9 3,-1.8 4.9,-2.5 0.2,-0.1 0.3,-0.1 0.4,-0.1 1.8,0 3.8,0.5 5.9,1.4 2.5,1.2 3.7,3 3.7,5.5 0,3.2 -2,6.9 -6,11.2 -2.3,2.2 -4.2,3.6 -5.5,4.3 -0.4,0.1 -0.7,0.1 -0.7,0.1 -1.2,0 -3.8,0 -7.8,0.1 -2.1,2.8 -3.5,6 -4.2,9.4 0,0.3 0.6,0.6 1.7,0.7 0,0.1 0.2,0.1 0.7,0.1 h 0.5 c 0.1,0 0.1,0 0.2,0 3.1,0 7.8,-2.7 13.8,-8.1 5.1,-4.6 8.7,-7.5 10.9,-8.8 2,-1.1 3.7,-1.7 5.1,-1.7 4.1,0 7,1.7 8.6,5 0.4,0.9 0.5,1.8 0.5,2.5 z m -35.5,-4.6 c 0.4,0 1.7,0 4.1,0.1 1.1,-0.2 2.2,-0.9 3.4,-2 2.1,-2.3 3.1,-4.6 3.1,-6.9 -0.1,-0.8 -0.3,-1.2 -0.7,-1.2 -2.8,0.8 -6.1,4.2 -9.9,10 z m -57.5,9.4 c -0.7,0.5 -1.6,1.3 -2.7,2.3 -0.6,0.6 -1,1.2 -1.4,1.8 1.5,-0.4 2.6,-1 3.4,-1.8 0.4,-0.5 0.6,-1 0.6,-1.7 v -0.6 z"
     id="path840" /></clipPath><clipPath
   id="clipPath846"><path
     inkscape:connector-curvature="0"
     d="M 79.7,29.1 C 74.3,36 67.5,43.8 59.3,52.5 c -7.1,7 -11.8,11.2 -13.8,12.6 -4.6,3.5 -7.9,5.3 -9.8,5.3 h -0.4 c -2.9,0 -4.8,-1 -5.6,-3 -0.1,-0.5 -0.2,-0.8 -0.2,-1 V 65.8 C 29.5,63.6 31.3,59.3 35,53 L 42.8,38.7 C 31.4,49.5 23.8,57 19.8,60.8 18,60.8 16.4,60.2 15,59 c -0.6,-0.7 -0.9,-1.7 -0.9,-2.9 0,-2.3 1.8,-6.5 5.4,-12.6 8,-14.7 13.4,-24.7 16.3,-30.1 h -0.2 c -5.9,0.7 -13,4.1 -21.1,10 -1.4,0.9 -3.4,2.7 -6,5.5 V 29 c 0.5,1.3 1.3,2.2 2.5,2.9 1.5,0.5 3,0.7 4.5,0.7 0.2,0 0.6,0 0.9,0.1 0,0.9 -1.6,1.9 -4.8,3.1 -1.7,0.5 -3.1,0.7 -4.2,0.7 H 6.9 C 4.4,36.5 2.7,33.7 2,28.1 1.9,27.8 1.9,27.3 1.9,26.5 v -1.1 c 0,-2.5 0.9,-4.5 2.8,-5.9 1.8,-1.7 4.1,-3.4 7,-5.1 C 15.7,12.1 21,9.9 27.5,7.8 32.3,6.6 36.1,6 39,6 c 1.5,0.2 2.9,0.8 4,1.8 1.7,1.6 2.6,3.6 2.6,5.9 0,0.3 -2.3,4.5 -6.9,12.6 -0.8,1.5 -4.3,8 -10.6,19.4 v 0.1 C 35.9,38.5 43.3,31.5 50.2,24.9 56,14 59.2,7.7 59.5,6.1 c 1.4,0.2 2.7,0.7 4,1.7 1.8,1.5 2.7,3.6 2.7,6.2 v 0.1 C 49.7,44 41.2,59.4 40.8,60.4 42.6,58.8 45.1,56.2 48.5,52.6 57.9,42 66.9,30.6 75.7,18.6 82,9.8 85.6,3.9 86.4,1 86.5,0.6 86.5,0.2 86.5,-0.1 v -0.1 c 0.1,-0.1 0.1,-0.1 0.2,-0.1 1.5,0.4 3.1,1.4 4.9,3 1.8,2.3 2.8,4.1 2.8,5.3 -2.9,5.2 -7.8,12.2 -14.7,21.1 z M 125.8,40 c -0.7,1.3 -1.2,2.3 -1.6,3 -0.6,1 -1.2,2.3 -2,3.8 l -2.1,3.7 c -1.8,3.2 -3.2,5.7 -4.1,7.6 -1.5,2.8 -4.1,3.4 -7.7,2 -1.5,-0.6 -2.8,-1.4 -4,-2.5 -1.2,-1.2 -2.1,-2.3 -2.5,-3.4 l -3.6,6.6 c -4.5,-0.4 -6.3,-2.4 -5.6,-6 -1.1,0.8 -2.1,1.5 -3,2.1 -3.6,2.1 -6.6,3.4 -8.7,3.7 -0.7,0.1 -1.3,0.2 -1.8,0.2 h -0.4 c -1.8,0 -3.4,-0.7 -4.7,-2 -1.4,-1.8 -2.1,-4.1 -2.1,-6.6 v -0.6 c 0,-3.1 1.1,-7 3.2,-11.5 3.5,-7.4 8.1,-12.8 13.8,-16.2 1,-0.6 2,-1 3,-1.5 0.9,-0.4 1.4,-0.6 1.6,-0.6 0.7,0 1.9,0.2 3.4,0.6 0.7,0.2 1.5,0.4 2.2,0.7 2.5,1.2 3.8,3 3.8,5.4 v 0.4 c 0,1.6 -0.6,3.5 -1.9,5.7 -2.3,3.7 -5.4,6.8 -9.5,9.4 l -8.3,0.2 c -0.7,0.9 -1.2,1.7 -1.6,2.4 -1.5,2.7 -2.3,5 -2.6,6.9 0.1,0.3 0.4,0.5 0.9,0.5 H 80 c 1.4,0 3.9,-0.9 7.6,-2.6 2.6,-1.2 5.4,-2.9 8.3,-5.1 0.4,-0.3 0.8,-0.6 1.2,-0.9 0.6,-1.2 1.1,-2 1.4,-2.6 0.7,-1.4 2.2,-4.1 4.5,-8.3 l 0.7,-1.4 0.8,-1.4 1.6,-2.9 c 1.2,-2.3 2.3,-4.2 3.2,-5.9 5.4,-9.8 8,-15.1 7.9,-15.9 2,0.2 3.6,1 4.8,2.6 1.3,1.5 1.8,3.2 1.7,5.2 l -11.9,21.5 c 0.9,-0.8 2,-1.8 3.3,-3 l 1.7,-1.5 1.7,-1.6 c 2.6,-2.4 4.6,-4.2 6,-5.4 4.6,0.4 6.4,2.6 5.4,6.6 -0.4,1.5 -1.2,3.4 -2.4,5.7 l -0.8,1.5 z m -40.4,-1.2 4,0.2 c 0.9,-0.3 1.7,-0.7 2.4,-1.2 0.3,-0.2 0.8,-0.6 1.5,-1.3 0.7,-0.8 1.2,-1.6 1.6,-2.4 0.7,-1.5 1.1,-2.8 1.1,-3.9 0,-0.7 -0.2,-1.1 -0.6,-1.3 h -0.2 c -0.8,0.1 -1.8,0.7 -3.1,1.8 -1.3,1.2 -2.2,2.1 -2.9,2.8 -1.5,1.9 -2.8,3.6 -3.8,5.3 z m 34.5,-2.9 -13.6,11.5 c -0.3,0.2 -0.6,0.4 -0.9,0.6 l -0.4,0.6 c 0.2,1.7 0.7,3 1.5,4 0.9,1 1.8,1.4 3,1.1 z m 107.9,7.2 v 0.6 c 0,1.2 -0.4,2.2 -1.1,3 h -0.1 c -0.2,-0.7 -0.6,-1.3 -1.2,-1.8 -0.7,-0.3 -1.3,-0.5 -1.8,-0.5 H 223 c -3.2,0 -9.8,2.8 -19.8,8.5 -9,5.2 -14.8,7.8 -17.3,7.8 h -0.3 c -3.4,0 -5.6,-1.9 -6.7,-5.6 -0.2,-1.1 -0.4,-2.2 -0.4,-3.1 v -0.5 c 0,-1.4 0.2,-3 0.6,-4.6 -4.3,3.9 -9,8.2 -14.3,13 -0.6,0.6 -0.9,0.8 -0.9,0.8 -1.7,0 -3.1,-0.5 -4.4,-1.5 -0.7,-0.8 -1.1,-1.7 -1.1,-2.6 V 56 c 0,-1.7 1.3,-5 4,-9.8 -4.1,3.8 -8.2,7.5 -12.4,11.2 -2.3,2.2 -3.6,3.3 -3.7,3.3 -1.3,0 -2.6,-0.4 -4,-1.1 -1.2,-0.8 -1.8,-1.9 -1.8,-3.2 V 56 c 0,-2.2 1.5,-5.8 4.4,-10.9 0.7,-1.2 1.4,-2.5 2.2,-3.9 -2.6,1.1 -4.9,2.2 -7,3.3 0.3,1.7 0.5,3.2 0.5,4.7 v 0.3 c 0,3.4 -0.9,6.4 -2.7,8.9 -1.5,1.6 -3.2,2.4 -5.3,2.4 h -0.4 c -1.9,0 -3.7,-0.7 -5.3,-2.2 -0.8,-0.9 -1.4,-1.8 -1.7,-2.6 -0.3,-0.9 -0.5,-1.8 -0.5,-2.5 v -0.4 c 0,-0.9 0.2,-1.9 0.6,-3 0,-0.1 0.1,-0.2 0.3,-0.4 2.5,-2 5,-3.8 7.5,-5.4 -2,-3.7 -3,-6 -3,-6.9 0,-0.2 0,-0.6 0,-1.1 0,-3 1.6,-6.3 4.8,-9.8 1.6,-1.6 2.8,-2.7 3.7,-3.2 1.7,-1.3 3.6,-2.5 5.6,-3.5 1.1,-0.6 2.1,-1.1 2.9,-1.4 1.7,0.6 3.3,1.9 4.6,4 0.4,0.6 0.7,1.3 1,2.1 l 0.2,0.4 c -2.8,0.9 -5,1.8 -6.8,2.9 -4.9,2.8 -7.4,6.2 -7.4,10.2 0,0.9 0.1,1.8 0.4,2.8 4.9,-2.9 8.8,-4.9 11.6,-6 0.8,-1.5 1.7,-3 2.7,-4.7 1.6,-3 2.4,-4.9 2.5,-5.9 h 0.1 c 1.2,0.1 2.5,0.6 3.7,1.5 1,0.9 1.6,1.6 1.8,2 0.7,1.3 1.1,2.5 1.1,3.7 l -0.1,0.3 v 0.4 c -0.2,0.4 -1.6,2.9 -4.2,7.5 l -5.2,9.1 12.1,-11.1 c 0.7,-0.4 1.4,-0.6 1.8,-0.6 h 0.4 l 9,-16.4 h -0.1 c -2.4,0 -4.5,0.1 -6.4,0.2 -0.4,-0.2 -0.7,-0.5 -0.9,-0.9 -1,1.1 -2.2,2.2 -3.4,3.5 -2.1,-0.3 -3.9,-0.7 -5.4,-1.2 -0.5,-0.2 -1,-0.4 -1.6,-0.6 v -0.1 c 2.3,-5.4 3.6,-8.5 4,-9.3 1.5,-0.2 2.9,-0.3 4.2,-0.3 h 1.2 c 2.7,0 5.3,0.3 7.8,0.8 v 0.1 c -0.4,0.4 -2.1,2.1 -4.9,5.1 l 7.3,-0.8 c 3,-5.5 4.5,-8.6 4.5,-9.3 1.2,0 2.5,0.6 4.1,1.8 1.5,1.5 2.3,3.3 2.3,5.4 0,0.4 -0.2,1 -0.6,1.6 1.2,-0.1 2,-0.1 2.6,-0.1 h 2.8 c 0.1,0 0.1,0.1 0.1,0.2 -1.2,2.8 -1.9,4.3 -1.9,4.3 H 192 c -1.7,-0.1 -3.5,-0.2 -5.6,-0.4 l -16,28.7 h 0.1 c 7.9,-7.4 12,-11.1 12.1,-11.2 0,0 0,0 0.1,0 0.7,-1.4 1.6,-2.9 2.5,-4.4 1.1,-1.6 2.6,-3.4 4.5,-5.4 2.2,-2.2 4,-3.6 5.4,-4.3 1.4,-0.9 3,-1.8 4.9,-2.5 0.2,-0.1 0.3,-0.1 0.4,-0.1 1.8,0 3.8,0.5 5.9,1.4 2.5,1.2 3.7,3 3.7,5.5 0,3.2 -2,6.9 -6,11.2 -2.3,2.2 -4.2,3.6 -5.5,4.3 -0.4,0.1 -0.7,0.1 -0.7,0.1 -1.2,0 -3.8,0 -7.8,0.1 -2.1,2.8 -3.5,6 -4.2,9.4 0,0.3 0.6,0.6 1.7,0.7 0,0.1 0.2,0.1 0.7,0.1 h 0.5 c 0.1,0 0.1,0 0.2,0 3.1,0 7.8,-2.7 13.8,-8.1 5.1,-4.6 8.7,-7.5 10.9,-8.8 2,-1.1 3.7,-1.7 5.1,-1.7 4.1,0 7,1.7 8.6,5 0.4,0.9 0.5,1.8 0.5,2.5 z m -35.5,-4.6 c 0.4,0 1.7,0 4.1,0.1 1.1,-0.2 2.2,-0.9 3.4,-2 2.1,-2.3 3.1,-4.6 3.1,-6.9 -0.1,-0.8 -0.3,-1.2 -0.7,-1.2 -2.8,0.8 -6.1,4.2 -9.9,10 z m -57.5,9.4 c -0.7,0.5 -1.6,1.3 -2.7,2.3 -0.6,0.6 -1,1.2 -1.4,1.8 1.5,-0.4 2.6,-1 3.4,-1.8 0.4,-0.5 0.6,-1 0.6,-1.7 v -0.6 z"
     id="path844" /></clipPath><clipPath
   clipPathUnits="userSpaceOnUse"
   id="clipPath881"><path
     id="path883"
     d="m 79.7,29.100002 c -5.4,6.9 -12.2,14.7 -20.4,23.4 -7.1,7 -11.8,11.2 -13.8,12.6 -4.6,3.5 -7.9,5.3 -9.8,5.3 h -0.4 c -2.9,0 -4.8,-1 -5.6,-3 -0.1,-0.5 -0.2,-0.8 -0.2,-1 v -0.6 c 0,-2.2 1.8,-6.5 5.5,-12.8 l 7.8,-14.3 c -11.4,10.8 -19,18.3 -23,22.1 -1.8,0 -3.4,-0.6 -4.8,-1.8 -0.6,-0.7 -0.9,-1.7 -0.9,-2.9 0,-2.3 1.8,-6.5 5.4,-12.6 C 27.5,28.800002 32.9,18.8 35.8,13.4 h -0.2 c -5.9,0.7 -13,4.1 -21.1,10.000002 -1.4,0.9 -3.4,2.7 -6,5.5 v 0.1 c 0.5,1.3 1.3,2.2 2.5,2.9 1.5,0.5 3,0.7 4.5,0.7 0.2,0 0.6,0 0.9,0.1 0,0.9 -1.6,1.9 -4.8,3.1 -1.7,0.5 -3.1,0.7 -4.2,0.7 H 6.9 c -2.5,0 -4.2,-2.8 -4.9,-8.4 -0.1,-0.3 -0.1,-0.8 -0.1,-1.6 v -1.1 c 0,-2.5 0.9,-4.5 2.8,-5.900002 1.8,-1.7 4.1,-3.4 7,-5.1 C 15.7,12.1 21,9.9 27.5,7.8 32.3,6.6 36.1,6 39,6 c 1.5,0.2 2.9,0.8 4,1.8 1.7,1.6 2.6,3.6 2.6,5.9 0,0.3 -2.3,4.5 -6.9,12.600002 -0.8,1.5 -4.3,8 -10.6,19.4 v 0.1 c 7.8,-7.3 15.2,-14.3 22.1,-20.9 C 56,14 59.2,7.7 59.5,6.1 c 1.4,0.2 2.7,0.7 4,1.7 1.8,1.5 2.7,3.6 2.7,6.2 v 0.1 c -16.5,29.900002 -25,45.300002 -25.4,46.300002 1.8,-1.6 4.3,-4.2 7.7,-7.8 9.4,-10.6 18.4,-22 27.2,-34.000002 C 82,9.8 85.6,3.9 86.4,1 86.5,0.6 86.5,0.2 86.5,-0.1 v -0.1 c 0.1,-0.1 0.1,-0.1 0.2,-0.1 1.5,0.4 3.1,1.4 4.900002,3 1.8,2.3 2.8,4.1 2.8,5.3 C 91.500002,13.2 86.6,20.200002 79.7,29.100002 Z m 46.1,10.9 c -0.7,1.3 -1.2,2.3 -1.6,3 -0.6,1 -1.2,2.3 -2,3.8 l -2.1,3.7 c -1.8,3.2 -3.2,5.7 -4.1,7.6 -1.5,2.8 -4.1,3.4 -7.7,2 -1.5,-0.6 -2.8,-1.4 -4,-2.5 -1.2,-1.2 -2.1,-2.3 -2.5,-3.4 l -3.599998,6.6 c -4.5,-0.4 -6.3,-2.4 -5.6,-6 -1.1,0.8 -2.1,1.5 -3.000002,2.1 -3.6,2.1 -6.6,3.4 -8.7,3.7 -0.7,0.1 -1.3,0.2 -1.8,0.2 h -0.4 c -1.8,0 -3.4,-0.7 -4.7,-2 -1.4,-1.8 -2.1,-4.1 -2.1,-6.6 v -0.6 c 0,-3.1 1.1,-7 3.2,-11.5 3.5,-7.4 8.1,-12.8 13.8,-16.2 1,-0.6 2.000002,-1 3.000002,-1.5 0.9,-0.4 1.4,-0.6 1.6,-0.6 0.7,0 1.9,0.2 3.4,0.6 0.7,0.2 1.5,0.4 2.2,0.7 2.499998,1.2 3.799998,3 3.799998,5.4 v 0.4 c 0,1.6 -0.6,3.5 -1.9,5.7 -2.299998,3.7 -5.399998,6.8 -9.499998,9.4 l -8.300002,0.2 c -0.7,0.9 -1.2,1.7 -1.6,2.4 -1.5,2.7 -2.3,5 -2.6,6.9 0.1,0.3 0.4,0.5 0.9,0.5 H 80 c 1.4,0 3.9,-0.9 7.6,-2.6 2.6,-1.2 5.400002,-2.9 8.300002,-5.1 0.4,-0.3 0.8,-0.6 1.2,-0.9 0.6,-1.2 1.1,-2 1.4,-2.6 0.7,-1.4 2.199998,-4.1 4.499998,-8.3 l 0.7,-1.4 0.8,-1.4 1.6,-2.9 c 1.2,-2.3 2.3,-4.2 3.2,-5.9 C 114.7,13.1 117.3,7.8 117.2,7 c 2,0.2 3.6,1 4.8,2.6 1.3,1.5 1.8,3.2 1.7,5.2 l -11.9,21.500002 c 0.9,-0.8 2,-1.8 3.3,-3 l 1.7,-1.5 1.7,-1.6 c 2.6,-2.4 4.6,-4.2 6,-5.4 4.6,0.4 6.4,2.6 5.4,6.6 -0.4,1.5 -1.2,3.4 -2.4,5.7 l -0.8,1.5 z m -40.4,-1.2 4,0.2 c 0.900002,-0.3 1.700002,-0.7 2.400002,-1.2 0.3,-0.2 0.8,-0.6 1.5,-1.3 0.7,-0.8 1.2,-1.6 1.6,-2.4 0.7,-1.5 1.1,-2.8 1.1,-3.9 0,-0.7 -0.2,-1.1 -0.6,-1.3 h -0.2 c -0.8,0.1 -1.8,0.7 -3.1,1.8 -1.3,1.2 -2.200002,2.1 -2.900002,2.8 -1.5,1.9 -2.8,3.6 -3.8,5.3 z m 34.5,-2.9 -13.6,11.5 c -0.3,0.2 -0.6,0.4 -0.9,0.6 l -0.4,0.6 c 0.2,1.7 0.7,3 1.5,4 0.9,1 1.8,1.4 3,1.1 z m 107.9,7.2 v 0.6 c 0,1.2 -0.4,2.2 -1.1,3 h -0.1 c -0.2,-0.7 -0.6,-1.3 -1.2,-1.8 -0.7,-0.3 -1.3,-0.5 -1.8,-0.5 H 223 c -3.2,0 -9.8,2.8 -19.8,8.5 -9,5.2 -14.8,7.8 -17.3,7.8 h -0.3 c -3.4,0 -5.6,-1.9 -6.7,-5.6 -0.2,-1.1 -0.4,-2.2 -0.4,-3.1 v -0.5 c 0,-1.4 0.2,-3 0.6,-4.6 -4.3,3.9 -9,8.2 -14.3,13 -0.6,0.6 -0.9,0.8 -0.9,0.8 -1.7,0 -3.1,-0.5 -4.4,-1.5 -0.7,-0.8 -1.1,-1.7 -1.1,-2.6 v -0.6 c 0,-1.7 1.3,-5 4,-9.8 -4.1,3.8 -8.2,7.5 -12.4,11.2 -2.3,2.2 -3.6,3.3 -3.7,3.3 -1.3,0 -2.6,-0.4 -4,-1.1 -1.2,-0.8 -1.8,-1.9 -1.8,-3.2 v -0.4 c 0,-2.2 1.5,-5.8 4.4,-10.9 0.7,-1.2 1.4,-2.5 2.2,-3.9 -2.6,1.1 -4.9,2.2 -7,3.3 0.3,1.7 0.5,3.2 0.5,4.7 v 0.3 c 0,3.4 -0.9,6.4 -2.7,8.9 -1.5,1.6 -3.2,2.4 -5.3,2.4 h -0.4 c -1.9,0 -3.7,-0.7 -5.3,-2.2 -0.8,-0.9 -1.4,-1.8 -1.7,-2.6 -0.3,-0.9 -0.5,-1.8 -0.5,-2.5 v -0.4 c 0,-0.9 0.2,-1.9 0.6,-3 0,-0.1 0.1,-0.2 0.3,-0.4 2.5,-2 5,-3.8 7.5,-5.4 -2,-3.7 -3,-6 -3,-6.9 0,-0.2 0,-0.6 0,-1.1 0,-3 1.6,-6.3 4.8,-9.8 1.6,-1.6 2.8,-2.7 3.7,-3.2 1.7,-1.3 3.6,-2.5 5.6,-3.5 C 145.3,19.2 146.3,18.7 147.1,18.4 c 1.7,0.6 3.3,1.900002 4.6,4.000002 0.4,0.6 0.7,1.3 1,2.1 l 0.2,0.4 c -2.8,0.9 -5,1.8 -6.8,2.9 -4.9,2.8 -7.4,6.2 -7.4,10.2 0,0.9 0.1,1.8 0.4,2.8 4.9,-2.9 8.8,-4.9 11.6,-6 0.8,-1.5 1.7,-3 2.7,-4.7 1.6,-3 2.4,-4.9 2.5,-5.9 h 0.1 c 1.2,0.1 2.5,0.6 3.7,1.5 1,0.9 1.6,1.6 1.8,2 0.7,1.3 1.1,2.5 1.1,3.7 l -0.1,0.3 v 0.4 c -0.2,0.4 -1.6,2.9 -4.2,7.5 l -5.2,9.1 12.1,-11.1 c 0.7,-0.4 1.4,-0.6 1.8,-0.6 h 0.4 l 9,-16.4 h -0.1 c -2.4,0 -4.5,0.1 -6.4,0.2 -0.4,-0.2 -0.7,-0.5 -0.9,-0.9 -1,1.1 -2.2,2.2 -3.4,3.5 -2.1,-0.3 -3.9,-0.7 -5.4,-1.2 -0.5,-0.2 -1,-0.4 -1.6,-0.6 v -0.1 C 160.9,16.1 162.2,13 162.6,12.2 c 1.5,-0.2 2.9,-0.3 4.2,-0.3 h 1.2 c 2.7,0 5.3,0.3 7.8,0.8 v 0.1 c -0.4,0.4 -2.1,2.1 -4.9,5.1 l 7.3,-0.8 c 3,-5.5 4.5,-8.6 4.5,-9.3 1.2,0 2.5,0.6 4.1,1.8 1.5,1.5 2.3,3.3 2.3,5.4 0,0.4 -0.2,1 -0.6,1.6 1.2,-0.1 2,-0.1 2.6,-0.1 h 2.8 c 0.1,0 0.1,0.1 0.1,0.2 -1.2,2.8 -1.9,4.300002 -1.9,4.300002 H 192 c -1.7,-0.1 -3.5,-0.2 -5.6,-0.4 l -16,28.7 h 0.1 c 7.9,-7.4 12,-11.1 12.1,-11.2 0,0 0,0 0.1,0 0.7,-1.4 1.6,-2.9 2.5,-4.4 1.1,-1.6 2.6,-3.4 4.5,-5.4 2.2,-2.2 4,-3.6 5.4,-4.3 1.4,-0.9 3,-1.8 4.9,-2.5 0.2,-0.1 0.3,-0.1 0.4,-0.1 1.8,0 3.8,0.5 5.9,1.4 2.5,1.2 3.7,3 3.7,5.5 0,3.2 -2,6.9 -6,11.2 -2.3,2.2 -4.2,3.6 -5.5,4.3 -0.4,0.1 -0.7,0.1 -0.7,0.1 -1.2,0 -3.8,0 -7.8,0.1 -2.1,2.8 -3.5,6 -4.2,9.4 0,0.3 0.6,0.6 1.7,0.7 0,0.1 0.2,0.1 0.7,0.1 h 0.5 c 0.1,0 0.1,0 0.2,0 3.1,0 7.8,-2.7 13.8,-8.1 5.1,-4.6 8.7,-7.5 10.9,-8.8 2,-1.1 3.7,-1.7 5.1,-1.7 4.1,0 7,1.7 8.6,5 0.4,0.9 0.5,1.8 0.5,2.5 z m -35.5,-4.6 c 0.4,0 1.7,0 4.1,0.1 1.1,-0.2 2.2,-0.9 3.4,-2 2.1,-2.3 3.1,-4.6 3.1,-6.9 -0.1,-0.8 -0.3,-1.2 -0.7,-1.2 -2.8,0.8 -6.1,4.2 -9.9,10 z m -57.5,9.4 c -0.7,0.5 -1.6,1.3 -2.7,2.3 -0.6,0.6 -1,1.2 -1.4,1.8 1.5,-0.4 2.6,-1 3.4,-1.8 0.4,-0.5 0.6,-1 0.6,-1.7 v -0.6 z"
     inkscape:connector-curvature="0" /></clipPath><clipPath
   clipPathUnits="userSpaceOnUse"
   id="clipPath885"><path
     id="path887"
     d="m 79.7,29.100002 c -5.4,6.9 -12.2,14.7 -20.4,23.4 -7.1,7 -11.8,11.2 -13.8,12.6 -4.6,3.5 -7.9,5.3 -9.8,5.3 h -0.4 c -2.9,0 -4.8,-1 -5.6,-3 -0.1,-0.5 -0.2,-0.8 -0.2,-1 v -0.6 c 0,-2.2 1.8,-6.5 5.5,-12.8 l 7.8,-14.3 c -11.4,10.8 -19,18.3 -23,22.1 -1.8,0 -3.4,-0.6 -4.8,-1.8 -0.6,-0.7 -0.9,-1.7 -0.9,-2.9 0,-2.3 1.8,-6.5 5.4,-12.6 C 27.5,28.800002 32.9,18.8 35.8,13.4 h -0.2 c -5.9,0.7 -13,4.1 -21.1,10.000002 -1.4,0.9 -3.4,2.7 -6,5.5 v 0.1 c 0.5,1.3 1.3,2.2 2.5,2.9 1.5,0.5 3,0.7 4.5,0.7 0.2,0 0.6,0 0.9,0.1 0,0.9 -1.6,1.9 -4.8,3.1 -1.7,0.5 -3.1,0.7 -4.2,0.7 H 6.9 c -2.5,0 -4.2,-2.8 -4.9,-8.4 -0.1,-0.3 -0.1,-0.8 -0.1,-1.6 v -1.1 c 0,-2.5 0.9,-4.5 2.8,-5.900002 1.8,-1.7 4.1,-3.4 7,-5.1 C 15.7,12.1 21,9.9 27.5,7.8 32.3,6.6 36.1,6 39,6 c 1.5,0.2 2.9,0.8 4,1.8 1.7,1.6 2.6,3.6 2.6,5.9 0,0.3 -2.3,4.5 -6.9,12.600002 -0.8,1.5 -4.3,8 -10.6,19.4 v 0.1 c 7.8,-7.3 15.2,-14.3 22.1,-20.9 C 56,14 59.2,7.7 59.5,6.1 c 1.4,0.2 2.7,0.7 4,1.7 1.8,1.5 2.7,3.6 2.7,6.2 v 0.1 c -16.5,29.900002 -25,45.300002 -25.4,46.300002 1.8,-1.6 4.3,-4.2 7.7,-7.8 9.4,-10.6 18.4,-22 27.2,-34.000002 C 82,9.8 85.6,3.9 86.4,1 86.5,0.6 86.5,0.2 86.5,-0.1 v -0.1 c 0.1,-0.1 0.1,-0.1 0.2,-0.1 1.5,0.4 3.1,1.4 4.900002,3 1.8,2.3 2.8,4.1 2.8,5.3 C 91.500002,13.2 86.6,20.200002 79.7,29.100002 Z m 46.1,10.9 c -0.7,1.3 -1.2,2.3 -1.6,3 -0.6,1 -1.2,2.3 -2,3.8 l -2.1,3.7 c -1.8,3.2 -3.2,5.7 -4.1,7.6 -1.5,2.8 -4.1,3.4 -7.7,2 -1.5,-0.6 -2.8,-1.4 -4,-2.5 -1.2,-1.2 -2.1,-2.3 -2.5,-3.4 l -3.599998,6.6 c -4.5,-0.4 -6.3,-2.4 -5.6,-6 -1.1,0.8 -2.1,1.5 -3.000002,2.1 -3.6,2.1 -6.6,3.4 -8.7,3.7 -0.7,0.1 -1.3,0.2 -1.8,0.2 h -0.4 c -1.8,0 -3.4,-0.7 -4.7,-2 -1.4,-1.8 -2.1,-4.1 -2.1,-6.6 v -0.6 c 0,-3.1 1.1,-7 3.2,-11.5 3.5,-7.4 8.1,-12.8 13.8,-16.2 1,-0.6 2.000002,-1 3.000002,-1.5 0.9,-0.4 1.4,-0.6 1.6,-0.6 0.7,0 1.9,0.2 3.4,0.6 0.7,0.2 1.5,0.4 2.2,0.7 2.499998,1.2 3.799998,3 3.799998,5.4 v 0.4 c 0,1.6 -0.6,3.5 -1.9,5.7 -2.299998,3.7 -5.399998,6.8 -9.499998,9.4 l -8.300002,0.2 c -0.7,0.9 -1.2,1.7 -1.6,2.4 -1.5,2.7 -2.3,5 -2.6,6.9 0.1,0.3 0.4,0.5 0.9,0.5 H 80 c 1.4,0 3.9,-0.9 7.6,-2.6 2.6,-1.2 5.400002,-2.9 8.300002,-5.1 0.4,-0.3 0.8,-0.6 1.2,-0.9 0.6,-1.2 1.1,-2 1.4,-2.6 0.7,-1.4 2.199998,-4.1 4.499998,-8.3 l 0.7,-1.4 0.8,-1.4 1.6,-2.9 c 1.2,-2.3 2.3,-4.2 3.2,-5.9 C 114.7,13.1 117.3,7.8 117.2,7 c 2,0.2 3.6,1 4.8,2.6 1.3,1.5 1.8,3.2 1.7,5.2 l -11.9,21.500002 c 0.9,-0.8 2,-1.8 3.3,-3 l 1.7,-1.5 1.7,-1.6 c 2.6,-2.4 4.6,-4.2 6,-5.4 4.6,0.4 6.4,2.6 5.4,6.6 -0.4,1.5 -1.2,3.4 -2.4,5.7 l -0.8,1.5 z m -40.4,-1.2 4,0.2 c 0.900002,-0.3 1.700002,-0.7 2.400002,-1.2 0.3,-0.2 0.8,-0.6 1.5,-1.3 0.7,-0.8 1.2,-1.6 1.6,-2.4 0.7,-1.5 1.1,-2.8 1.1,-3.9 0,-0.7 -0.2,-1.1 -0.6,-1.3 h -0.2 c -0.8,0.1 -1.8,0.7 -3.1,1.8 -1.3,1.2 -2.200002,2.1 -2.900002,2.8 -1.5,1.9 -2.8,3.6 -3.8,5.3 z m 34.5,-2.9 -13.6,11.5 c -0.3,0.2 -0.6,0.4 -0.9,0.6 l -0.4,0.6 c 0.2,1.7 0.7,3 1.5,4 0.9,1 1.8,1.4 3,1.1 z m 107.9,7.2 v 0.6 c 0,1.2 -0.4,2.2 -1.1,3 h -0.1 c -0.2,-0.7 -0.6,-1.3 -1.2,-1.8 -0.7,-0.3 -1.3,-0.5 -1.8,-0.5 H 223 c -3.2,0 -9.8,2.8 -19.8,8.5 -9,5.2 -14.8,7.8 -17.3,7.8 h -0.3 c -3.4,0 -5.6,-1.9 -6.7,-5.6 -0.2,-1.1 -0.4,-2.2 -0.4,-3.1 v -0.5 c 0,-1.4 0.2,-3 0.6,-4.6 -4.3,3.9 -9,8.2 -14.3,13 -0.6,0.6 -0.9,0.8 -0.9,0.8 -1.7,0 -3.1,-0.5 -4.4,-1.5 -0.7,-0.8 -1.1,-1.7 -1.1,-2.6 v -0.6 c 0,-1.7 1.3,-5 4,-9.8 -4.1,3.8 -8.2,7.5 -12.4,11.2 -2.3,2.2 -3.6,3.3 -3.7,3.3 -1.3,0 -2.6,-0.4 -4,-1.1 -1.2,-0.8 -1.8,-1.9 -1.8,-3.2 v -0.4 c 0,-2.2 1.5,-5.8 4.4,-10.9 0.7,-1.2 1.4,-2.5 2.2,-3.9 -2.6,1.1 -4.9,2.2 -7,3.3 0.3,1.7 0.5,3.2 0.5,4.7 v 0.3 c 0,3.4 -0.9,6.4 -2.7,8.9 -1.5,1.6 -3.2,2.4 -5.3,2.4 h -0.4 c -1.9,0 -3.7,-0.7 -5.3,-2.2 -0.8,-0.9 -1.4,-1.8 -1.7,-2.6 -0.3,-0.9 -0.5,-1.8 -0.5,-2.5 v -0.4 c 0,-0.9 0.2,-1.9 0.6,-3 0,-0.1 0.1,-0.2 0.3,-0.4 2.5,-2 5,-3.8 7.5,-5.4 -2,-3.7 -3,-6 -3,-6.9 0,-0.2 0,-0.6 0,-1.1 0,-3 1.6,-6.3 4.8,-9.8 1.6,-1.6 2.8,-2.7 3.7,-3.2 1.7,-1.3 3.6,-2.5 5.6,-3.5 C 145.3,19.2 146.3,18.7 147.1,18.4 c 1.7,0.6 3.3,1.900002 4.6,4.000002 0.4,0.6 0.7,1.3 1,2.1 l 0.2,0.4 c -2.8,0.9 -5,1.8 -6.8,2.9 -4.9,2.8 -7.4,6.2 -7.4,10.2 0,0.9 0.1,1.8 0.4,2.8 4.9,-2.9 8.8,-4.9 11.6,-6 0.8,-1.5 1.7,-3 2.7,-4.7 1.6,-3 2.4,-4.9 2.5,-5.9 h 0.1 c 1.2,0.1 2.5,0.6 3.7,1.5 1,0.9 1.6,1.6 1.8,2 0.7,1.3 1.1,2.5 1.1,3.7 l -0.1,0.3 v 0.4 c -0.2,0.4 -1.6,2.9 -4.2,7.5 l -5.2,9.1 12.1,-11.1 c 0.7,-0.4 1.4,-0.6 1.8,-0.6 h 0.4 l 9,-16.4 h -0.1 c -2.4,0 -4.5,0.1 -6.4,0.2 -0.4,-0.2 -0.7,-0.5 -0.9,-0.9 -1,1.1 -2.2,2.2 -3.4,3.5 -2.1,-0.3 -3.9,-0.7 -5.4,-1.2 -0.5,-0.2 -1,-0.4 -1.6,-0.6 v -0.1 C 160.9,16.1 162.2,13 162.6,12.2 c 1.5,-0.2 2.9,-0.3 4.2,-0.3 h 1.2 c 2.7,0 5.3,0.3 7.8,0.8 v 0.1 c -0.4,0.4 -2.1,2.1 -4.9,5.1 l 7.3,-0.8 c 3,-5.5 4.5,-8.6 4.5,-9.3 1.2,0 2.5,0.6 4.1,1.8 1.5,1.5 2.3,3.3 2.3,5.4 0,0.4 -0.2,1 -0.6,1.6 1.2,-0.1 2,-0.1 2.6,-0.1 h 2.8 c 0.1,0 0.1,0.1 0.1,0.2 -1.2,2.8 -1.9,4.300002 -1.9,4.300002 H 192 c -1.7,-0.1 -3.5,-0.2 -5.6,-0.4 l -16,28.7 h 0.1 c 7.9,-7.4 12,-11.1 12.1,-11.2 0,0 0,0 0.1,0 0.7,-1.4 1.6,-2.9 2.5,-4.4 1.1,-1.6 2.6,-3.4 4.5,-5.4 2.2,-2.2 4,-3.6 5.4,-4.3 1.4,-0.9 3,-1.8 4.9,-2.5 0.2,-0.1 0.3,-0.1 0.4,-0.1 1.8,0 3.8,0.5 5.9,1.4 2.5,1.2 3.7,3 3.7,5.5 0,3.2 -2,6.9 -6,11.2 -2.3,2.2 -4.2,3.6 -5.5,4.3 -0.4,0.1 -0.7,0.1 -0.7,0.1 -1.2,0 -3.8,0 -7.8,0.1 -2.1,2.8 -3.5,6 -4.2,9.4 0,0.3 0.6,0.6 1.7,0.7 0,0.1 0.2,0.1 0.7,0.1 h 0.5 c 0.1,0 0.1,0 0.2,0 3.1,0 7.8,-2.7 13.8,-8.1 5.1,-4.6 8.7,-7.5 10.9,-8.8 2,-1.1 3.7,-1.7 5.1,-1.7 4.1,0 7,1.7 8.6,5 0.4,0.9 0.5,1.8 0.5,2.5 z m -35.5,-4.6 c 0.4,0 1.7,0 4.1,0.1 1.1,-0.2 2.2,-0.9 3.4,-2 2.1,-2.3 3.1,-4.6 3.1,-6.9 -0.1,-0.8 -0.3,-1.2 -0.7,-1.2 -2.8,0.8 -6.1,4.2 -9.9,10 z m -57.5,9.4 c -0.7,0.5 -1.6,1.3 -2.7,2.3 -0.6,0.6 -1,1.2 -1.4,1.8 1.5,-0.4 2.6,-1 3.4,-1.8 0.4,-0.5 0.6,-1 0.6,-1.7 v -0.6 z"
     inkscape:connector-curvature="0" /></clipPath><clipPath
   clipPathUnits="userSpaceOnUse"
   id="clipPath889"><path
     id="path891"
     d="m 79.7,29.100002 c -5.4,6.9 -12.2,14.7 -20.4,23.4 -7.1,7 -11.8,11.2 -13.8,12.6 -4.6,3.5 -7.9,5.3 -9.8,5.3 h -0.4 c -2.9,0 -4.8,-1 -5.6,-3 -0.1,-0.5 -0.2,-0.8 -0.2,-1 v -0.6 c 0,-2.2 1.8,-6.5 5.5,-12.8 l 7.8,-14.3 c -11.4,10.8 -19,18.3 -23,22.1 -1.8,0 -3.4,-0.6 -4.8,-1.8 -0.6,-0.7 -0.9,-1.7 -0.9,-2.9 0,-2.3 1.8,-6.5 5.4,-12.6 C 27.5,28.800002 32.9,18.8 35.8,13.4 h -0.2 c -5.9,0.7 -13,4.1 -21.1,10.000002 -1.4,0.9 -3.4,2.7 -6,5.5 v 0.1 c 0.5,1.3 1.3,2.2 2.5,2.9 1.5,0.5 3,0.7 4.5,0.7 0.2,0 0.6,0 0.9,0.1 0,0.9 -1.6,1.9 -4.8,3.1 -1.7,0.5 -3.1,0.7 -4.2,0.7 H 6.9 c -2.5,0 -4.2,-2.8 -4.9,-8.4 -0.1,-0.3 -0.1,-0.8 -0.1,-1.6 v -1.1 c 0,-2.5 0.9,-4.5 2.8,-5.900002 1.8,-1.7 4.1,-3.4 7,-5.1 C 15.7,12.1 21,9.9 27.5,7.8 32.3,6.6 36.1,6 39,6 c 1.5,0.2 2.9,0.8 4,1.8 1.7,1.6 2.6,3.6 2.6,5.9 0,0.3 -2.3,4.5 -6.9,12.600002 -0.8,1.5 -4.3,8 -10.6,19.4 v 0.1 c 7.8,-7.3 15.2,-14.3 22.1,-20.9 C 56,14 59.2,7.7 59.5,6.1 c 1.4,0.2 2.7,0.7 4,1.7 1.8,1.5 2.7,3.6 2.7,6.2 v 0.1 c -16.5,29.900002 -25,45.300002 -25.4,46.300002 1.8,-1.6 4.3,-4.2 7.7,-7.8 9.4,-10.6 18.4,-22 27.2,-34.000002 C 82,9.8 85.6,3.9 86.4,1 86.5,0.6 86.5,0.2 86.5,-0.1 v -0.1 c 0.1,-0.1 0.1,-0.1 0.2,-0.1 1.5,0.4 3.1,1.4 4.900002,3 1.8,2.3 2.8,4.1 2.8,5.3 C 91.500002,13.2 86.6,20.200002 79.7,29.100002 Z m 46.1,10.9 c -0.7,1.3 -1.2,2.3 -1.6,3 -0.6,1 -1.2,2.3 -2,3.8 l -2.1,3.7 c -1.8,3.2 -3.2,5.7 -4.1,7.6 -1.5,2.8 -4.1,3.4 -7.7,2 -1.5,-0.6 -2.8,-1.4 -4,-2.5 -1.2,-1.2 -2.1,-2.3 -2.5,-3.4 l -3.599998,6.6 c -4.5,-0.4 -6.3,-2.4 -5.6,-6 -1.1,0.8 -2.1,1.5 -3.000002,2.1 -3.6,2.1 -6.6,3.4 -8.7,3.7 -0.7,0.1 -1.3,0.2 -1.8,0.2 h -0.4 c -1.8,0 -3.4,-0.7 -4.7,-2 -1.4,-1.8 -2.1,-4.1 -2.1,-6.6 v -0.6 c 0,-3.1 1.1,-7 3.2,-11.5 3.5,-7.4 8.1,-12.8 13.8,-16.2 1,-0.6 2.000002,-1 3.000002,-1.5 0.9,-0.4 1.4,-0.6 1.6,-0.6 0.7,0 1.9,0.2 3.4,0.6 0.7,0.2 1.5,0.4 2.2,0.7 2.499998,1.2 3.799998,3 3.799998,5.4 v 0.4 c 0,1.6 -0.6,3.5 -1.9,5.7 -2.299998,3.7 -5.399998,6.8 -9.499998,9.4 l -8.300002,0.2 c -0.7,0.9 -1.2,1.7 -1.6,2.4 -1.5,2.7 -2.3,5 -2.6,6.9 0.1,0.3 0.4,0.5 0.9,0.5 H 80 c 1.4,0 3.9,-0.9 7.6,-2.6 2.6,-1.2 5.400002,-2.9 8.300002,-5.1 0.4,-0.3 0.8,-0.6 1.2,-0.9 0.6,-1.2 1.1,-2 1.4,-2.6 0.7,-1.4 2.199998,-4.1 4.499998,-8.3 l 0.7,-1.4 0.8,-1.4 1.6,-2.9 c 1.2,-2.3 2.3,-4.2 3.2,-5.9 C 114.7,13.1 117.3,7.8 117.2,7 c 2,0.2 3.6,1 4.8,2.6 1.3,1.5 1.8,3.2 1.7,5.2 l -11.9,21.500002 c 0.9,-0.8 2,-1.8 3.3,-3 l 1.7,-1.5 1.7,-1.6 c 2.6,-2.4 4.6,-4.2 6,-5.4 4.6,0.4 6.4,2.6 5.4,6.6 -0.4,1.5 -1.2,3.4 -2.4,5.7 l -0.8,1.5 z m -40.4,-1.2 4,0.2 c 0.900002,-0.3 1.700002,-0.7 2.400002,-1.2 0.3,-0.2 0.8,-0.6 1.5,-1.3 0.7,-0.8 1.2,-1.6 1.6,-2.4 0.7,-1.5 1.1,-2.8 1.1,-3.9 0,-0.7 -0.2,-1.1 -0.6,-1.3 h -0.2 c -0.8,0.1 -1.8,0.7 -3.1,1.8 -1.3,1.2 -2.200002,2.1 -2.900002,2.8 -1.5,1.9 -2.8,3.6 -3.8,5.3 z m 34.5,-2.9 -13.6,11.5 c -0.3,0.2 -0.6,0.4 -0.9,0.6 l -0.4,0.6 c 0.2,1.7 0.7,3 1.5,4 0.9,1 1.8,1.4 3,1.1 z m 107.9,7.2 v 0.6 c 0,1.2 -0.4,2.2 -1.1,3 h -0.1 c -0.2,-0.7 -0.6,-1.3 -1.2,-1.8 -0.7,-0.3 -1.3,-0.5 -1.8,-0.5 H 223 c -3.2,0 -9.8,2.8 -19.8,8.5 -9,5.2 -14.8,7.8 -17.3,7.8 h -0.3 c -3.4,0 -5.6,-1.9 -6.7,-5.6 -0.2,-1.1 -0.4,-2.2 -0.4,-3.1 v -0.5 c 0,-1.4 0.2,-3 0.6,-4.6 -4.3,3.9 -9,8.2 -14.3,13 -0.6,0.6 -0.9,0.8 -0.9,0.8 -1.7,0 -3.1,-0.5 -4.4,-1.5 -0.7,-0.8 -1.1,-1.7 -1.1,-2.6 v -0.6 c 0,-1.7 1.3,-5 4,-9.8 -4.1,3.8 -8.2,7.5 -12.4,11.2 -2.3,2.2 -3.6,3.3 -3.7,3.3 -1.3,0 -2.6,-0.4 -4,-1.1 -1.2,-0.8 -1.8,-1.9 -1.8,-3.2 v -0.4 c 0,-2.2 1.5,-5.8 4.4,-10.9 0.7,-1.2 1.4,-2.5 2.2,-3.9 -2.6,1.1 -4.9,2.2 -7,3.3 0.3,1.7 0.5,3.2 0.5,4.7 v 0.3 c 0,3.4 -0.9,6.4 -2.7,8.9 -1.5,1.6 -3.2,2.4 -5.3,2.4 h -0.4 c -1.9,0 -3.7,-0.7 -5.3,-2.2 -0.8,-0.9 -1.4,-1.8 -1.7,-2.6 -0.3,-0.9 -0.5,-1.8 -0.5,-2.5 v -0.4 c 0,-0.9 0.2,-1.9 0.6,-3 0,-0.1 0.1,-0.2 0.3,-0.4 2.5,-2 5,-3.8 7.5,-5.4 -2,-3.7 -3,-6 -3,-6.9 0,-0.2 0,-0.6 0,-1.1 0,-3 1.6,-6.3 4.8,-9.8 1.6,-1.6 2.8,-2.7 3.7,-3.2 1.7,-1.3 3.6,-2.5 5.6,-3.5 C 145.3,19.2 146.3,18.7 147.1,18.4 c 1.7,0.6 3.3,1.900002 4.6,4.000002 0.4,0.6 0.7,1.3 1,2.1 l 0.2,0.4 c -2.8,0.9 -5,1.8 -6.8,2.9 -4.9,2.8 -7.4,6.2 -7.4,10.2 0,0.9 0.1,1.8 0.4,2.8 4.9,-2.9 8.8,-4.9 11.6,-6 0.8,-1.5 1.7,-3 2.7,-4.7 1.6,-3 2.4,-4.9 2.5,-5.9 h 0.1 c 1.2,0.1 2.5,0.6 3.7,1.5 1,0.9 1.6,1.6 1.8,2 0.7,1.3 1.1,2.5 1.1,3.7 l -0.1,0.3 v 0.4 c -0.2,0.4 -1.6,2.9 -4.2,7.5 l -5.2,9.1 12.1,-11.1 c 0.7,-0.4 1.4,-0.6 1.8,-0.6 h 0.4 l 9,-16.4 h -0.1 c -2.4,0 -4.5,0.1 -6.4,0.2 -0.4,-0.2 -0.7,-0.5 -0.9,-0.9 -1,1.1 -2.2,2.2 -3.4,3.5 -2.1,-0.3 -3.9,-0.7 -5.4,-1.2 -0.5,-0.2 -1,-0.4 -1.6,-0.6 v -0.1 C 160.9,16.1 162.2,13 162.6,12.2 c 1.5,-0.2 2.9,-0.3 4.2,-0.3 h 1.2 c 2.7,0 5.3,0.3 7.8,0.8 v 0.1 c -0.4,0.4 -2.1,2.1 -4.9,5.1 l 7.3,-0.8 c 3,-5.5 4.5,-8.6 4.5,-9.3 1.2,0 2.5,0.6 4.1,1.8 1.5,1.5 2.3,3.3 2.3,5.4 0,0.4 -0.2,1 -0.6,1.6 1.2,-0.1 2,-0.1 2.6,-0.1 h 2.8 c 0.1,0 0.1,0.1 0.1,0.2 -1.2,2.8 -1.9,4.300002 -1.9,4.300002 H 192 c -1.7,-0.1 -3.5,-0.2 -5.6,-0.4 l -16,28.7 h 0.1 c 7.9,-7.4 12,-11.1 12.1,-11.2 0,0 0,0 0.1,0 0.7,-1.4 1.6,-2.9 2.5,-4.4 1.1,-1.6 2.6,-3.4 4.5,-5.4 2.2,-2.2 4,-3.6 5.4,-4.3 1.4,-0.9 3,-1.8 4.9,-2.5 0.2,-0.1 0.3,-0.1 0.4,-0.1 1.8,0 3.8,0.5 5.9,1.4 2.5,1.2 3.7,3 3.7,5.5 0,3.2 -2,6.9 -6,11.2 -2.3,2.2 -4.2,3.6 -5.5,4.3 -0.4,0.1 -0.7,0.1 -0.7,0.1 -1.2,0 -3.8,0 -7.8,0.1 -2.1,2.8 -3.5,6 -4.2,9.4 0,0.3 0.6,0.6 1.7,0.7 0,0.1 0.2,0.1 0.7,0.1 h 0.5 c 0.1,0 0.1,0 0.2,0 3.1,0 7.8,-2.7 13.8,-8.1 5.1,-4.6 8.7,-7.5 10.9,-8.8 2,-1.1 3.7,-1.7 5.1,-1.7 4.1,0 7,1.7 8.6,5 0.4,0.9 0.5,1.8 0.5,2.5 z m -35.5,-4.6 c 0.4,0 1.7,0 4.1,0.1 1.1,-0.2 2.2,-0.9 3.4,-2 2.1,-2.3 3.1,-4.6 3.1,-6.9 -0.1,-0.8 -0.3,-1.2 -0.7,-1.2 -2.8,0.8 -6.1,4.2 -9.9,10 z m -57.5,9.4 c -0.7,0.5 -1.6,1.3 -2.7,2.3 -0.6,0.6 -1,1.2 -1.4,1.8 1.5,-0.4 2.6,-1 3.4,-1.8 0.4,-0.5 0.6,-1 0.6,-1.7 v -0.6 z"
     inkscape:connector-curvature="0" /></clipPath><clipPath
   clipPathUnits="userSpaceOnUse"
   id="clipPath893"><path
     id="path895"
     d="m 79.7,29.100002 c -5.4,6.9 -12.2,14.7 -20.4,23.4 -7.1,7 -11.8,11.2 -13.8,12.6 -4.6,3.5 -7.9,5.3 -9.8,5.3 h -0.4 c -2.9,0 -4.8,-1 -5.6,-3 -0.1,-0.5 -0.2,-0.8 -0.2,-1 v -0.6 c 0,-2.2 1.8,-6.5 5.5,-12.8 l 7.8,-14.3 c -11.4,10.8 -19,18.3 -23,22.1 -1.8,0 -3.4,-0.6 -4.8,-1.8 -0.6,-0.7 -0.9,-1.7 -0.9,-2.9 0,-2.3 1.8,-6.5 5.4,-12.6 C 27.5,28.800002 32.9,18.8 35.8,13.4 h -0.2 c -5.9,0.7 -13,4.1 -21.1,10.000002 -1.4,0.9 -3.4,2.7 -6,5.5 v 0.1 c 0.5,1.3 1.3,2.2 2.5,2.9 1.5,0.5 3,0.7 4.5,0.7 0.2,0 0.6,0 0.9,0.1 0,0.9 -1.6,1.9 -4.8,3.1 -1.7,0.5 -3.1,0.7 -4.2,0.7 H 6.9 c -2.5,0 -4.2,-2.8 -4.9,-8.4 -0.1,-0.3 -0.1,-0.8 -0.1,-1.6 v -1.1 c 0,-2.5 0.9,-4.5 2.8,-5.900002 1.8,-1.7 4.1,-3.4 7,-5.1 C 15.7,12.1 21,9.9 27.5,7.8 32.3,6.6 36.1,6 39,6 c 1.5,0.2 2.9,0.8 4,1.8 1.7,1.6 2.6,3.6 2.6,5.9 0,0.3 -2.3,4.5 -6.9,12.600002 -0.8,1.5 -4.3,8 -10.6,19.4 v 0.1 c 7.8,-7.3 15.2,-14.3 22.1,-20.9 C 56,14 59.2,7.7 59.5,6.1 c 1.4,0.2 2.7,0.7 4,1.7 1.8,1.5 2.7,3.6 2.7,6.2 v 0.1 c -16.5,29.900002 -25,45.300002 -25.4,46.300002 1.8,-1.6 4.3,-4.2 7.7,-7.8 9.4,-10.6 18.4,-22 27.2,-34.000002 C 82,9.8 85.6,3.9 86.4,1 86.5,0.6 86.5,0.2 86.5,-0.1 v -0.1 c 0.1,-0.1 0.1,-0.1 0.2,-0.1 1.5,0.4 3.1,1.4 4.900002,3 1.8,2.3 2.8,4.1 2.8,5.3 C 91.500002,13.2 86.6,20.200002 79.7,29.100002 Z m 46.1,10.9 c -0.7,1.3 -1.2,2.3 -1.6,3 -0.6,1 -1.2,2.3 -2,3.8 l -2.1,3.7 c -1.8,3.2 -3.2,5.7 -4.1,7.6 -1.5,2.8 -4.1,3.4 -7.7,2 -1.5,-0.6 -2.8,-1.4 -4,-2.5 -1.2,-1.2 -2.1,-2.3 -2.5,-3.4 l -3.599998,6.6 c -4.5,-0.4 -6.3,-2.4 -5.6,-6 -1.1,0.8 -2.1,1.5 -3.000002,2.1 -3.6,2.1 -6.6,3.4 -8.7,3.7 -0.7,0.1 -1.3,0.2 -1.8,0.2 h -0.4 c -1.8,0 -3.4,-0.7 -4.7,-2 -1.4,-1.8 -2.1,-4.1 -2.1,-6.6 v -0.6 c 0,-3.1 1.1,-7 3.2,-11.5 3.5,-7.4 8.1,-12.8 13.8,-16.2 1,-0.6 2.000002,-1 3.000002,-1.5 0.9,-0.4 1.4,-0.6 1.6,-0.6 0.7,0 1.9,0.2 3.4,0.6 0.7,0.2 1.5,0.4 2.2,0.7 2.499998,1.2 3.799998,3 3.799998,5.4 v 0.4 c 0,1.6 -0.6,3.5 -1.9,5.7 -2.299998,3.7 -5.399998,6.8 -9.499998,9.4 l -8.300002,0.2 c -0.7,0.9 -1.2,1.7 -1.6,2.4 -1.5,2.7 -2.3,5 -2.6,6.9 0.1,0.3 0.4,0.5 0.9,0.5 H 80 c 1.4,0 3.9,-0.9 7.6,-2.6 2.6,-1.2 5.400002,-2.9 8.300002,-5.1 0.4,-0.3 0.8,-0.6 1.2,-0.9 0.6,-1.2 1.1,-2 1.4,-2.6 0.7,-1.4 2.199998,-4.1 4.499998,-8.3 l 0.7,-1.4 0.8,-1.4 1.6,-2.9 c 1.2,-2.3 2.3,-4.2 3.2,-5.9 C 114.7,13.1 117.3,7.8 117.2,7 c 2,0.2 3.6,1 4.8,2.6 1.3,1.5 1.8,3.2 1.7,5.2 l -11.9,21.500002 c 0.9,-0.8 2,-1.8 3.3,-3 l 1.7,-1.5 1.7,-1.6 c 2.6,-2.4 4.6,-4.2 6,-5.4 4.6,0.4 6.4,2.6 5.4,6.6 -0.4,1.5 -1.2,3.4 -2.4,5.7 l -0.8,1.5 z m -40.4,-1.2 4,0.2 c 0.900002,-0.3 1.700002,-0.7 2.400002,-1.2 0.3,-0.2 0.8,-0.6 1.5,-1.3 0.7,-0.8 1.2,-1.6 1.6,-2.4 0.7,-1.5 1.1,-2.8 1.1,-3.9 0,-0.7 -0.2,-1.1 -0.6,-1.3 h -0.2 c -0.8,0.1 -1.8,0.7 -3.1,1.8 -1.3,1.2 -2.200002,2.1 -2.900002,2.8 -1.5,1.9 -2.8,3.6 -3.8,5.3 z m 34.5,-2.9 -13.6,11.5 c -0.3,0.2 -0.6,0.4 -0.9,0.6 l -0.4,0.6 c 0.2,1.7 0.7,3 1.5,4 0.9,1 1.8,1.4 3,1.1 z m 107.9,7.2 v 0.6 c 0,1.2 -0.4,2.2 -1.1,3 h -0.1 c -0.2,-0.7 -0.6,-1.3 -1.2,-1.8 -0.7,-0.3 -1.3,-0.5 -1.8,-0.5 H 223 c -3.2,0 -9.8,2.8 -19.8,8.5 -9,5.2 -14.8,7.8 -17.3,7.8 h -0.3 c -3.4,0 -5.6,-1.9 -6.7,-5.6 -0.2,-1.1 -0.4,-2.2 -0.4,-3.1 v -0.5 c 0,-1.4 0.2,-3 0.6,-4.6 -4.3,3.9 -9,8.2 -14.3,13 -0.6,0.6 -0.9,0.8 -0.9,0.8 -1.7,0 -3.1,-0.5 -4.4,-1.5 -0.7,-0.8 -1.1,-1.7 -1.1,-2.6 v -0.6 c 0,-1.7 1.3,-5 4,-9.8 -4.1,3.8 -8.2,7.5 -12.4,11.2 -2.3,2.2 -3.6,3.3 -3.7,3.3 -1.3,0 -2.6,-0.4 -4,-1.1 -1.2,-0.8 -1.8,-1.9 -1.8,-3.2 v -0.4 c 0,-2.2 1.5,-5.8 4.4,-10.9 0.7,-1.2 1.4,-2.5 2.2,-3.9 -2.6,1.1 -4.9,2.2 -7,3.3 0.3,1.7 0.5,3.2 0.5,4.7 v 0.3 c 0,3.4 -0.9,6.4 -2.7,8.9 -1.5,1.6 -3.2,2.4 -5.3,2.4 h -0.4 c -1.9,0 -3.7,-0.7 -5.3,-2.2 -0.8,-0.9 -1.4,-1.8 -1.7,-2.6 -0.3,-0.9 -0.5,-1.8 -0.5,-2.5 v -0.4 c 0,-0.9 0.2,-1.9 0.6,-3 0,-0.1 0.1,-0.2 0.3,-0.4 2.5,-2 5,-3.8 7.5,-5.4 -2,-3.7 -3,-6 -3,-6.9 0,-0.2 0,-0.6 0,-1.1 0,-3 1.6,-6.3 4.8,-9.8 1.6,-1.6 2.8,-2.7 3.7,-3.2 1.7,-1.3 3.6,-2.5 5.6,-3.5 C 145.3,19.2 146.3,18.7 147.1,18.4 c 1.7,0.6 3.3,1.900002 4.6,4.000002 0.4,0.6 0.7,1.3 1,2.1 l 0.2,0.4 c -2.8,0.9 -5,1.8 -6.8,2.9 -4.9,2.8 -7.4,6.2 -7.4,10.2 0,0.9 0.1,1.8 0.4,2.8 4.9,-2.9 8.8,-4.9 11.6,-6 0.8,-1.5 1.7,-3 2.7,-4.7 1.6,-3 2.4,-4.9 2.5,-5.9 h 0.1 c 1.2,0.1 2.5,0.6 3.7,1.5 1,0.9 1.6,1.6 1.8,2 0.7,1.3 1.1,2.5 1.1,3.7 l -0.1,0.3 v 0.4 c -0.2,0.4 -1.6,2.9 -4.2,7.5 l -5.2,9.1 12.1,-11.1 c 0.7,-0.4 1.4,-0.6 1.8,-0.6 h 0.4 l 9,-16.4 h -0.1 c -2.4,0 -4.5,0.1 -6.4,0.2 -0.4,-0.2 -0.7,-0.5 -0.9,-0.9 -1,1.1 -2.2,2.2 -3.4,3.5 -2.1,-0.3 -3.9,-0.7 -5.4,-1.2 -0.5,-0.2 -1,-0.4 -1.6,-0.6 v -0.1 C 160.9,16.1 162.2,13 162.6,12.2 c 1.5,-0.2 2.9,-0.3 4.2,-0.3 h 1.2 c 2.7,0 5.3,0.3 7.8,0.8 v 0.1 c -0.4,0.4 -2.1,2.1 -4.9,5.1 l 7.3,-0.8 c 3,-5.5 4.5,-8.6 4.5,-9.3 1.2,0 2.5,0.6 4.1,1.8 1.5,1.5 2.3,3.3 2.3,5.4 0,0.4 -0.2,1 -0.6,1.6 1.2,-0.1 2,-0.1 2.6,-0.1 h 2.8 c 0.1,0 0.1,0.1 0.1,0.2 -1.2,2.8 -1.9,4.300002 -1.9,4.300002 H 192 c -1.7,-0.1 -3.5,-0.2 -5.6,-0.4 l -16,28.7 h 0.1 c 7.9,-7.4 12,-11.1 12.1,-11.2 0,0 0,0 0.1,0 0.7,-1.4 1.6,-2.9 2.5,-4.4 1.1,-1.6 2.6,-3.4 4.5,-5.4 2.2,-2.2 4,-3.6 5.4,-4.3 1.4,-0.9 3,-1.8 4.9,-2.5 0.2,-0.1 0.3,-0.1 0.4,-0.1 1.8,0 3.8,0.5 5.9,1.4 2.5,1.2 3.7,3 3.7,5.5 0,3.2 -2,6.9 -6,11.2 -2.3,2.2 -4.2,3.6 -5.5,4.3 -0.4,0.1 -0.7,0.1 -0.7,0.1 -1.2,0 -3.8,0 -7.8,0.1 -2.1,2.8 -3.5,6 -4.2,9.4 0,0.3 0.6,0.6 1.7,0.7 0,0.1 0.2,0.1 0.7,0.1 h 0.5 c 0.1,0 0.1,0 0.2,0 3.1,0 7.8,-2.7 13.8,-8.1 5.1,-4.6 8.7,-7.5 10.9,-8.8 2,-1.1 3.7,-1.7 5.1,-1.7 4.1,0 7,1.7 8.6,5 0.4,0.9 0.5,1.8 0.5,2.5 z m -35.5,-4.6 c 0.4,0 1.7,0 4.1,0.1 1.1,-0.2 2.2,-0.9 3.4,-2 2.1,-2.3 3.1,-4.6 3.1,-6.9 -0.1,-0.8 -0.3,-1.2 -0.7,-1.2 -2.8,0.8 -6.1,4.2 -9.9,10 z m -57.5,9.4 c -0.7,0.5 -1.6,1.3 -2.7,2.3 -0.6,0.6 -1,1.2 -1.4,1.8 1.5,-0.4 2.6,-1 3.4,-1.8 0.4,-0.5 0.6,-1 0.6,-1.7 v -0.6 z"
     inkscape:connector-curvature="0" /></clipPath></defs>
            
            
            
            
        <path
   transform="translate(-1.9,0.3)"
   inkscape:connector-curvature="0"
   style="fill:none;stroke:#ff0000;stroke-width:15"
   class="path"
   clip-path="url(#clipPath893)"
   d="m 18.5,33.91 c 0,0 -18.5,2.76 -11.83,-9.74 8,-8.34 22.15,-15.46 31.31,-13.62 8.34,1 -0.95,9.34 -8.81,24.5 C 23.34,46.29 15.08,55.23 18.5,57 20.17,57.86 30.5,48.7 39.83,37 49.55,24.8 58.23,9.57 61.17,9.5 67.83,9.33 49.88,35.43 40.83,52 36.69,59.59 30.17,66.17 34.17,67.5 38,68.77 49.17,64 83,15.67 84.59,13.4 90,5.18 91.6,2.67"
   id="path7-7" /><path
   transform="translate(-1.9,0.3)"
   inkscape:connector-curvature="0"
   style="fill:none;stroke:#0000ff;stroke-width:9"
   class="path"
   clip-path="url(#clipPath889)"
   d="m 85.4,41.5 c 0,0 18.1,-5.6 13.35,-15.75 -2.89,-6.18 -9,0.9 -15.5,8.2 0,0 -25.5,39.2 14.25,16 0,0 24.37,-22.26 28.5,-21.05 1.62,1.09 -4.14,11 -8,19 -2.71,5.63 -3,10.83 -5.55,9.39 -24,0.28 15.13,-45.9 9.21,-48.09 C 115.74,7.01 94.4,63 94.4,63"
   id="path9-5" /><path
   transform="translate(-1.9,0.3)"
   inkscape:connector-curvature="0"
   style="fill:none;stroke:#800080;stroke-width:10"
   class="path"
   clip-path="url(#clipPath885)"
   d="m 150.24,20.5 c 0,0 -12.24,6.25 -14.24,11.25 -2,5 -4.07,5 0.43,13.1 A 9.25,9.25 0 0 1 136.25,52 c -1.75,3.5 -2,9.75 -7.75,5.75 -5.75,-4 5.74,-15.75 21.74,-20.25 0,0 4.41,-4.3 8.51,-8.6 4.1,-4.3 -17.5,26 -15.88,31.9 L 173.5,35.19 186.15,9.13 c 0,0 -28,50.42 -25.1,51 2.9,0.58 17.7,-22.13 34.45,-19.13 0,0 20.9,-14.33 5,-15.75 0,0 -26.5,15.25 -17,31.25 0,0 8.5,3 18,-4.5 9.5,-7.5 22.5,-21.2 24.75,-4.1"
   id="path11-3" /><path
   transform="translate(-1.9,0.3)"
   inkscape:connector-curvature="0"
   style="fill:none;stroke:#ffff00;stroke-width:13"
   class="path"
   clip-path="url(#clipPath881)"
   d="m 171,9.13 c 0,0 -11.33,10.38 -8,11.92 3.33,1.54 43,-2.8 43,-2.8"
   id="path13-5" /></svg>