<?xml version="1.0" encoding="UTF-8" standalone="no"?>
<svg
   xmlns:dc="http://purl.org/dc/elements/1.1/"
   xmlns:cc="http://creativecommons.org/ns#"
   xmlns:rdf="http://www.w3.org/1999/02/22-rdf-syntax-ns#"
   xmlns:svg="http://www.w3.org/2000/svg"
   xmlns="http://www.w3.org/2000/svg"
   xmlns:sodipodi="http://sodipodi.sourceforge.net/DTD/sodipodi-0.dtd"
   xmlns:inkscape="http://www.inkscape.org/namespaces/inkscape"
   height="148.40625"
   width="421.16718"
   id="svg15"
   xml:space="preserve"
   viewBox="0 0 421.16718 148.40625"
   class="subtitle"
   version="1.1"
   sodipodi:docname="trance.svg"
   inkscape:version="0.92.3 (2405546, 2018-03-11)"><sodipodi:namedview
   pagecolor="#ffffff"
   bordercolor="#666666"
   borderopacity="1"
   objecttolerance="10"
   gridtolerance="10"
   guidetolerance="10"
   inkscape:pageopacity="0"
   inkscape:pageshadow="2"
   inkscape:window-width="1366"
   inkscape:window-height="670"
   id="namedview28"
   showgrid="false"
   inkscape:zoom="1.13969"
   inkscape:cx="210.58359"
   inkscape:cy="74.203125"
   inkscape:window-x="0"
   inkscape:window-y="27"
   inkscape:window-maximized="1"
   inkscape:current-layer="svg15" /><metadata
   id="metadata19"><rdf:RDF><cc:Work
       rdf:about=""><dc:format>image/svg+xml</dc:format><dc:type
         rdf:resource="http://purl.org/dc/dcmitype/StillImage" /><dc:title /></cc:Work></rdf:RDF></metadata>
            <defs
   id="defs5">
                <clipPath
   id="websiteClip">
                    <path
   id="path2"
   d="M 79.7,29.1 C 74.3,36 67.5,43.8 59.3,52.5 c -7.1,7 -11.8,11.2 -13.8,12.6 -4.6,3.5 -7.9,5.3 -9.8,5.3 h -0.4 c -2.9,0 -4.8,-1 -5.6,-3 -0.1,-0.5 -0.2,-0.8 -0.2,-1 V 65.8 C 29.5,63.6 31.3,59.3 35,53 L 42.8,38.7 C 31.4,49.5 23.8,57 19.8,60.8 18,60.8 16.4,60.2 15,59 c -0.6,-0.7 -0.9,-1.7 -0.9,-2.9 0,-2.3 1.8,-6.5 5.4,-12.6 8,-14.7 13.4,-24.7 16.3,-30.1 h -0.2 c -5.9,0.7 -13,4.1 -21.1,10 -1.4,0.9 -3.4,2.7 -6,5.5 V 29 c 0.5,1.3 1.3,2.2 2.5,2.9 1.5,0.5 3,0.7 4.5,0.7 0.2,0 0.6,0 0.9,0.1 0,0.9 -1.6,1.9 -4.8,3.1 -1.7,0.5 -3.1,0.7 -4.2,0.7 H 6.9 C 4.4,36.5 2.7,33.7 2,28.1 1.9,27.8 1.9,27.3 1.9,26.5 v -1.1 c 0,-2.5 0.9,-4.5 2.8,-5.9 1.8,-1.7 4.1,-3.4 7,-5.1 C 15.7,12.1 21,9.9 27.5,7.8 32.3,6.6 36.1,6 39,6 c 1.5,0.2 2.9,0.8 4,1.8 1.7,1.6 2.6,3.6 2.6,5.9 0,0.3 -2.3,4.5 -6.9,12.6 -0.8,1.5 -4.3,8 -10.6,19.4 v 0.1 C 35.9,38.5 43.3,31.5 50.2,24.9 56,14 59.2,7.7 59.5,6.1 c 1.4,0.2 2.7,0.7 4,1.7 1.8,1.5 2.7,3.6 2.7,6.2 v 0.1 C 49.7,44 41.2,59.4 40.8,60.4 42.6,58.8 45.1,56.2 48.5,52.6 57.9,42 66.9,30.6 75.7,18.6 82,9.8 85.6,3.9 86.4,1 86.5,0.6 86.5,0.2 86.5,-0.1 v -0.1 c 0.1,-0.1 0.1,-0.1 0.2,-0.1 1.5,0.4 3.1,1.4 4.9,3 1.8,2.3 2.8,4.1 2.8,5.3 -2.9,5.2 -7.8,12.2 -14.7,21.1 z M 125.8,40 c -0.7,1.3 -1.2,2.3 -1.6,3 -0.6,1 -1.2,2.3 -2,3.8 l -2.1,3.7 c -1.8,3.2 -3.2,5.7 -4.1,7.6 -1.5,2.8 -4.1,3.4 -7.7,2 -1.5,-0.6 -2.8,-1.4 -4,-2.5 -1.2,-1.2 -2.1,-2.3 -2.5,-3.4 l -3.6,6.6 c -4.5,-0.4 -6.3,-2.4 -5.6,-6 -1.1,0.8 -2.1,1.5 -3,2.1 -3.6,2.1 -6.6,3.4 -8.7,3.7 -0.7,0.1 -1.3,0.2 -1.8,0.2 h -0.4 c -1.8,0 -3.4,-0.7 -4.7,-2 -1.4,-1.8 -2.1,-4.1 -2.1,-6.6 v -0.6 c 0,-3.1 1.1,-7 3.2,-11.5 3.5,-7.4 8.1,-12.8 13.8,-16.2 1,-0.6 2,-1 3,-1.5 0.9,-0.4 1.4,-0.6 1.6,-0.6 0.7,0 1.9,0.2 3.4,0.6 0.7,0.2 1.5,0.4 2.2,0.7 2.5,1.2 3.8,3 3.8,5.4 v 0.4 c 0,1.6 -0.6,3.5 -1.9,5.7 -2.3,3.7 -5.4,6.8 -9.5,9.4 l -8.3,0.2 c -0.7,0.9 -1.2,1.7 -1.6,2.4 -1.5,2.7 -2.3,5 -2.6,6.9 0.1,0.3 0.4,0.5 0.9,0.5 H 80 c 1.4,0 3.9,-0.9 7.6,-2.6 2.6,-1.2 5.4,-2.9 8.3,-5.1 0.4,-0.3 0.8,-0.6 1.2,-0.9 0.6,-1.2 1.1,-2 1.4,-2.6 0.7,-1.4 2.2,-4.1 4.5,-8.3 l 0.7,-1.4 0.8,-1.4 1.6,-2.9 c 1.2,-2.3 2.3,-4.2 3.2,-5.9 5.4,-9.8 8,-15.1 7.9,-15.9 2,0.2 3.6,1 4.8,2.6 1.3,1.5 1.8,3.2 1.7,5.2 l -11.9,21.5 c 0.9,-0.8 2,-1.8 3.3,-3 l 1.7,-1.5 1.7,-1.6 c 2.6,-2.4 4.6,-4.2 6,-5.4 4.6,0.4 6.4,2.6 5.4,6.6 -0.4,1.5 -1.2,3.4 -2.4,5.7 l -0.8,1.5 z m -40.4,-1.2 4,0.2 c 0.9,-0.3 1.7,-0.7 2.4,-1.2 0.3,-0.2 0.8,-0.6 1.5,-1.3 0.7,-0.8 1.2,-1.6 1.6,-2.4 0.7,-1.5 1.1,-2.8 1.1,-3.9 0,-0.7 -0.2,-1.1 -0.6,-1.3 h -0.2 c -0.8,0.1 -1.8,0.7 -3.1,1.8 -1.3,1.2 -2.2,2.1 -2.9,2.8 -1.5,1.9 -2.8,3.6 -3.8,5.3 z m 34.5,-2.9 -13.6,11.5 c -0.3,0.2 -0.6,0.4 -0.9,0.6 l -0.4,0.6 c 0.2,1.7 0.7,3 1.5,4 0.9,1 1.8,1.4 3,1.1 z m 107.9,7.2 v 0.6 c 0,1.2 -0.4,2.2 -1.1,3 h -0.1 c -0.2,-0.7 -0.6,-1.3 -1.2,-1.8 -0.7,-0.3 -1.3,-0.5 -1.8,-0.5 H 223 c -3.2,0 -9.8,2.8 -19.8,8.5 -9,5.2 -14.8,7.8 -17.3,7.8 h -0.3 c -3.4,0 -5.6,-1.9 -6.7,-5.6 -0.2,-1.1 -0.4,-2.2 -0.4,-3.1 v -0.5 c 0,-1.4 0.2,-3 0.6,-4.6 -4.3,3.9 -9,8.2 -14.3,13 -0.6,0.6 -0.9,0.8 -0.9,0.8 -1.7,0 -3.1,-0.5 -4.4,-1.5 -0.7,-0.8 -1.1,-1.7 -1.1,-2.6 V 56 c 0,-1.7 1.3,-5 4,-9.8 -4.1,3.8 -8.2,7.5 -12.4,11.2 -2.3,2.2 -3.6,3.3 -3.7,3.3 -1.3,0 -2.6,-0.4 -4,-1.1 -1.2,-0.8 -1.8,-1.9 -1.8,-3.2 V 56 c 0,-2.2 1.5,-5.8 4.4,-10.9 0.7,-1.2 1.4,-2.5 2.2,-3.9 -2.6,1.1 -4.9,2.2 -7,3.3 0.3,1.7 0.5,3.2 0.5,4.7 v 0.3 c 0,3.4 -0.9,6.4 -2.7,8.9 -1.5,1.6 -3.2,2.4 -5.3,2.4 h -0.4 c -1.9,0 -3.7,-0.7 -5.3,-2.2 -0.8,-0.9 -1.4,-1.8 -1.7,-2.6 -0.3,-0.9 -0.5,-1.8 -0.5,-2.5 v -0.4 c 0,-0.9 0.2,-1.9 0.6,-3 0,-0.1 0.1,-0.2 0.3,-0.4 2.5,-2 5,-3.8 7.5,-5.4 -2,-3.7 -3,-6 -3,-6.9 0,-0.2 0,-0.6 0,-1.1 0,-3 1.6,-6.3 4.8,-9.8 1.6,-1.6 2.8,-2.7 3.7,-3.2 1.7,-1.3 3.6,-2.5 5.6,-3.5 1.1,-0.6 2.1,-1.1 2.9,-1.4 1.7,0.6 3.3,1.9 4.6,4 0.4,0.6 0.7,1.3 1,2.1 l 0.2,0.4 c -2.8,0.9 -5,1.8 -6.8,2.9 -4.9,2.8 -7.4,6.2 -7.4,10.2 0,0.9 0.1,1.8 0.4,2.8 4.9,-2.9 8.8,-4.9 11.6,-6 0.8,-1.5 1.7,-3 2.7,-4.7 1.6,-3 2.4,-4.9 2.5,-5.9 h 0.1 c 1.2,0.1 2.5,0.6 3.7,1.5 1,0.9 1.6,1.6 1.8,2 0.7,1.3 1.1,2.5 1.1,3.7 l -0.1,0.3 v 0.4 c -0.2,0.4 -1.6,2.9 -4.2,7.5 l -5.2,9.1 12.1,-11.1 c 0.7,-0.4 1.4,-0.6 1.8,-0.6 h 0.4 l 9,-16.4 h -0.1 c -2.4,0 -4.5,0.1 -6.4,0.2 -0.4,-0.2 -0.7,-0.5 -0.9,-0.9 -1,1.1 -2.2,2.2 -3.4,3.5 -2.1,-0.3 -3.9,-0.7 -5.4,-1.2 -0.5,-0.2 -1,-0.4 -1.6,-0.6 v -0.1 c 2.3,-5.4 3.6,-8.5 4,-9.3 1.5,-0.2 2.9,-0.3 4.2,-0.3 h 1.2 c 2.7,0 5.3,0.3 7.8,0.8 v 0.1 c -0.4,0.4 -2.1,2.1 -4.9,5.1 l 7.3,-0.8 c 3,-5.5 4.5,-8.6 4.5,-9.3 1.2,0 2.5,0.6 4.1,1.8 1.5,1.5 2.3,3.3 2.3,5.4 0,0.4 -0.2,1 -0.6,1.6 1.2,-0.1 2,-0.1 2.6,-0.1 h 2.8 c 0.1,0 0.1,0.1 0.1,0.2 -1.2,2.8 -1.9,4.3 -1.9,4.3 H 192 c -1.7,-0.1 -3.5,-0.2 -5.6,-0.4 l -16,28.7 h 0.1 c 7.9,-7.4 12,-11.1 12.1,-11.2 0,0 0,0 0.1,0 0.7,-1.4 1.6,-2.9 2.5,-4.4 1.1,-1.6 2.6,-3.4 4.5,-5.4 2.2,-2.2 4,-3.6 5.4,-4.3 1.4,-0.9 3,-1.8 4.9,-2.5 0.2,-0.1 0.3,-0.1 0.4,-0.1 1.8,0 3.8,0.5 5.9,1.4 2.5,1.2 3.7,3 3.7,5.5 0,3.2 -2,6.9 -6,11.2 -2.3,2.2 -4.2,3.6 -5.5,4.3 -0.4,0.1 -0.7,0.1 -0.7,0.1 -1.2,0 -3.8,0 -7.8,0.1 -2.1,2.8 -3.5,6 -4.2,9.4 0,0.3 0.6,0.6 1.7,0.7 0,0.1 0.2,0.1 0.7,0.1 h 0.5 c 0.1,0 0.1,0 0.2,0 3.1,0 7.8,-2.7 13.8,-8.1 5.1,-4.6 8.7,-7.5 10.9,-8.8 2,-1.1 3.7,-1.7 5.1,-1.7 4.1,0 7,1.7 8.6,5 0.4,0.9 0.5,1.8 0.5,2.5 z m -35.5,-4.6 c 0.4,0 1.7,0 4.1,0.1 1.1,-0.2 2.2,-0.9 3.4,-2 2.1,-2.3 3.1,-4.6 3.1,-6.9 -0.1,-0.8 -0.3,-1.2 -0.7,-1.2 -2.8,0.8 -6.1,4.2 -9.9,10 z m -57.5,9.4 c -0.7,0.5 -1.6,1.3 -2.7,2.3 -0.6,0.6 -1,1.2 -1.4,1.8 1.5,-0.4 2.6,-1 3.4,-1.8 0.4,-0.5 0.6,-1 0.6,-1.7 v -0.6 z" />
                </clipPath>
            <clipPath
   id="websiteClip-3"><path
     id="path2-6"
     d="M 79.7,29.1 C 74.3,36 67.5,43.8 59.3,52.5 c -7.1,7 -11.8,11.2 -13.8,12.6 -4.6,3.5 -7.9,5.3 -9.8,5.3 h -0.4 c -2.9,0 -4.8,-1 -5.6,-3 -0.1,-0.5 -0.2,-0.8 -0.2,-1 V 65.8 C 29.5,63.6 31.3,59.3 35,53 L 42.8,38.7 C 31.4,49.5 23.8,57 19.8,60.8 18,60.8 16.4,60.2 15,59 c -0.6,-0.7 -0.9,-1.7 -0.9,-2.9 0,-2.3 1.8,-6.5 5.4,-12.6 8,-14.7 13.4,-24.7 16.3,-30.1 h -0.2 c -5.9,0.7 -13,4.1 -21.1,10 -1.4,0.9 -3.4,2.7 -6,5.5 V 29 c 0.5,1.3 1.3,2.2 2.5,2.9 1.5,0.5 3,0.7 4.5,0.7 0.2,0 0.6,0 0.9,0.1 0,0.9 -1.6,1.9 -4.8,3.1 -1.7,0.5 -3.1,0.7 -4.2,0.7 H 6.9 C 4.4,36.5 2.7,33.7 2,28.1 1.9,27.8 1.9,27.3 1.9,26.5 v -1.1 c 0,-2.5 0.9,-4.5 2.8,-5.9 1.8,-1.7 4.1,-3.4 7,-5.1 C 15.7,12.1 21,9.9 27.5,7.8 32.3,6.6 36.1,6 39,6 c 1.5,0.2 2.9,0.8 4,1.8 1.7,1.6 2.6,3.6 2.6,5.9 0,0.3 -2.3,4.5 -6.9,12.6 -0.8,1.5 -4.3,8 -10.6,19.4 v 0.1 C 35.9,38.5 43.3,31.5 50.2,24.9 56,14 59.2,7.7 59.5,6.1 c 1.4,0.2 2.7,0.7 4,1.7 1.8,1.5 2.7,3.6 2.7,6.2 v 0.1 C 49.7,44 41.2,59.4 40.8,60.4 42.6,58.8 45.1,56.2 48.5,52.6 57.9,42 66.9,30.6 75.7,18.6 82,9.8 85.6,3.9 86.4,1 86.5,0.6 86.5,0.2 86.5,-0.1 v -0.1 c 0.1,-0.1 0.1,-0.1 0.2,-0.1 1.5,0.4 3.1,1.4 4.9,3 1.8,2.3 2.8,4.1 2.8,5.3 -2.9,5.2 -7.8,12.2 -14.7,21.1 z M 125.8,40 c -0.7,1.3 -1.2,2.3 -1.6,3 -0.6,1 -1.2,2.3 -2,3.8 l -2.1,3.7 c -1.8,3.2 -3.2,5.7 -4.1,7.6 -1.5,2.8 -4.1,3.4 -7.7,2 -1.5,-0.6 -2.8,-1.4 -4,-2.5 -1.2,-1.2 -2.1,-2.3 -2.5,-3.4 l -3.6,6.6 c -4.5,-0.4 -6.3,-2.4 -5.6,-6 -1.1,0.8 -2.1,1.5 -3,2.1 -3.6,2.1 -6.6,3.4 -8.7,3.7 -0.7,0.1 -1.3,0.2 -1.8,0.2 h -0.4 c -1.8,0 -3.4,-0.7 -4.7,-2 -1.4,-1.8 -2.1,-4.1 -2.1,-6.6 v -0.6 c 0,-3.1 1.1,-7 3.2,-11.5 3.5,-7.4 8.1,-12.8 13.8,-16.2 1,-0.6 2,-1 3,-1.5 0.9,-0.4 1.4,-0.6 1.6,-0.6 0.7,0 1.9,0.2 3.4,0.6 0.7,0.2 1.5,0.4 2.2,0.7 2.5,1.2 3.8,3 3.8,5.4 v 0.4 c 0,1.6 -0.6,3.5 -1.9,5.7 -2.3,3.7 -5.4,6.8 -9.5,9.4 l -8.3,0.2 c -0.7,0.9 -1.2,1.7 -1.6,2.4 -1.5,2.7 -2.3,5 -2.6,6.9 0.1,0.3 0.4,0.5 0.9,0.5 H 80 c 1.4,0 3.9,-0.9 7.6,-2.6 2.6,-1.2 5.4,-2.9 8.3,-5.1 0.4,-0.3 0.8,-0.6 1.2,-0.9 0.6,-1.2 1.1,-2 1.4,-2.6 0.7,-1.4 2.2,-4.1 4.5,-8.3 l 0.7,-1.4 0.8,-1.4 1.6,-2.9 c 1.2,-2.3 2.3,-4.2 3.2,-5.9 5.4,-9.8 8,-15.1 7.9,-15.9 2,0.2 3.6,1 4.8,2.6 1.3,1.5 1.8,3.2 1.7,5.2 l -11.9,21.5 c 0.9,-0.8 2,-1.8 3.3,-3 l 1.7,-1.5 1.7,-1.6 c 2.6,-2.4 4.6,-4.2 6,-5.4 4.6,0.4 6.4,2.6 5.4,6.6 -0.4,1.5 -1.2,3.4 -2.4,5.7 l -0.8,1.5 z m -40.4,-1.2 4,0.2 c 0.9,-0.3 1.7,-0.7 2.4,-1.2 0.3,-0.2 0.8,-0.6 1.5,-1.3 0.7,-0.8 1.2,-1.6 1.6,-2.4 0.7,-1.5 1.1,-2.8 1.1,-3.9 0,-0.7 -0.2,-1.1 -0.6,-1.3 h -0.2 c -0.8,0.1 -1.8,0.7 -3.1,1.8 -1.3,1.2 -2.2,2.1 -2.9,2.8 -1.5,1.9 -2.8,3.6 -3.8,5.3 z m 34.5,-2.9 -13.6,11.5 c -0.3,0.2 -0.6,0.4 -0.9,0.6 l -0.4,0.6 c 0.2,1.7 0.7,3 1.5,4 0.9,1 1.8,1.4 3,1.1 z m 107.9,7.2 v 0.6 c 0,1.2 -0.4,2.2 -1.1,3 h -0.1 c -0.2,-0.7 -0.6,-1.3 -1.2,-1.8 -0.7,-0.3 -1.3,-0.5 -1.8,-0.5 H 223 c -3.2,0 -9.8,2.8 -19.8,8.5 -9,5.2 -14.8,7.8 -17.3,7.8 h -0.3 c -3.4,0 -5.6,-1.9 -6.7,-5.6 -0.2,-1.1 -0.4,-2.2 -0.4,-3.1 v -0.5 c 0,-1.4 0.2,-3 0.6,-4.6 -4.3,3.9 -9,8.2 -14.3,13 -0.6,0.6 -0.9,0.8 -0.9,0.8 -1.7,0 -3.1,-0.5 -4.4,-1.5 -0.7,-0.8 -1.1,-1.7 -1.1,-2.6 V 56 c 0,-1.7 1.3,-5 4,-9.8 -4.1,3.8 -8.2,7.5 -12.4,11.2 -2.3,2.2 -3.6,3.3 -3.7,3.3 -1.3,0 -2.6,-0.4 -4,-1.1 -1.2,-0.8 -1.8,-1.9 -1.8,-3.2 V 56 c 0,-2.2 1.5,-5.8 4.4,-10.9 0.7,-1.2 1.4,-2.5 2.2,-3.9 -2.6,1.1 -4.9,2.2 -7,3.3 0.3,1.7 0.5,3.2 0.5,4.7 v 0.3 c 0,3.4 -0.9,6.4 -2.7,8.9 -1.5,1.6 -3.2,2.4 -5.3,2.4 h -0.4 c -1.9,0 -3.7,-0.7 -5.3,-2.2 -0.8,-0.9 -1.4,-1.8 -1.7,-2.6 -0.3,-0.9 -0.5,-1.8 -0.5,-2.5 v -0.4 c 0,-0.9 0.2,-1.9 0.6,-3 0,-0.1 0.1,-0.2 0.3,-0.4 2.5,-2 5,-3.8 7.5,-5.4 -2,-3.7 -3,-6 -3,-6.9 0,-0.2 0,-0.6 0,-1.1 0,-3 1.6,-6.3 4.8,-9.8 1.6,-1.6 2.8,-2.7 3.7,-3.2 1.7,-1.3 3.6,-2.5 5.6,-3.5 1.1,-0.6 2.1,-1.1 2.9,-1.4 1.7,0.6 3.3,1.9 4.6,4 0.4,0.6 0.7,1.3 1,2.1 l 0.2,0.4 c -2.8,0.9 -5,1.8 -6.8,2.9 -4.9,2.8 -7.4,6.2 -7.4,10.2 0,0.9 0.1,1.8 0.4,2.8 4.9,-2.9 8.8,-4.9 11.6,-6 0.8,-1.5 1.7,-3 2.7,-4.7 1.6,-3 2.4,-4.9 2.5,-5.9 h 0.1 c 1.2,0.1 2.5,0.6 3.7,1.5 1,0.9 1.6,1.6 1.8,2 0.7,1.3 1.1,2.5 1.1,3.7 l -0.1,0.3 v 0.4 c -0.2,0.4 -1.6,2.9 -4.2,7.5 l -5.2,9.1 12.1,-11.1 c 0.7,-0.4 1.4,-0.6 1.8,-0.6 h 0.4 l 9,-16.4 h -0.1 c -2.4,0 -4.5,0.1 -6.4,0.2 -0.4,-0.2 -0.7,-0.5 -0.9,-0.9 -1,1.1 -2.2,2.2 -3.4,3.5 -2.1,-0.3 -3.9,-0.7 -5.4,-1.2 -0.5,-0.2 -1,-0.4 -1.6,-0.6 v -0.1 c 2.3,-5.4 3.6,-8.5 4,-9.3 1.5,-0.2 2.9,-0.3 4.2,-0.3 h 1.2 c 2.7,0 5.3,0.3 7.8,0.8 v 0.1 c -0.4,0.4 -2.1,2.1 -4.9,5.1 l 7.3,-0.8 c 3,-5.5 4.5,-8.6 4.5,-9.3 1.2,0 2.5,0.6 4.1,1.8 1.5,1.5 2.3,3.3 2.3,5.4 0,0.4 -0.2,1 -0.6,1.6 1.2,-0.1 2,-0.1 2.6,-0.1 h 2.8 c 0.1,0 0.1,0.1 0.1,0.2 -1.2,2.8 -1.9,4.3 -1.9,4.3 H 192 c -1.7,-0.1 -3.5,-0.2 -5.6,-0.4 l -16,28.7 h 0.1 c 7.9,-7.4 12,-11.1 12.1,-11.2 0,0 0,0 0.1,0 0.7,-1.4 1.6,-2.9 2.5,-4.4 1.1,-1.6 2.6,-3.4 4.5,-5.4 2.2,-2.2 4,-3.6 5.4,-4.3 1.4,-0.9 3,-1.8 4.9,-2.5 0.2,-0.1 0.3,-0.1 0.4,-0.1 1.8,0 3.8,0.5 5.9,1.4 2.5,1.2 3.7,3 3.7,5.5 0,3.2 -2,6.9 -6,11.2 -2.3,2.2 -4.2,3.6 -5.5,4.3 -0.4,0.1 -0.7,0.1 -0.7,0.1 -1.2,0 -3.8,0 -7.8,0.1 -2.1,2.8 -3.5,6 -4.2,9.4 0,0.3 0.6,0.6 1.7,0.7 0,0.1 0.2,0.1 0.7,0.1 h 0.5 c 0.1,0 0.1,0 0.2,0 3.1,0 7.8,-2.7 13.8,-8.1 5.1,-4.6 8.7,-7.5 10.9,-8.8 2,-1.1 3.7,-1.7 5.1,-1.7 4.1,0 7,1.7 8.6,5 0.4,0.9 0.5,1.8 0.5,2.5 z m -35.5,-4.6 c 0.4,0 1.7,0 4.1,0.1 1.1,-0.2 2.2,-0.9 3.4,-2 2.1,-2.3 3.1,-4.6 3.1,-6.9 -0.1,-0.8 -0.3,-1.2 -0.7,-1.2 -2.8,0.8 -6.1,4.2 -9.9,10 z m -57.5,9.4 c -0.7,0.5 -1.6,1.3 -2.7,2.3 -0.6,0.6 -1,1.2 -1.4,1.8 1.5,-0.4 2.6,-1 3.4,-1.8 0.4,-0.5 0.6,-1 0.6,-1.7 v -0.6 z" /></clipPath><clipPath
   id="clipPath838"><path
     id="path836"
     d="M 79.7,29.1 C 74.3,36 67.5,43.8 59.3,52.5 c -7.1,7 -11.8,11.2 -13.8,12.6 -4.6,3.5 -7.9,5.3 -9.8,5.3 h -0.4 c -2.9,0 -4.8,-1 -5.6,-3 -0.1,-0.5 -0.2,-0.8 -0.2,-1 V 65.8 C 29.5,63.6 31.3,59.3 35,53 L 42.8,38.7 C 31.4,49.5 23.8,57 19.8,60.8 18,60.8 16.4,60.2 15,59 c -0.6,-0.7 -0.9,-1.7 -0.9,-2.9 0,-2.3 1.8,-6.5 5.4,-12.6 8,-14.7 13.4,-24.7 16.3,-30.1 h -0.2 c -5.9,0.7 -13,4.1 -21.1,10 -1.4,0.9 -3.4,2.7 -6,5.5 V 29 c 0.5,1.3 1.3,2.2 2.5,2.9 1.5,0.5 3,0.7 4.5,0.7 0.2,0 0.6,0 0.9,0.1 0,0.9 -1.6,1.9 -4.8,3.1 -1.7,0.5 -3.1,0.7 -4.2,0.7 H 6.9 C 4.4,36.5 2.7,33.7 2,28.1 1.9,27.8 1.9,27.3 1.9,26.5 v -1.1 c 0,-2.5 0.9,-4.5 2.8,-5.9 1.8,-1.7 4.1,-3.4 7,-5.1 C 15.7,12.1 21,9.9 27.5,7.8 32.3,6.6 36.1,6 39,6 c 1.5,0.2 2.9,0.8 4,1.8 1.7,1.6 2.6,3.6 2.6,5.9 0,0.3 -2.3,4.5 -6.9,12.6 -0.8,1.5 -4.3,8 -10.6,19.4 v 0.1 C 35.9,38.5 43.3,31.5 50.2,24.9 56,14 59.2,7.7 59.5,6.1 c 1.4,0.2 2.7,0.7 4,1.7 1.8,1.5 2.7,3.6 2.7,6.2 v 0.1 C 49.7,44 41.2,59.4 40.8,60.4 42.6,58.8 45.1,56.2 48.5,52.6 57.9,42 66.9,30.6 75.7,18.6 82,9.8 85.6,3.9 86.4,1 86.5,0.6 86.5,0.2 86.5,-0.1 v -0.1 c 0.1,-0.1 0.1,-0.1 0.2,-0.1 1.5,0.4 3.1,1.4 4.9,3 1.8,2.3 2.8,4.1 2.8,5.3 -2.9,5.2 -7.8,12.2 -14.7,21.1 z M 125.8,40 c -0.7,1.3 -1.2,2.3 -1.6,3 -0.6,1 -1.2,2.3 -2,3.8 l -2.1,3.7 c -1.8,3.2 -3.2,5.7 -4.1,7.6 -1.5,2.8 -4.1,3.4 -7.7,2 -1.5,-0.6 -2.8,-1.4 -4,-2.5 -1.2,-1.2 -2.1,-2.3 -2.5,-3.4 l -3.6,6.6 c -4.5,-0.4 -6.3,-2.4 -5.6,-6 -1.1,0.8 -2.1,1.5 -3,2.1 -3.6,2.1 -6.6,3.4 -8.7,3.7 -0.7,0.1 -1.3,0.2 -1.8,0.2 h -0.4 c -1.8,0 -3.4,-0.7 -4.7,-2 -1.4,-1.8 -2.1,-4.1 -2.1,-6.6 v -0.6 c 0,-3.1 1.1,-7 3.2,-11.5 3.5,-7.4 8.1,-12.8 13.8,-16.2 1,-0.6 2,-1 3,-1.5 0.9,-0.4 1.4,-0.6 1.6,-0.6 0.7,0 1.9,0.2 3.4,0.6 0.7,0.2 1.5,0.4 2.2,0.7 2.5,1.2 3.8,3 3.8,5.4 v 0.4 c 0,1.6 -0.6,3.5 -1.9,5.7 -2.3,3.7 -5.4,6.8 -9.5,9.4 l -8.3,0.2 c -0.7,0.9 -1.2,1.7 -1.6,2.4 -1.5,2.7 -2.3,5 -2.6,6.9 0.1,0.3 0.4,0.5 0.9,0.5 H 80 c 1.4,0 3.9,-0.9 7.6,-2.6 2.6,-1.2 5.4,-2.9 8.3,-5.1 0.4,-0.3 0.8,-0.6 1.2,-0.9 0.6,-1.2 1.1,-2 1.4,-2.6 0.7,-1.4 2.2,-4.1 4.5,-8.3 l 0.7,-1.4 0.8,-1.4 1.6,-2.9 c 1.2,-2.3 2.3,-4.2 3.2,-5.9 5.4,-9.8 8,-15.1 7.9,-15.9 2,0.2 3.6,1 4.8,2.6 1.3,1.5 1.8,3.2 1.7,5.2 l -11.9,21.5 c 0.9,-0.8 2,-1.8 3.3,-3 l 1.7,-1.5 1.7,-1.6 c 2.6,-2.4 4.6,-4.2 6,-5.4 4.6,0.4 6.4,2.6 5.4,6.6 -0.4,1.5 -1.2,3.4 -2.4,5.7 l -0.8,1.5 z m -40.4,-1.2 4,0.2 c 0.9,-0.3 1.7,-0.7 2.4,-1.2 0.3,-0.2 0.8,-0.6 1.5,-1.3 0.7,-0.8 1.2,-1.6 1.6,-2.4 0.7,-1.5 1.1,-2.8 1.1,-3.9 0,-0.7 -0.2,-1.1 -0.6,-1.3 h -0.2 c -0.8,0.1 -1.8,0.7 -3.1,1.8 -1.3,1.2 -2.2,2.1 -2.9,2.8 -1.5,1.9 -2.8,3.6 -3.8,5.3 z m 34.5,-2.9 -13.6,11.5 c -0.3,0.2 -0.6,0.4 -0.9,0.6 l -0.4,0.6 c 0.2,1.7 0.7,3 1.5,4 0.9,1 1.8,1.4 3,1.1 z m 107.9,7.2 v 0.6 c 0,1.2 -0.4,2.2 -1.1,3 h -0.1 c -0.2,-0.7 -0.6,-1.3 -1.2,-1.8 -0.7,-0.3 -1.3,-0.5 -1.8,-0.5 H 223 c -3.2,0 -9.8,2.8 -19.8,8.5 -9,5.2 -14.8,7.8 -17.3,7.8 h -0.3 c -3.4,0 -5.6,-1.9 -6.7,-5.6 -0.2,-1.1 -0.4,-2.2 -0.4,-3.1 v -0.5 c 0,-1.4 0.2,-3 0.6,-4.6 -4.3,3.9 -9,8.2 -14.3,13 -0.6,0.6 -0.9,0.8 -0.9,0.8 -1.7,0 -3.1,-0.5 -4.4,-1.5 -0.7,-0.8 -1.1,-1.7 -1.1,-2.6 V 56 c 0,-1.7 1.3,-5 4,-9.8 -4.1,3.8 -8.2,7.5 -12.4,11.2 -2.3,2.2 -3.6,3.3 -3.7,3.3 -1.3,0 -2.6,-0.4 -4,-1.1 -1.2,-0.8 -1.8,-1.9 -1.8,-3.2 V 56 c 0,-2.2 1.5,-5.8 4.4,-10.9 0.7,-1.2 1.4,-2.5 2.2,-3.9 -2.6,1.1 -4.9,2.2 -7,3.3 0.3,1.7 0.5,3.2 0.5,4.7 v 0.3 c 0,3.4 -0.9,6.4 -2.7,8.9 -1.5,1.6 -3.2,2.4 -5.3,2.4 h -0.4 c -1.9,0 -3.7,-0.7 -5.3,-2.2 -0.8,-0.9 -1.4,-1.8 -1.7,-2.6 -0.3,-0.9 -0.5,-1.8 -0.5,-2.5 v -0.4 c 0,-0.9 0.2,-1.9 0.6,-3 0,-0.1 0.1,-0.2 0.3,-0.4 2.5,-2 5,-3.8 7.5,-5.4 -2,-3.7 -3,-6 -3,-6.9 0,-0.2 0,-0.6 0,-1.1 0,-3 1.6,-6.3 4.8,-9.8 1.6,-1.6 2.8,-2.7 3.7,-3.2 1.7,-1.3 3.6,-2.5 5.6,-3.5 1.1,-0.6 2.1,-1.1 2.9,-1.4 1.7,0.6 3.3,1.9 4.6,4 0.4,0.6 0.7,1.3 1,2.1 l 0.2,0.4 c -2.8,0.9 -5,1.8 -6.8,2.9 -4.9,2.8 -7.4,6.2 -7.4,10.2 0,0.9 0.1,1.8 0.4,2.8 4.9,-2.9 8.8,-4.9 11.6,-6 0.8,-1.5 1.7,-3 2.7,-4.7 1.6,-3 2.4,-4.9 2.5,-5.9 h 0.1 c 1.2,0.1 2.5,0.6 3.7,1.5 1,0.9 1.6,1.6 1.8,2 0.7,1.3 1.1,2.5 1.1,3.7 l -0.1,0.3 v 0.4 c -0.2,0.4 -1.6,2.9 -4.2,7.5 l -5.2,9.1 12.1,-11.1 c 0.7,-0.4 1.4,-0.6 1.8,-0.6 h 0.4 l 9,-16.4 h -0.1 c -2.4,0 -4.5,0.1 -6.4,0.2 -0.4,-0.2 -0.7,-0.5 -0.9,-0.9 -1,1.1 -2.2,2.2 -3.4,3.5 -2.1,-0.3 -3.9,-0.7 -5.4,-1.2 -0.5,-0.2 -1,-0.4 -1.6,-0.6 v -0.1 c 2.3,-5.4 3.6,-8.5 4,-9.3 1.5,-0.2 2.9,-0.3 4.2,-0.3 h 1.2 c 2.7,0 5.3,0.3 7.8,0.8 v 0.1 c -0.4,0.4 -2.1,2.1 -4.9,5.1 l 7.3,-0.8 c 3,-5.5 4.5,-8.6 4.5,-9.3 1.2,0 2.5,0.6 4.1,1.8 1.5,1.5 2.3,3.3 2.3,5.4 0,0.4 -0.2,1 -0.6,1.6 1.2,-0.1 2,-0.1 2.6,-0.1 h 2.8 c 0.1,0 0.1,0.1 0.1,0.2 -1.2,2.8 -1.9,4.3 -1.9,4.3 H 192 c -1.7,-0.1 -3.5,-0.2 -5.6,-0.4 l -16,28.7 h 0.1 c 7.9,-7.4 12,-11.1 12.1,-11.2 0,0 0,0 0.1,0 0.7,-1.4 1.6,-2.9 2.5,-4.4 1.1,-1.6 2.6,-3.4 4.5,-5.4 2.2,-2.2 4,-3.6 5.4,-4.3 1.4,-0.9 3,-1.8 4.9,-2.5 0.2,-0.1 0.3,-0.1 0.4,-0.1 1.8,0 3.8,0.5 5.9,1.4 2.5,1.2 3.7,3 3.7,5.5 0,3.2 -2,6.9 -6,11.2 -2.3,2.2 -4.2,3.6 -5.5,4.3 -0.4,0.1 -0.7,0.1 -0.7,0.1 -1.2,0 -3.8,0 -7.8,0.1 -2.1,2.8 -3.5,6 -4.2,9.4 0,0.3 0.6,0.6 1.7,0.7 0,0.1 0.2,0.1 0.7,0.1 h 0.5 c 0.1,0 0.1,0 0.2,0 3.1,0 7.8,-2.7 13.8,-8.1 5.1,-4.6 8.7,-7.5 10.9,-8.8 2,-1.1 3.7,-1.7 5.1,-1.7 4.1,0 7,1.7 8.6,5 0.4,0.9 0.5,1.8 0.5,2.5 z m -35.5,-4.6 c 0.4,0 1.7,0 4.1,0.1 1.1,-0.2 2.2,-0.9 3.4,-2 2.1,-2.3 3.1,-4.6 3.1,-6.9 -0.1,-0.8 -0.3,-1.2 -0.7,-1.2 -2.8,0.8 -6.1,4.2 -9.9,10 z m -57.5,9.4 c -0.7,0.5 -1.6,1.3 -2.7,2.3 -0.6,0.6 -1,1.2 -1.4,1.8 1.5,-0.4 2.6,-1 3.4,-1.8 0.4,-0.5 0.6,-1 0.6,-1.7 v -0.6 z" /></clipPath><clipPath
   id="clipPath842"><path
     id="path840"
     d="M 79.7,29.1 C 74.3,36 67.5,43.8 59.3,52.5 c -7.1,7 -11.8,11.2 -13.8,12.6 -4.6,3.5 -7.9,5.3 -9.8,5.3 h -0.4 c -2.9,0 -4.8,-1 -5.6,-3 -0.1,-0.5 -0.2,-0.8 -0.2,-1 V 65.8 C 29.5,63.6 31.3,59.3 35,53 L 42.8,38.7 C 31.4,49.5 23.8,57 19.8,60.8 18,60.8 16.4,60.2 15,59 c -0.6,-0.7 -0.9,-1.7 -0.9,-2.9 0,-2.3 1.8,-6.5 5.4,-12.6 8,-14.7 13.4,-24.7 16.3,-30.1 h -0.2 c -5.9,0.7 -13,4.1 -21.1,10 -1.4,0.9 -3.4,2.7 -6,5.5 V 29 c 0.5,1.3 1.3,2.2 2.5,2.9 1.5,0.5 3,0.7 4.5,0.7 0.2,0 0.6,0 0.9,0.1 0,0.9 -1.6,1.9 -4.8,3.1 -1.7,0.5 -3.1,0.7 -4.2,0.7 H 6.9 C 4.4,36.5 2.7,33.7 2,28.1 1.9,27.8 1.9,27.3 1.9,26.5 v -1.1 c 0,-2.5 0.9,-4.5 2.8,-5.9 1.8,-1.7 4.1,-3.4 7,-5.1 C 15.7,12.1 21,9.9 27.5,7.8 32.3,6.6 36.1,6 39,6 c 1.5,0.2 2.9,0.8 4,1.8 1.7,1.6 2.6,3.6 2.6,5.9 0,0.3 -2.3,4.5 -6.9,12.6 -0.8,1.5 -4.3,8 -10.6,19.4 v 0.1 C 35.9,38.5 43.3,31.5 50.2,24.9 56,14 59.2,7.7 59.5,6.1 c 1.4,0.2 2.7,0.7 4,1.7 1.8,1.5 2.7,3.6 2.7,6.2 v 0.1 C 49.7,44 41.2,59.4 40.8,60.4 42.6,58.8 45.1,56.2 48.5,52.6 57.9,42 66.9,30.6 75.7,18.6 82,9.8 85.6,3.9 86.4,1 86.5,0.6 86.5,0.2 86.5,-0.1 v -0.1 c 0.1,-0.1 0.1,-0.1 0.2,-0.1 1.5,0.4 3.1,1.4 4.9,3 1.8,2.3 2.8,4.1 2.8,5.3 -2.9,5.2 -7.8,12.2 -14.7,21.1 z M 125.8,40 c -0.7,1.3 -1.2,2.3 -1.6,3 -0.6,1 -1.2,2.3 -2,3.8 l -2.1,3.7 c -1.8,3.2 -3.2,5.7 -4.1,7.6 -1.5,2.8 -4.1,3.4 -7.7,2 -1.5,-0.6 -2.8,-1.4 -4,-2.5 -1.2,-1.2 -2.1,-2.3 -2.5,-3.4 l -3.6,6.6 c -4.5,-0.4 -6.3,-2.4 -5.6,-6 -1.1,0.8 -2.1,1.5 -3,2.1 -3.6,2.1 -6.6,3.4 -8.7,3.7 -0.7,0.1 -1.3,0.2 -1.8,0.2 h -0.4 c -1.8,0 -3.4,-0.7 -4.7,-2 -1.4,-1.8 -2.1,-4.1 -2.1,-6.6 v -0.6 c 0,-3.1 1.1,-7 3.2,-11.5 3.5,-7.4 8.1,-12.8 13.8,-16.2 1,-0.6 2,-1 3,-1.5 0.9,-0.4 1.4,-0.6 1.6,-0.6 0.7,0 1.9,0.2 3.4,0.6 0.7,0.2 1.5,0.4 2.2,0.7 2.5,1.2 3.8,3 3.8,5.4 v 0.4 c 0,1.6 -0.6,3.5 -1.9,5.7 -2.3,3.7 -5.4,6.8 -9.5,9.4 l -8.3,0.2 c -0.7,0.9 -1.2,1.7 -1.6,2.4 -1.5,2.7 -2.3,5 -2.6,6.9 0.1,0.3 0.4,0.5 0.9,0.5 H 80 c 1.4,0 3.9,-0.9 7.6,-2.6 2.6,-1.2 5.4,-2.9 8.3,-5.1 0.4,-0.3 0.8,-0.6 1.2,-0.9 0.6,-1.2 1.1,-2 1.4,-2.6 0.7,-1.4 2.2,-4.1 4.5,-8.3 l 0.7,-1.4 0.8,-1.4 1.6,-2.9 c 1.2,-2.3 2.3,-4.2 3.2,-5.9 5.4,-9.8 8,-15.1 7.9,-15.9 2,0.2 3.6,1 4.8,2.6 1.3,1.5 1.8,3.2 1.7,5.2 l -11.9,21.5 c 0.9,-0.8 2,-1.8 3.3,-3 l 1.7,-1.5 1.7,-1.6 c 2.6,-2.4 4.6,-4.2 6,-5.4 4.6,0.4 6.4,2.6 5.4,6.6 -0.4,1.5 -1.2,3.4 -2.4,5.7 l -0.8,1.5 z m -40.4,-1.2 4,0.2 c 0.9,-0.3 1.7,-0.7 2.4,-1.2 0.3,-0.2 0.8,-0.6 1.5,-1.3 0.7,-0.8 1.2,-1.6 1.6,-2.4 0.7,-1.5 1.1,-2.8 1.1,-3.9 0,-0.7 -0.2,-1.1 -0.6,-1.3 h -0.2 c -0.8,0.1 -1.8,0.7 -3.1,1.8 -1.3,1.2 -2.2,2.1 -2.9,2.8 -1.5,1.9 -2.8,3.6 -3.8,5.3 z m 34.5,-2.9 -13.6,11.5 c -0.3,0.2 -0.6,0.4 -0.9,0.6 l -0.4,0.6 c 0.2,1.7 0.7,3 1.5,4 0.9,1 1.8,1.4 3,1.1 z m 107.9,7.2 v 0.6 c 0,1.2 -0.4,2.2 -1.1,3 h -0.1 c -0.2,-0.7 -0.6,-1.3 -1.2,-1.8 -0.7,-0.3 -1.3,-0.5 -1.8,-0.5 H 223 c -3.2,0 -9.8,2.8 -19.8,8.5 -9,5.2 -14.8,7.8 -17.3,7.8 h -0.3 c -3.4,0 -5.6,-1.9 -6.7,-5.6 -0.2,-1.1 -0.4,-2.2 -0.4,-3.1 v -0.5 c 0,-1.4 0.2,-3 0.6,-4.6 -4.3,3.9 -9,8.2 -14.3,13 -0.6,0.6 -0.9,0.8 -0.9,0.8 -1.7,0 -3.1,-0.5 -4.4,-1.5 -0.7,-0.8 -1.1,-1.7 -1.1,-2.6 V 56 c 0,-1.7 1.3,-5 4,-9.8 -4.1,3.8 -8.2,7.5 -12.4,11.2 -2.3,2.2 -3.6,3.3 -3.7,3.3 -1.3,0 -2.6,-0.4 -4,-1.1 -1.2,-0.8 -1.8,-1.9 -1.8,-3.2 V 56 c 0,-2.2 1.5,-5.8 4.4,-10.9 0.7,-1.2 1.4,-2.5 2.2,-3.9 -2.6,1.1 -4.9,2.2 -7,3.3 0.3,1.7 0.5,3.2 0.5,4.7 v 0.3 c 0,3.4 -0.9,6.4 -2.7,8.9 -1.5,1.6 -3.2,2.4 -5.3,2.4 h -0.4 c -1.9,0 -3.7,-0.7 -5.3,-2.2 -0.8,-0.9 -1.4,-1.8 -1.7,-2.6 -0.3,-0.9 -0.5,-1.8 -0.5,-2.5 v -0.4 c 0,-0.9 0.2,-1.9 0.6,-3 0,-0.1 0.1,-0.2 0.3,-0.4 2.5,-2 5,-3.8 7.5,-5.4 -2,-3.7 -3,-6 -3,-6.9 0,-0.2 0,-0.6 0,-1.1 0,-3 1.6,-6.3 4.8,-9.8 1.6,-1.6 2.8,-2.7 3.7,-3.2 1.7,-1.3 3.6,-2.5 5.6,-3.5 1.1,-0.6 2.1,-1.1 2.9,-1.4 1.7,0.6 3.3,1.9 4.6,4 0.4,0.6 0.7,1.3 1,2.1 l 0.2,0.4 c -2.8,0.9 -5,1.8 -6.8,2.9 -4.9,2.8 -7.4,6.2 -7.4,10.2 0,0.9 0.1,1.8 0.4,2.8 4.9,-2.9 8.8,-4.9 11.6,-6 0.8,-1.5 1.7,-3 2.7,-4.7 1.6,-3 2.4,-4.9 2.5,-5.9 h 0.1 c 1.2,0.1 2.5,0.6 3.7,1.5 1,0.9 1.6,1.6 1.8,2 0.7,1.3 1.1,2.5 1.1,3.7 l -0.1,0.3 v 0.4 c -0.2,0.4 -1.6,2.9 -4.2,7.5 l -5.2,9.1 12.1,-11.1 c 0.7,-0.4 1.4,-0.6 1.8,-0.6 h 0.4 l 9,-16.4 h -0.1 c -2.4,0 -4.5,0.1 -6.4,0.2 -0.4,-0.2 -0.7,-0.5 -0.9,-0.9 -1,1.1 -2.2,2.2 -3.4,3.5 -2.1,-0.3 -3.9,-0.7 -5.4,-1.2 -0.5,-0.2 -1,-0.4 -1.6,-0.6 v -0.1 c 2.3,-5.4 3.6,-8.5 4,-9.3 1.5,-0.2 2.9,-0.3 4.2,-0.3 h 1.2 c 2.7,0 5.3,0.3 7.8,0.8 v 0.1 c -0.4,0.4 -2.1,2.1 -4.9,5.1 l 7.3,-0.8 c 3,-5.5 4.5,-8.6 4.5,-9.3 1.2,0 2.5,0.6 4.1,1.8 1.5,1.5 2.3,3.3 2.3,5.4 0,0.4 -0.2,1 -0.6,1.6 1.2,-0.1 2,-0.1 2.6,-0.1 h 2.8 c 0.1,0 0.1,0.1 0.1,0.2 -1.2,2.8 -1.9,4.3 -1.9,4.3 H 192 c -1.7,-0.1 -3.5,-0.2 -5.6,-0.4 l -16,28.7 h 0.1 c 7.9,-7.4 12,-11.1 12.1,-11.2 0,0 0,0 0.1,0 0.7,-1.4 1.6,-2.9 2.5,-4.4 1.1,-1.6 2.6,-3.4 4.5,-5.4 2.2,-2.2 4,-3.6 5.4,-4.3 1.4,-0.9 3,-1.8 4.9,-2.5 0.2,-0.1 0.3,-0.1 0.4,-0.1 1.8,0 3.8,0.5 5.9,1.4 2.5,1.2 3.7,3 3.7,5.5 0,3.2 -2,6.9 -6,11.2 -2.3,2.2 -4.2,3.6 -5.5,4.3 -0.4,0.1 -0.7,0.1 -0.7,0.1 -1.2,0 -3.8,0 -7.8,0.1 -2.1,2.8 -3.5,6 -4.2,9.4 0,0.3 0.6,0.6 1.7,0.7 0,0.1 0.2,0.1 0.7,0.1 h 0.5 c 0.1,0 0.1,0 0.2,0 3.1,0 7.8,-2.7 13.8,-8.1 5.1,-4.6 8.7,-7.5 10.9,-8.8 2,-1.1 3.7,-1.7 5.1,-1.7 4.1,0 7,1.7 8.6,5 0.4,0.9 0.5,1.8 0.5,2.5 z m -35.5,-4.6 c 0.4,0 1.7,0 4.1,0.1 1.1,-0.2 2.2,-0.9 3.4,-2 2.1,-2.3 3.1,-4.6 3.1,-6.9 -0.1,-0.8 -0.3,-1.2 -0.7,-1.2 -2.8,0.8 -6.1,4.2 -9.9,10 z m -57.5,9.4 c -0.7,0.5 -1.6,1.3 -2.7,2.3 -0.6,0.6 -1,1.2 -1.4,1.8 1.5,-0.4 2.6,-1 3.4,-1.8 0.4,-0.5 0.6,-1 0.6,-1.7 v -0.6 z" /></clipPath><clipPath
   id="clipPath846"><path
     id="path844"
     d="M 79.7,29.1 C 74.3,36 67.5,43.8 59.3,52.5 c -7.1,7 -11.8,11.2 -13.8,12.6 -4.6,3.5 -7.9,5.3 -9.8,5.3 h -0.4 c -2.9,0 -4.8,-1 -5.6,-3 -0.1,-0.5 -0.2,-0.8 -0.2,-1 V 65.8 C 29.5,63.6 31.3,59.3 35,53 L 42.8,38.7 C 31.4,49.5 23.8,57 19.8,60.8 18,60.8 16.4,60.2 15,59 c -0.6,-0.7 -0.9,-1.7 -0.9,-2.9 0,-2.3 1.8,-6.5 5.4,-12.6 8,-14.7 13.4,-24.7 16.3,-30.1 h -0.2 c -5.9,0.7 -13,4.1 -21.1,10 -1.4,0.9 -3.4,2.7 -6,5.5 V 29 c 0.5,1.3 1.3,2.2 2.5,2.9 1.5,0.5 3,0.7 4.5,0.7 0.2,0 0.6,0 0.9,0.1 0,0.9 -1.6,1.9 -4.8,3.1 -1.7,0.5 -3.1,0.7 -4.2,0.7 H 6.9 C 4.4,36.5 2.7,33.7 2,28.1 1.9,27.8 1.9,27.3 1.9,26.5 v -1.1 c 0,-2.5 0.9,-4.5 2.8,-5.9 1.8,-1.7 4.1,-3.4 7,-5.1 C 15.7,12.1 21,9.9 27.5,7.8 32.3,6.6 36.1,6 39,6 c 1.5,0.2 2.9,0.8 4,1.8 1.7,1.6 2.6,3.6 2.6,5.9 0,0.3 -2.3,4.5 -6.9,12.6 -0.8,1.5 -4.3,8 -10.6,19.4 v 0.1 C 35.9,38.5 43.3,31.5 50.2,24.9 56,14 59.2,7.7 59.5,6.1 c 1.4,0.2 2.7,0.7 4,1.7 1.8,1.5 2.7,3.6 2.7,6.2 v 0.1 C 49.7,44 41.2,59.4 40.8,60.4 42.6,58.8 45.1,56.2 48.5,52.6 57.9,42 66.9,30.6 75.7,18.6 82,9.8 85.6,3.9 86.4,1 86.5,0.6 86.5,0.2 86.5,-0.1 v -0.1 c 0.1,-0.1 0.1,-0.1 0.2,-0.1 1.5,0.4 3.1,1.4 4.9,3 1.8,2.3 2.8,4.1 2.8,5.3 -2.9,5.2 -7.8,12.2 -14.7,21.1 z M 125.8,40 c -0.7,1.3 -1.2,2.3 -1.6,3 -0.6,1 -1.2,2.3 -2,3.8 l -2.1,3.7 c -1.8,3.2 -3.2,5.7 -4.1,7.6 -1.5,2.8 -4.1,3.4 -7.7,2 -1.5,-0.6 -2.8,-1.4 -4,-2.5 -1.2,-1.2 -2.1,-2.3 -2.5,-3.4 l -3.6,6.6 c -4.5,-0.4 -6.3,-2.4 -5.6,-6 -1.1,0.8 -2.1,1.5 -3,2.1 -3.6,2.1 -6.6,3.4 -8.7,3.7 -0.7,0.1 -1.3,0.2 -1.8,0.2 h -0.4 c -1.8,0 -3.4,-0.7 -4.7,-2 -1.4,-1.8 -2.1,-4.1 -2.1,-6.6 v -0.6 c 0,-3.1 1.1,-7 3.2,-11.5 3.5,-7.4 8.1,-12.8 13.8,-16.2 1,-0.6 2,-1 3,-1.5 0.9,-0.4 1.4,-0.6 1.6,-0.6 0.7,0 1.9,0.2 3.4,0.6 0.7,0.2 1.5,0.4 2.2,0.7 2.5,1.2 3.8,3 3.8,5.4 v 0.4 c 0,1.6 -0.6,3.5 -1.9,5.7 -2.3,3.7 -5.4,6.8 -9.5,9.4 l -8.3,0.2 c -0.7,0.9 -1.2,1.7 -1.6,2.4 -1.5,2.7 -2.3,5 -2.6,6.9 0.1,0.3 0.4,0.5 0.9,0.5 H 80 c 1.4,0 3.9,-0.9 7.6,-2.6 2.6,-1.2 5.4,-2.9 8.3,-5.1 0.4,-0.3 0.8,-0.6 1.2,-0.9 0.6,-1.2 1.1,-2 1.4,-2.6 0.7,-1.4 2.2,-4.1 4.5,-8.3 l 0.7,-1.4 0.8,-1.4 1.6,-2.9 c 1.2,-2.3 2.3,-4.2 3.2,-5.9 5.4,-9.8 8,-15.1 7.9,-15.9 2,0.2 3.6,1 4.8,2.6 1.3,1.5 1.8,3.2 1.7,5.2 l -11.9,21.5 c 0.9,-0.8 2,-1.8 3.3,-3 l 1.7,-1.5 1.7,-1.6 c 2.6,-2.4 4.6,-4.2 6,-5.4 4.6,0.4 6.4,2.6 5.4,6.6 -0.4,1.5 -1.2,3.4 -2.4,5.7 l -0.8,1.5 z m -40.4,-1.2 4,0.2 c 0.9,-0.3 1.7,-0.7 2.4,-1.2 0.3,-0.2 0.8,-0.6 1.5,-1.3 0.7,-0.8 1.2,-1.6 1.6,-2.4 0.7,-1.5 1.1,-2.8 1.1,-3.9 0,-0.7 -0.2,-1.1 -0.6,-1.3 h -0.2 c -0.8,0.1 -1.8,0.7 -3.1,1.8 -1.3,1.2 -2.2,2.1 -2.9,2.8 -1.5,1.9 -2.8,3.6 -3.8,5.3 z m 34.5,-2.9 -13.6,11.5 c -0.3,0.2 -0.6,0.4 -0.9,0.6 l -0.4,0.6 c 0.2,1.7 0.7,3 1.5,4 0.9,1 1.8,1.4 3,1.1 z m 107.9,7.2 v 0.6 c 0,1.2 -0.4,2.2 -1.1,3 h -0.1 c -0.2,-0.7 -0.6,-1.3 -1.2,-1.8 -0.7,-0.3 -1.3,-0.5 -1.8,-0.5 H 223 c -3.2,0 -9.8,2.8 -19.8,8.5 -9,5.2 -14.8,7.8 -17.3,7.8 h -0.3 c -3.4,0 -5.6,-1.9 -6.7,-5.6 -0.2,-1.1 -0.4,-2.2 -0.4,-3.1 v -0.5 c 0,-1.4 0.2,-3 0.6,-4.6 -4.3,3.9 -9,8.2 -14.3,13 -0.6,0.6 -0.9,0.8 -0.9,0.8 -1.7,0 -3.1,-0.5 -4.4,-1.5 -0.7,-0.8 -1.1,-1.7 -1.1,-2.6 V 56 c 0,-1.7 1.3,-5 4,-9.8 -4.1,3.8 -8.2,7.5 -12.4,11.2 -2.3,2.2 -3.6,3.3 -3.7,3.3 -1.3,0 -2.6,-0.4 -4,-1.1 -1.2,-0.8 -1.8,-1.9 -1.8,-3.2 V 56 c 0,-2.2 1.5,-5.8 4.4,-10.9 0.7,-1.2 1.4,-2.5 2.2,-3.9 -2.6,1.1 -4.9,2.2 -7,3.3 0.3,1.7 0.5,3.2 0.5,4.7 v 0.3 c 0,3.4 -0.9,6.4 -2.7,8.9 -1.5,1.6 -3.2,2.4 -5.3,2.4 h -0.4 c -1.9,0 -3.7,-0.7 -5.3,-2.2 -0.8,-0.9 -1.4,-1.8 -1.7,-2.6 -0.3,-0.9 -0.5,-1.8 -0.5,-2.5 v -0.4 c 0,-0.9 0.2,-1.9 0.6,-3 0,-0.1 0.1,-0.2 0.3,-0.4 2.5,-2 5,-3.8 7.5,-5.4 -2,-3.7 -3,-6 -3,-6.9 0,-0.2 0,-0.6 0,-1.1 0,-3 1.6,-6.3 4.8,-9.8 1.6,-1.6 2.8,-2.7 3.7,-3.2 1.7,-1.3 3.6,-2.5 5.6,-3.5 1.1,-0.6 2.1,-1.1 2.9,-1.4 1.7,0.6 3.3,1.9 4.6,4 0.4,0.6 0.7,1.3 1,2.1 l 0.2,0.4 c -2.8,0.9 -5,1.8 -6.8,2.9 -4.9,2.8 -7.4,6.2 -7.4,10.2 0,0.9 0.1,1.8 0.4,2.8 4.9,-2.9 8.8,-4.9 11.6,-6 0.8,-1.5 1.7,-3 2.7,-4.7 1.6,-3 2.4,-4.9 2.5,-5.9 h 0.1 c 1.2,0.1 2.5,0.6 3.7,1.5 1,0.9 1.6,1.6 1.8,2 0.7,1.3 1.1,2.5 1.1,3.7 l -0.1,0.3 v 0.4 c -0.2,0.4 -1.6,2.9 -4.2,7.5 l -5.2,9.1 12.1,-11.1 c 0.7,-0.4 1.4,-0.6 1.8,-0.6 h 0.4 l 9,-16.4 h -0.1 c -2.4,0 -4.5,0.1 -6.4,0.2 -0.4,-0.2 -0.7,-0.5 -0.9,-0.9 -1,1.1 -2.2,2.2 -3.4,3.5 -2.1,-0.3 -3.9,-0.7 -5.4,-1.2 -0.5,-0.2 -1,-0.4 -1.6,-0.6 v -0.1 c 2.3,-5.4 3.6,-8.5 4,-9.3 1.5,-0.2 2.9,-0.3 4.2,-0.3 h 1.2 c 2.7,0 5.3,0.3 7.8,0.8 v 0.1 c -0.4,0.4 -2.1,2.1 -4.9,5.1 l 7.3,-0.8 c 3,-5.5 4.5,-8.6 4.5,-9.3 1.2,0 2.5,0.6 4.1,1.8 1.5,1.5 2.3,3.3 2.3,5.4 0,0.4 -0.2,1 -0.6,1.6 1.2,-0.1 2,-0.1 2.6,-0.1 h 2.8 c 0.1,0 0.1,0.1 0.1,0.2 -1.2,2.8 -1.9,4.3 -1.9,4.3 H 192 c -1.7,-0.1 -3.5,-0.2 -5.6,-0.4 l -16,28.7 h 0.1 c 7.9,-7.4 12,-11.1 12.1,-11.2 0,0 0,0 0.1,0 0.7,-1.4 1.6,-2.9 2.5,-4.4 1.1,-1.6 2.6,-3.4 4.5,-5.4 2.2,-2.2 4,-3.6 5.4,-4.3 1.4,-0.9 3,-1.8 4.9,-2.5 0.2,-0.1 0.3,-0.1 0.4,-0.1 1.8,0 3.8,0.5 5.9,1.4 2.5,1.2 3.7,3 3.7,5.5 0,3.2 -2,6.9 -6,11.2 -2.3,2.2 -4.2,3.6 -5.5,4.3 -0.4,0.1 -0.7,0.1 -0.7,0.1 -1.2,0 -3.8,0 -7.8,0.1 -2.1,2.8 -3.5,6 -4.2,9.4 0,0.3 0.6,0.6 1.7,0.7 0,0.1 0.2,0.1 0.7,0.1 h 0.5 c 0.1,0 0.1,0 0.2,0 3.1,0 7.8,-2.7 13.8,-8.1 5.1,-4.6 8.7,-7.5 10.9,-8.8 2,-1.1 3.7,-1.7 5.1,-1.7 4.1,0 7,1.7 8.6,5 0.4,0.9 0.5,1.8 0.5,2.5 z m -35.5,-4.6 c 0.4,0 1.7,0 4.1,0.1 1.1,-0.2 2.2,-0.9 3.4,-2 2.1,-2.3 3.1,-4.6 3.1,-6.9 -0.1,-0.8 -0.3,-1.2 -0.7,-1.2 -2.8,0.8 -6.1,4.2 -9.9,10 z m -57.5,9.4 c -0.7,0.5 -1.6,1.3 -2.7,2.3 -0.6,0.6 -1,1.2 -1.4,1.8 1.5,-0.4 2.6,-1 3.4,-1.8 0.4,-0.5 0.6,-1 0.6,-1.7 v -0.6 z" /></clipPath><clipPath
   id="clipPath5082"
   clipPathUnits="userSpaceOnUse"><path
     id="path5084"
     style="font-style:normal;font-variant:normal;font-weight:normal;font-stretch:normal;font-size:medium;line-height:1.25;font-family:'Grand Hotel';-inkscape-font-specification:'Grand Hotel';letter-spacing:0px;word-spacing:0px;fill:#000000;fill-opacity:1;stroke:none"
     d="m -108.62063,-45.336094 q 0,1.328125 -0.17578,2.265625 -0.15625,0.9375 -0.44922,1.523438 -0.29297,0.585937 -0.72265,0.859375 -0.41016,0.273437 -0.89844,0.273437 -0.3711,0 -0.82031,-0.253906 -0.44922,-0.253906 -0.85938,-0.625 -0.39062,-0.371094 -0.66406,-0.761719 -0.25391,-0.390625 -0.25391,-0.683594 0,-0.195312 0.0391,-0.253906 0.0586,-0.03906 0.13672,-0.03906 0.0977,0.01953 0.21485,0.05859 0.13672,0.03906 0.29297,0.03906 0.54687,0 0.78125,-0.683594 0.2539,-0.703125 0.2539,-2.226562 v -22.08984 q -1.85547,0.15625 -3.57422,0.664062 -1.71875,0.488282 -3.02734,1.484375 -1.30859,0.996094 -2.08984,2.597657 -0.78125,1.582031 -0.78125,3.90625 0,1.035156 0.19531,1.875 0.21484,0.820312 0.54687,1.484375 0.33203,0.664062 0.72266,1.171875 0.41016,0.507812 0.80078,0.898437 0.33203,-0.09766 0.46875,0.07813 0.13672,0.175781 0.13672,0.488281 0,0.390625 -0.17578,0.820313 -0.15625,0.410156 -0.42969,0.761719 -0.27344,0.332031 -0.625,0.566406 -0.33203,0.214844 -0.68359,0.214844 -0.15625,0 -0.3125,-0.03906 -0.13672,-0.03906 -0.29297,-0.175781 -0.42969,-0.3125 -1.03516,-1.015625 -0.60547,-0.722656 -1.15234,-1.777344 -0.54688,-1.054687 -0.9375,-2.402344 -0.39063,-1.367187 -0.39063,-2.949218 0,-2.890625 1.07422,-5.097657 1.07422,-2.207031 2.98828,-3.691406 1.91407,-1.503906 4.53125,-2.265625 2.63672,-0.761719 5.76172,-0.761719 0.72266,0 1.73828,0.01953 1.03516,0 2.05078,0.01953 1.01563,0.01953 1.81641,0.03906 0.82031,0 1.11328,0 0.25391,0 0.41016,-0.03906 0.17578,-0.05859 0.27344,-0.117188 0.11718,-0.05859 0.17578,-0.09766 0.0586,-0.05859 0.0977,-0.05859 0.0977,0 0.17578,0.136719 0.0977,0.117188 0.15625,0.3125 0.0781,0.175781 0.11719,0.410156 0.0391,0.234375 0.0391,0.46875 0,0.351563 -0.0977,0.742188 -0.0977,0.371094 -0.29297,0.683594 -0.19531,0.292968 -0.48828,0.488281 -0.29297,0.195312 -0.6836,0.195312 -0.21484,0 -0.80078,0 -0.5664,-0.01953 -1.30859,-0.03906 -0.74219,-0.01953 -1.5625,-0.03906 -0.82031,-0.01953 -1.52344,-0.03906 z" /></clipPath><clipPath
   id="clipPath5112"
   clipPathUnits="userSpaceOnUse"><path
     id="path5114"
     style="font-style:normal;font-variant:normal;font-weight:normal;font-stretch:normal;font-size:medium;line-height:1.25;font-family:'Grand Hotel';-inkscape-font-specification:'Grand Hotel';letter-spacing:0px;word-spacing:0px;fill:#000000;fill-opacity:1;stroke:none"
     d="m -94.987816,-41.976719 q -0.703125,0 -1.445312,-0.214844 -0.722657,-0.214843 -1.328125,-0.742187 -0.585938,-0.527344 -0.976563,-1.386719 -0.371094,-0.878906 -0.371094,-2.207031 0,-1.933594 0.507813,-4.082031 0.527344,-2.167969 1.503906,-4.765625 h -3.046879 -0.44921 q -0.0195,0.585937 -0.0781,1.484375 -0.0391,0.898437 -0.15625,1.914062 -0.11719,1.015625 -0.3125,2.050781 -0.17578,1.035157 -0.44922,1.914063 -0.19531,0.625 -0.625,0.722656 -0.41015,0.09766 -0.82031,-0.136719 -0.41016,-0.253906 -0.66406,-0.722656 -0.25391,-0.46875 -0.11719,-0.976562 0.15625,-0.605469 0.27344,-1.464844 0.11718,-0.878906 0.17578,-1.835938 0.0781,-0.976562 0.11719,-1.933593 0.0391,-0.976563 0.0586,-1.738282 -0.74219,-0.410156 -1.23047,-1.035156 -0.48828,-0.644531 -0.48828,-1.523437 0,-0.410157 0.15625,-0.742188 0.17578,-0.351562 0.44922,-0.585937 0.27344,-0.253907 0.64453,-0.371094 0.37109,-0.136719 0.76172,-0.136719 0.35156,0 0.72265,0.09766 0.39063,0.09766 0.72266,0.351563 0.35156,0.253906 0.625,0.664062 0.27344,0.410157 0.44922,1.015625 0.48828,0.05859 0.820312,0.09766 0.351562,0.01953 0.585937,0.03906 0.234375,0.01953 0.390625,0.01953 0.15625,0 0.3125,0 h 2.089844 q 0.175781,0 0.507812,0.214844 0.351563,0.214844 0.683594,0.566406 0.332031,0.332032 0.546875,0.722657 0.234375,0.390625 0.175781,0.742187 0,0.117188 -0.136718,0.566406 -0.136719,0.449219 -0.332032,1.132813 -0.195312,0.683594 -0.429687,1.582031 -0.234375,0.878906 -0.429688,1.855469 -0.195312,0.976562 -0.332031,2.03125 -0.136719,1.035156 -0.136719,2.03125 0,0.410156 0.09766,0.800781 0.09766,0.390625 0.292968,0.703125 0.195313,0.292969 0.488282,0.46875 0.3125,0.175781 0.722656,0.175781 0.683594,0 1.171875,-0.429687 0.488281,-0.429688 0.820312,-1.074219 0.332032,-0.644531 0.527344,-1.386719 0.214844,-0.761718 0.351563,-1.425781 0.117187,-0.625 0.390625,-0.898437 0.273437,-0.292969 0.566406,-0.292969 0.234375,0 0.488281,0.15625 0.253906,0.136719 0.449219,0.371094 0.214844,0.234375 0.332031,0.527343 0.136719,0.292969 0.136719,0.585938 0,0.09766 -0.01953,0.15625 -0.01953,0.05859 -0.01953,0.117187 -0.273437,0.996094 -0.722656,2.089844 -0.429687,1.09375 -1.113281,2.011719 -0.683594,0.917969 -1.640625,1.523437 -0.957031,0.605469 -2.246094,0.605469 z" /></clipPath></defs>
            
            
            
            
        <path
   id="path5120"
   d="M 27.011479,95.05858 C 0.6591879,71.957996 -1.7463071,24.79466 50.646523,6.595987 L 120.20108,7.9465609 C 101.13306,2.8710852 65.970636,21.615319 66.85341,-12.987335 63.49736,33.047615 72.939222,61.283558 68.203984,147.73096 20.640934,117.47726 51.546905,131.07389 43.218366,122.74535"
   style="fill:none;stroke:#ff0000;stroke-width:20;stroke-linecap:butt;stroke-linejoin:miter;stroke-miterlimit:4;stroke-dasharray:none;stroke-opacity:1" /><path
   id="path5122"
   d="m 101.7075,119.75625 c 0.955,-3.10375 7.87875,-58.493749 7.87875,-58.493749 -0.0688,-6.763599 -6.04833,-3.183333 -9.0725,-4.775 -6.222129,0.475178 7.00333,8.754167 10.505,13.13125 11.6605,-0.902973 23.98461,-2.248351 31.9925,-0.71625 -8.97536,18.973771 -12.67748,34.180939 -17.42875,50.137499 7.12097,16.18925 17.55738,20.39191 32.9475,6.685 6.93325,-45.868681 27.88214,-60.89281 49.42125,-60.403749 -17.08803,7.974991 -41.61784,4.546959 -46.55625,56.583749 9.9707,17.48786 21.3862,17.27696 33.9025,3.58125 -0.91282,-15.63983 0.82054,-30.790712 3.10375,-45.839999 -0.99752,17.199819 -2.01298,34.420559 0.71625,47.272499 9.70917,14.04509 19.41833,2.93948 29.1275,-2.14875 4.91959,-21.59309 5.23624,-41.344997 3.82,-60.403749 -3.38423,-2.800961 0.31833,51.092499 0.4775,76.638749 -1.54467,-20.96972 -7.99636,-44.139142 7.87875,-57.299999 17.82208,-26.176579 24.46079,-16.733531 31.0375,-14.8025 1.44023,23.412966 0.24088,41.546769 -0.955,59.687499 9.81922,10.84867 17.94661,7.03476 25.06875,-5.49125 0.90307,-28.779417 1.2822,-58.176338 26.74,-58.016249 11.11309,2.839497 15.46271,11.930697 12.28217,21.917009 3.0819,-20.251096 -7.017,-20.450039 -16.57967,-22.155759 -11.91285,5.968611 -15.76042,19.409375 -19.81625,42.736249 l 9.55,20.77125 c 17.72033,9.86699 32.6492,2.98523 46.795,-8.595 9.22761,-6.44169 11.19834,-4.71938 27.695,-19.33875 6.49886,-8.856964 17.24718,-34.696302 -3.3425,-36.289999 -13.78123,-1.179556 -18.61416,12.784176 -20.77125,31.27625 -1.25945,13.117369 4.10883,19.606999 6.2075,29.366249 14.94768,14.85546 25.14752,7.15865 36.76749,6.2075 9.41266,-4.63893 13.67305,-11.33878 14.08625,-19.5775 1.73467,-8.70569 2.73817,-15.21783 3.58125,-21.248749"
   style="fill:none;stroke:#ff0000;stroke-width:20;stroke-linecap:butt;stroke-linejoin:miter;stroke-miterlimit:4;stroke-dasharray:none;stroke-opacity:1" /><g
   id="text5118"
   style="font-style:normal;font-weight:normal;font-size:40px;line-height:1.25;font-family:sans-serif;letter-spacing:0px;word-spacing:0px;fill:#000000;fill-opacity:1;stroke:none"
   aria-label="Trance"><path
     style="font-style:normal;font-variant:normal;font-weight:normal;font-stretch:normal;font-size:192px;font-family:'Grand Hotel';-inkscape-font-specification:'Grand Hotel'"
     d="m 105.75,0 c -0.125,0 -0.28125,0.09375 -0.46875,0.28125 -0.1875,0.125 -0.46875,0.28125 -0.84375,0.46875 -0.3125,0.1875 -0.75,0.375 -1.3125,0.5625 -0.5,0.125 -1.15625,0.1875 -1.96875,0.1875 H 95.8125 C 93.25,1.4375 90.34375,1.375 87.09375,1.3125 83.84375,1.25 80.5625,1.21875 77.25,1.21875 74,1.15625 71.21875,1.125 68.90625,1.125 c -10,0 -19.21875,1.21875 -27.65625,3.65625 -8.375,2.4375 -15.625,6.0625 -21.75,10.875 C 13.375,20.40625 8.59375,26.3125 5.15625,33.375 1.71875,40.4375 0,48.59375 0,57.84375 0,62.90625 0.625,67.625 1.875,72 c 1.25,4.3125 2.75,8.15625 4.5,11.53125 1.75,3.375 3.59375,6.21875 5.53125,8.53125 1.9375,2.25 3.59375,3.875 4.96875,4.875 0.5,0.4375 0.96875,0.71875 1.40625,0.84375 0.5,0.125 1,0.1875 1.5,0.1875 1.125,0 2.21875,-0.34375 3.28125,-1.03125 1.125,-0.75 2.125,-1.65625 3,-2.71875 0.875,-1.125 1.5625,-2.34375 2.0625,-3.65625 0.5625,-1.375 0.84375,-2.6875 0.84375,-3.9375 0,-1 -0.21875,-1.78125 -0.65625,-2.34375 -0.4375,-0.5625 -1.1875,-0.6875 -2.25,-0.375 -1.25,-1.25 -2.53125,-2.6875 -3.84375,-4.3125 -1.25,-1.625 -2.40625,-3.5 -3.46875,-5.625 -1.0625,-2.125 -1.9375,-4.5 -2.625,-7.125 -0.625,-2.6875 -0.9375,-5.6875 -0.9375,-9 0,-7.4375 1.25,-13.6875 3.75,-18.75 2.5,-5.125 5.84375,-9.28125 10.03125,-12.46875 C 33.15625,23.4375 38,21.0625 43.5,19.5 49,17.875 54.71875,16.8125 60.65625,16.3125 v 106.03125 c 0,4.875 -0.40625,8.4375 -1.21875,10.6875 -0.75,2.1875 -2,3.28125 -3.75,3.28125 -0.5,0 -0.96875,-0.0625 -1.40625,-0.1875 -0.375,-0.12503 -0.71875,-0.21878 -1.03125,-0.28125 -0.25,0 -0.46875,0.0625 -0.65625,0.1875 -0.125,0.1875 -0.1875,0.59375 -0.1875,1.21875 0,0.9375 0.40625,2.03125 1.21875,3.28125 0.875,1.25 1.9375,2.46875 3.1875,3.65625 1.3125,1.1875 2.6875,2.1875 4.125,3 1.4375,0.8125 2.75,1.21875 3.9375,1.21875 1.5625,0 3,-0.4375 4.3125,-1.3125 1.375,-0.875 2.53125,-2.25 3.46875,-4.125 0.9375,-1.875 1.65625,-4.3125 2.15625,-7.3125 0.5625,-3 0.84375,-6.625 0.84375,-10.875 V 15.9375 c 2.25,0.0625 4.6875,0.125 7.3125,0.1875 2.625,0.0625 5.125,0.125 7.5,0.1875 2.375,0.0625 4.46875,0.125 6.28125,0.1875 h 3.84375 c 1.25,0 2.34375,-0.3125 3.28125,-0.9375 0.9375,-0.625 1.71875,-1.40625 2.34375,-2.34375 0.625,-1 1.09375,-2.09375 1.40625,-3.28125 0.3125,-1.25 0.46875,-2.4375 0.46875,-3.5625 0,-0.75 -0.0625,-1.5 -0.1875,-2.25 -0.125,-0.75 -0.3125,-1.40625 -0.5625,-1.96875 -0.1875,-0.625 -0.4375,-1.125 -0.75,-1.5 C 106.34375,0.21875 106.0625,0 105.75,0 Z m -2.625,52.03125 c -1.25,0 -2.46875,0.21875 -3.65625,0.65625 -1.1875,0.375 -2.21875,0.96875 -3.09375,1.78125 -0.875,0.75 -1.59375,1.6875 -2.15625,2.8125 -0.5,1.0625 -0.75,2.25 -0.75,3.5625 0,2.8125 0.78125,5.25 2.34375,7.3125 1.5625,2 3.53125,3.65625 5.90625,4.96875 -0.0625,2.4375 -0.15625,5.21875 -0.28125,8.34375 -0.125,3.0625 -0.3125,6.15625 -0.5625,9.28125 -0.1875,3.0625 -0.46875,6 -0.84375,8.8125 -0.375,2.75 -0.8125,5.09375 -1.3125,7.03125 -0.4375,1.625 -0.25,3.1875 0.5625,4.6875 0.8125,1.5 1.875,2.65625 3.1875,3.46875 1.3125,0.75 2.625,0.96875 3.9375,0.65625 1.375,-0.3125 2.375,-1.46875 3,-3.46875 0.875,-2.8125 1.59375,-5.875 2.15625,-9.1875 0.625,-3.3125 1.125,-6.59375 1.5,-9.84375 0.375,-3.25 0.625,-6.3125 0.75,-9.1875 0.18753,-2.875 0.31253,-5.25 0.375,-7.125 h 2.15625 14.625 c -3.125,8.3125 -5.53125,15.9375 -7.21875,22.875 -1.625,6.875 -2.4375,13.40625 -2.4375,19.59375 0,4.25 0.59375,7.78125 1.78125,10.59375 1.25,2.75 2.8125,4.96875 4.6875,6.65625 1.9375,1.6875 4.0625,2.875 6.375,3.5625 2.375,0.6875 4.6875,1.03125 6.9375,1.03125 4.125,0 7.71875,-0.96875 10.78125,-2.90625 2.98261,-1.88696 5.54655,-4.25243 7.69922,-7.08789 0.35346,0.56661 0.72148,1.11956 1.11328,1.65039 1.9375,2.5625 4.3125,4.59375 7.125,6.09375 2.875,1.5 6.1875,2.25 9.9375,2.25 3.625,0 6.78125,-0.78125 9.46875,-2.34375 2.75,-1.5 5.09375,-3.34375 7.03125,-5.53125 1.4375,2.375 3.40625,4.28125 5.90625,5.71875 2.5,1.4375 5.4375,2.15625 8.8125,2.15625 4.125,0 7.71875,-0.96875 10.78125,-2.90625 2.36681,-1.46742 4.46393,-3.22263 6.29297,-5.26367 0.0277,1.68152 0.29872,3.03756 0.83203,4.04492 0.625,1.125 1.375,1.96875 2.25,2.53125 0.9375,0.625 1.9375,1.03125 3,1.21875 1.125,0.25 2.15625,0.375 3.09375,0.375 1.375,0 2.40625,-0.28125 3.09375,-0.84375 0.75,-0.5 1.28125,-1.15625 1.59375,-1.96875 0.375,-0.75 0.5625,-1.59375 0.5625,-2.53125 0.0625,-1 0.0937,-1.96875 0.0937,-2.90625 V 104.625 c 0.375,-3.8125 1.28125,-7.59375 2.71875,-11.34375 1.5,-3.8125 3.21875,-7.21875 5.15625,-10.21875 1.9375,-3 3.90625,-5.4375 5.90625,-7.3125 2,-1.875 3.6875,-2.8125 5.0625,-2.8125 0.9375,0 1.65625,0.3125 2.15625,0.9375 0.5625,0.5625 0.96875,1.34375 1.21875,2.34375 0.31253,1 0.50003,2.15625 0.5625,3.46875 0.0625,1.3125 0.0937,2.71875 0.0937,4.21875 v 39 c 0,2.4375 0.34375,4.75 1.03125,6.9375 0.75,2.1875 1.8125,4.09375 3.1875,5.71875 1.4375,1.625 3.125,2.90625 5.0625,3.84375 2,1 4.28125,1.5 6.84375,1.5 4.125,0 7.71875,-0.96875 10.78125,-2.90625 3.0625,-1.9375 5.6875,-4.375 7.875,-7.3125 0.63272,-0.82605 1.22163,-1.68025 1.78516,-2.55078 0.92715,1.24933 1.92319,2.41538 2.99609,3.48828 3.125,3.0625 6.6875,5.375 10.6875,6.9375 4,1.5625 8.125,2.34375 12.375,2.34375 4.6875,0 8.84375,-0.59375 12.46875,-1.78125 3.6875,-1.1875 6.90625,-2.75 9.65625,-4.6875 2.75,-1.9375 5.0625,-4.125 6.9375,-6.5625 0.45168,-0.58281 0.88061,-1.1677 1.29492,-1.75391 1.16848,1.75957 2.45097,3.38089 3.86133,4.84766 3.1875,3.1875 6.8125,5.625 10.875,7.3125 4.125,1.75 8.375,2.625 12.75,2.625 4.6875,0 8.84375,-0.59375 12.46875,-1.78125 3.625,-1.1875 6.78125,-2.75 9.46875,-4.6875 2.6875,-1.9375 4.9375,-4.125 6.75,-6.5625 1.875,-2.5 3.40625,-5.03125 4.59375,-7.59375 1.1875,-2.5625 2.0625,-5.09375 2.625,-7.59375 0.625,-2.5 1.0625,-4.71875 1.3125,-6.65625 0.1875,-1.6875 -0.25,-3.125 -1.3125,-4.3125 -1,-1.25 -2.21875,-2.0625 -3.65625,-2.4375 -1.375,-0.375 -2.75,-0.1875 -4.125,0.5625 -1.3125,0.6875 -2.1875,2.09375 -2.625,4.21875 -0.5625,2.9375 -1.40625,5.84375 -2.53125,8.71875 -1.125,2.875 -2.625,5.46875 -4.5,7.78125 -1.8125,2.3125 -4.0625,4.1875 -6.75,5.625 -2.6875,1.375 -5.90625,2.0625 -9.65625,2.0625 -2.5,0 -4.71875,-0.3125 -6.65625,-0.9375 -1.875,-0.625 -3.53125,-1.46875 -4.96875,-2.53125 -1.4375,-1.0625 -2.6875,-2.3125 -3.75,-3.75 -1,-1.5 -1.8125,-3.0625 -2.4375,-4.6875 4.625,-1.375 8.6875,-3.375 12.1875,-6 3.5625,-2.6875 6.53125,-5.6875 8.90625,-9 2.4375,-3.375 4.25,-6.9375 5.4375,-10.6875 1.25,-3.75 1.875,-7.40625 1.875,-10.96875 0,-2.875 -0.40625,-5.5 -1.21875,-7.875 -0.75,-2.375 -1.875,-4.40625 -3.375,-6.09375 -1.5,-1.75 -3.34375,-3.09375 -5.53125,-4.03125 -2.125,-0.9375 -4.53125,-1.40625 -7.21875,-1.40625 -3.6875,0 -7.28125,1.09375 -10.78125,3.28125 -3.5,2.125 -6.625,5.09375 -9.375,8.90625 -2.75,3.8125 -4.96875,8.34375 -6.65625,13.59375 -1.6875,5.1875 -2.53125,10.8125 -2.53125,16.875 0,2.80015 0.21272,5.45843 0.62109,7.98633 -0.22621,0.62035 -0.4598,1.23995 -0.71484,1.85742 -1.1875,2.875 -2.75,5.46875 -4.6875,7.78125 -1.9375,2.3125 -4.3125,4.1875 -7.125,5.625 -2.75,1.375 -6,2.0625 -9.75,2.0625 -2.8125,0 -5.4375,-0.5 -7.875,-1.5 -2.375,-1.0625 -4.4375,-2.59375 -6.1875,-4.59375 -1.75,-2 -3.125,-4.46875 -4.125,-7.40625 -0.9375,-2.9375 -1.40625,-6.3125 -1.40625,-10.125 0,-4.3125 0.375,-8.375 1.125,-12.1875 0.8125,-3.8125 1.84375,-7.15625 3.09375,-10.03125 1.3125,-2.875 2.78125,-5.125 4.40625,-6.75 1.6875,-1.6875 3.40625,-2.53125 5.15625,-2.53125 1.625,0 2.90625,0.40625 3.84375,1.21875 0.9375,0.75 1.65625,1.6875 2.15625,2.8125 0.5625,1.0625 0.9375,2.1875 1.125,3.375 0.25,1.1875 0.5,2.1875 0.75,3 -0.1875,1.125 -0.0312,1.96875 0.46875,2.53125 0.5625,0.5625 1.28125,0.875 2.15625,0.9375 0.875,0.0625 1.875,-0.0625 3,-0.375 1.125,-0.375 2.15625,-0.90625 3.09375,-1.59375 0.9375,-0.6875 1.71875,-1.53125 2.34375,-2.53125 0.6875,-1 1.03125,-2.125 1.03125,-3.375 0,-1.6875 -0.34375,-3.625 -1.03125,-5.8125 -0.625,-2.1875 -1.65625,-4.21875 -3.09375,-6.09375 -1.4375,-1.9375 -3.3125,-3.5625 -5.625,-4.875 -2.3125,-1.375 -5.125,-2.0625 -8.4375,-2.0625 -4.5625,0 -8.78125,1.28125 -12.65625,3.84375 -3.8125,2.5625 -7.09375,5.9375 -9.84375,10.125 -2.75,4.125 -4.90625,8.84375 -6.46875,14.15625 -1.5625,5.3125 -2.34375,10.71875 -2.34375,16.21875 0,3.77893 0.37128,7.2643 1.10547,10.46094 -0.60147,2.10555 -1.36952,4.09206 -2.32422,5.94531 -1,2.0625 -2.21875,3.78125 -3.65625,5.15625 -1.375,1.375 -3.03125,2.0625 -4.96875,2.0625 -1.25,0 -2.21875,-0.375 -2.90625,-1.125 -0.625,-0.75 -1.09375,-1.625 -1.40625,-2.625 -0.31253,-1 -0.50003,-1.96875 -0.5625,-2.90625 -0.0625,-1 -0.0937,-1.71875 -0.0937,-2.15625 v -39.75 c 0,-2.1875 -0.25,-4.4375 -0.75,-6.75 -0.4375,-2.3125 -1.25,-4.40625 -2.4375,-6.28125 -1.1875,-1.875 -2.8125,-3.40625 -4.875,-4.59375 -2.0625,-1.1875 -4.6875,-1.78125 -7.875,-1.78125 -2.375,0 -4.59375,0.5 -6.65625,1.5 -2,0.9375 -3.90625,2.28125 -5.71875,4.03125 -1.75,1.6875 -3.40625,3.6875 -4.96875,6 -1.5,2.3125 -2.90625,4.8125 -4.21875,7.5 v -8.625 c 0,-2.3125 -0.9375,-4.28125 -2.8125,-5.90625 -1.8125,-1.6875 -4.3125,-2.53125 -7.5,-2.53125 -1.375,0 -2.5625,0.3125 -3.5625,0.9375 -1,0.5625 -1.5,1.3125 -1.5,2.25 0,0.6875 0.125,1.4375 0.375,2.25 0.3125,0.8125 0.46875,2.125 0.46875,3.9375 v 33.45703 c -0.29067,0.69412 -0.54315,1.50363 -0.75,2.44922 -0.4375,2.125 -1,4.40625 -1.6875,6.84375 -0.625,2.375 -1.46875,4.59375 -2.53125,6.65625 -1,2.0625 -2.21875,3.78125 -3.65625,5.15625 -1.375,1.375 -3.03125,2.0625 -4.96875,2.0625 -1.125,0 -2.125,-0.25 -3,-0.75 -0.8125,-0.5625 -1.46875,-1.25 -1.96875,-2.0625 -0.5,-0.875 -0.875,-1.8125 -1.125,-2.8125 -0.25,-1.0625 -0.375,-2.125 -0.375,-3.1875 V 87.75 c 0,-2.3125 -0.9375,-4.28125 -2.8125,-5.90625 -1.875,-1.6875 -4.40625,-2.53125 -7.59375,-2.53125 -1.375,0 -2.5625,0.3125 -3.5625,0.9375 -0.9375,0.5625 -1.40625,1.34375 -1.40625,2.34375 0,0.3125 0.0313,0.65625 0.0937,1.03125 0.0625,0.3125 0.12503,0.6875 0.1875,1.125 0.12503,0.4375 0.21878,0.96875 0.28125,1.59375 0.125,0.625 0.1875,1.40625 0.1875,2.34375 v 29.625 c -1.0625,2.6875 -2.46875,5.03125 -4.21875,7.03125 -1.75,1.9375 -3.9375,2.90625 -6.5625,2.90625 -3.375,0 -6.03125,-1.34375 -7.96875,-4.03125 -1.9375,-2.75 -2.90625,-6.65625 -2.90625,-11.71875 0,-6.9375 0.96875,-12.90625 2.90625,-17.90625 C 174.53125,89.53125 177,85.375 180,82.125 c 3.0625,-3.3125 6.46875,-5.75 10.21875,-7.3125 3.75,-1.625 7.4375,-2.4375 11.0625,-2.4375 1,0 1.96875,0.0625 2.90625,0.1875 0.9375,0.125 1.84375,0.1875 2.71875,0.1875 0.9375,0 1.5625,-0.3125 1.875,-0.9375 0.375,-0.6875 0.5625,-1.84375 0.5625,-3.46875 0,-2.5 -0.8125,-4.46875 -2.4375,-5.90625 -1.625,-1.4375 -3.75,-2.15625 -6.375,-2.15625 -5.875,0 -11.5625,1.1875 -17.0625,3.5625 -5.4375,2.375 -10.28125,5.8125 -14.53125,10.3125 -4.25,4.4375 -7.65625,9.84375 -10.21875,16.21875 -2.5625,6.375 -3.84375,13.5625 -3.84375,21.5625 0,1.54119 0.0897,3.03467 0.22461,4.50391 -0.53099,1.60587 -1.16454,3.13867 -1.91211,4.58984 -1.0625,2.0625 -2.375,3.78125 -3.9375,5.15625 -1.5625,1.375 -3.4375,2.0625 -5.625,2.0625 -1.3125,0 -2.46875,-0.28125 -3.46875,-0.84375 -0.9375,-0.5625 -1.71875,-1.3125 -2.34375,-2.25 -0.625,-1 -1.09375,-2.125 -1.40625,-3.375 -0.3125,-1.25 -0.46875,-2.53125 -0.46875,-3.84375 0,-3.1875 0.21875,-6.4375 0.65625,-9.75 0.4375,-3.375 0.96875,-6.625 1.59375,-9.75 0.625,-3.125 1.3125,-6.09375 2.0625,-8.90625 0.75,-2.875 1.4375,-5.40625 2.0625,-7.59375 0.625,-2.1875 1.15625,-4 1.59375,-5.4375 0.4375,-1.4375 0.65625,-2.34375 0.65625,-2.71875 0.1875,-1.125 -0.0937,-2.3125 -0.84375,-3.5625 -0.6875,-1.25 -1.5625,-2.40625 -2.625,-3.46875 -1.0625,-1.125 -2.15625,-2.03125 -3.28125,-2.71875 C 136.75,63.34375 135.9375,63 135.375,63 h -10.03125 -1.5 c -0.5,0 -1.125,-0.03125 -1.875,-0.09375 -0.75,-0.0625 -1.6875,-0.125 -2.8125,-0.1875 -1.0625,-0.125 -2.375,-0.28125 -3.9375,-0.46875 -0.5625,-1.9375 -1.28125,-3.5625 -2.15625,-4.875 -0.875,-1.3125 -1.875,-2.375 -3,-3.1875 C 109,53.375 107.84375,52.8125 106.59375,52.5 105.40625,52.1875 104.25,52.03125 103.125,52.03125 Z M 377.53125,73.125 c 1.25,0 2.21875,0.59375 2.90625,1.78125 0.75,1.1875 1.125,2.84375 1.125,4.96875 0,2.875 -0.375,5.65625 -1.125,8.34375 -0.75,2.625 -1.8125,5.0625 -3.1875,7.3125 -1.375,2.25 -3.03125,4.25 -4.96875,6 -1.9375,1.75 -4.09375,3.1875 -6.46875,4.3125 0,-0.625 -0.0313,-1.21875 -0.0937,-1.78125 -0.0625,-0.5625 -0.0937,-1.125 -0.0937,-1.6875 -0.0625,-1.3125 -0.0312,-2.9375 0.0937,-4.875 0.125,-2 0.375,-4.09375 0.75,-6.28125 0.375,-2.1875 0.84375,-4.34375 1.40625,-6.46875 0.625,-2.1875 1.375,-4.125 2.25,-5.8125 0.9375,-1.75 2,-3.15625 3.1875,-4.21875 1.25,-1.0625 2.65625,-1.59375 4.21875,-1.59375 z"
     id="path5124"
     inkscape:connector-curvature="0" /></g></svg>